<?xml version="1.0" encoding="UTF-8" standalone="no"?>
<svg
   viewBox="0 0 20 20"
   fill-rule="evenodd"
   clip-rule="evenodd"
   stroke-linejoin="round"
   stroke-miterlimit="1.414"
   version="1.1"
   id="svg28"
   sodipodi:docname="spinner2.svg"
   inkscape:version="1.1 (1:1.1+202105261518+ce6663b3b7)"
   xmlns:inkscape="http://www.inkscape.org/namespaces/inkscape"
   xmlns:sodipodi="http://sodipodi.sourceforge.net/DTD/sodipodi-0.dtd"
   xmlns:xlink="http://www.w3.org/1999/xlink"
   xmlns="http://www.w3.org/2000/svg"
   xmlns:svg="http://www.w3.org/2000/svg">
  <defs
     id="defs32">
    <linearGradient
       id="linearGradient107772">
      <stop
         style="stop-color:#8f541c;stop-opacity:1"
         offset="0"
         id="stop107756" />
      <stop
         style="stop-color:#b09042;stop-opacity:1"
         offset="0.12773934"
         id="stop107758" />
      <stop
         style="stop-color:#d5bf6a;stop-opacity:1"
         offset="0.24002911"
         id="stop107760" />
      <stop
         style="stop-color:#96812b;stop-opacity:1"
         offset="0.44441992"
         id="stop107762" />
      <stop
         style="stop-color:#c6aa56;stop-opacity:1"
         offset="0.58005458"
         id="stop107764" />
      <stop
         style="stop-color:#d1bc46;stop-opacity:1"
         offset="0.7485435"
         id="stop107766" />
      <stop
         style="stop-color:#9f8b34;stop-opacity:1"
         offset="0.87265646"
         id="stop107768" />
      <stop
         style="stop-color:#907230;stop-opacity:1"
         offset="1"
         id="stop107770" />
    </linearGradient>
    <linearGradient
       xlink:href="#linearGradient56968"
       id="linearGradient93222"
       x1="445.36871"
       y1="295.82675"
       x2="683.64679"
       y2="295.82675"
       gradientUnits="userSpaceOnUse" />
    <linearGradient
       id="linearGradient56968">
      <stop
         style="stop-color:#8f541c;stop-opacity:1"
         offset="0"
         id="stop56952" />
      <stop
         style="stop-color:#b09042;stop-opacity:1"
         offset="0.12773934"
         id="stop56954" />
      <stop
         style="stop-color:#d5bf6a;stop-opacity:1"
         offset="0.24002911"
         id="stop56956" />
      <stop
         style="stop-color:#966e2b;stop-opacity:1"
         offset="0.44441992"
         id="stop56958" />
      <stop
         style="stop-color:#c6aa56;stop-opacity:1"
         offset="0.58005458"
         id="stop56960" />
      <stop
         style="stop-color:#d1a546;stop-opacity:1"
         offset="0.7485435"
         id="stop56962" />
      <stop
         style="stop-color:#9f7a34;stop-opacity:1"
         offset="0.87265646"
         id="stop56964" />
      <stop
         style="stop-color:#906230;stop-opacity:1"
         offset="1"
         id="stop56966" />
    </linearGradient>
    <filter
       style="color-interpolation-filters:sRGB"
       id="filter12441-4-7"
       x="-0.0035613894"
       y="-0.0038209285"
       width="1.0123222"
       height="1.0103571">
      <feFlood
         flood-opacity="0.89336279197832147"
         flood-color="rgb(36,9,63)"
         result="flood"
         id="feFlood12431-4-93" />
      <feComposite
         in="flood"
         in2="SourceGraphic"
         operator="in"
         result="composite1"
         id="feComposite12433-4-7" />
      <feGaussianBlur
         stdDeviation="0.01"
         id="feGaussianBlur60980-87" />
      <feOffset
         dx="1"
         dy="0.5"
         result="offset"
         id="feOffset12437-7-41" />
      <feComposite
         in="SourceGraphic"
         in2="offset"
         operator="over"
         result="fbSourceGraphic"
         id="feComposite12439-6-90" />
    </filter>
    <filter
       style="color-interpolation-filters:sRGB"
       id="filter1362"
       x="-0.0035613894"
       y="-0.0038209285"
       width="1.0123222"
       height="1.0103571">
      <feFlood
         flood-opacity="0.89336279197832147"
         flood-color="rgb(36,9,63)"
         result="flood"
         id="feFlood1352" />
      <feComposite
         in="flood"
         in2="SourceGraphic"
         operator="in"
         result="composite1"
         id="feComposite1354" />
      <feGaussianBlur
         stdDeviation="0.01"
         id="feGaussianBlur1356" />
      <feOffset
         dx="1"
         dy="0.5"
         result="offset"
         id="feOffset1358" />
      <feComposite
         in="SourceGraphic"
         in2="offset"
         operator="over"
         result="fbSourceGraphic"
         id="feComposite1360" />
    </filter>
    <filter
       style="color-interpolation-filters:sRGB"
       id="filter1393"
       x="-0.0035613894"
       y="-0.0038209285"
       width="1.0123222"
       height="1.0103571">
      <feFlood
         flood-opacity="0.89336279197832147"
         flood-color="rgb(36,9,63)"
         result="flood"
         id="feFlood1383" />
      <feComposite
         in="flood"
         in2="SourceGraphic"
         operator="in"
         result="composite1"
         id="feComposite1385" />
      <feGaussianBlur
         stdDeviation="0.01"
         id="feGaussianBlur1387" />
      <feOffset
         dx="1"
         dy="0.5"
         result="offset"
         id="feOffset1389" />
      <feComposite
         in="SourceGraphic"
         in2="offset"
         operator="over"
         result="fbSourceGraphic"
         id="feComposite1391" />
    </filter>
    <filter
       style="color-interpolation-filters:sRGB"
       id="filter1424"
       x="-0.0035613894"
       y="-0.0038209285"
       width="1.0123222"
       height="1.0103571">
      <feFlood
         flood-opacity="0.89336279197832147"
         flood-color="rgb(36,9,63)"
         result="flood"
         id="feFlood1414" />
      <feComposite
         in="flood"
         in2="SourceGraphic"
         operator="in"
         result="composite1"
         id="feComposite1416" />
      <feGaussianBlur
         stdDeviation="0.01"
         id="feGaussianBlur1418" />
      <feOffset
         dx="1"
         dy="0.5"
         result="offset"
         id="feOffset1420" />
      <feComposite
         in="SourceGraphic"
         in2="offset"
         operator="over"
         result="fbSourceGraphic"
         id="feComposite1422" />
    </filter>
    <linearGradient
       xlink:href="#linearGradient9447"
       id="linearGradient94152"
       x1="429.6311"
       y1="398.61551"
       x2="378.98492"
       y2="364.66324"
       gradientUnits="userSpaceOnUse"
       gradientTransform="translate(0,6)" />
    <linearGradient
       id="linearGradient9447">
      <stop
         style="stop-color:#ffba26;stop-opacity:1"
         offset="0"
         id="stop9443" />
      <stop
         style="stop-color:#4f3106;stop-opacity:1"
         offset="0.59191859"
         id="stop9547" />
      <stop
         style="stop-color:#c06a00;stop-opacity:1"
         offset="1"
         id="stop9445" />
    </linearGradient>
    <linearGradient
       xlink:href="#linearGradient56968"
       id="linearGradient1823"
       gradientUnits="userSpaceOnUse"
       x1="425.34253"
       y1="878.10895"
       x2="708.51868"
       y2="1013.9222" />
    <linearGradient
       xlink:href="#linearGradient56968"
       id="linearGradient1825"
       gradientUnits="userSpaceOnUse"
       x1="408.53503"
       y1="574.57349"
       x2="833.01624"
       y2="855.05396" />
    <linearGradient
       xlink:href="#linearGradient56968"
       id="linearGradient1827"
       gradientUnits="userSpaceOnUse"
       x1="724.29858"
       y1="663.30322"
       x2="1026.4866"
       y2="625.76245" />
    <linearGradient
       xlink:href="#linearGradient9447"
       id="linearGradient957"
       x1="0"
       y1="449.14999"
       x2="898.29999"
       y2="449.14999"
       gradientUnits="userSpaceOnUse" />
    <linearGradient
       xlink:href="#linearGradient56968"
       id="linearGradient988"
       x1="91.928741"
       y1="647.48041"
       x2="636.75061"
       y2="258.94376"
       gradientUnits="userSpaceOnUse"
       gradientTransform="translate(-86.573762,1043.942)" />
    <linearGradient
       id="linearGradient120108">
      <stop
         style="stop-color:#fad415;stop-opacity:1"
         offset="0"
         id="stop120104" />
      <stop
         style="stop-color:#cc5502;stop-opacity:1"
         offset="1"
         id="stop120106" />
    </linearGradient>
    <radialGradient
       xlink:href="#linearGradient56968"
       id="radialGradient120110"
       cx="57.65049"
       cy="88.929794"
       fx="57.65049"
       fy="88.929794"
       r="11.357323"
       gradientTransform="matrix(1.9549264,-6.4000177,5.5378602,1.6915723,11.45797,1123.3888)"
       gradientUnits="userSpaceOnUse" />
    <filter
       style="color-interpolation-filters:sRGB"
       id="filter12441-4-7-3"
       x="-0.0035613894"
       y="-0.0038209285"
       width="1.0123222"
       height="1.0103571">
      <feFlood
         flood-opacity="0.89336279197832147"
         flood-color="rgb(36,9,63)"
         result="flood"
         id="feFlood12431-4-93-8" />
      <feComposite
         in="flood"
         in2="SourceGraphic"
         operator="in"
         result="composite1"
         id="feComposite12433-4-7-6" />
      <feGaussianBlur
         stdDeviation="0.01"
         id="feGaussianBlur60980-87-0" />
      <feOffset
         dx="1"
         dy="0.5"
         result="offset"
         id="feOffset12437-7-41-4" />
      <feComposite
         in="SourceGraphic"
         in2="offset"
         operator="over"
         result="fbSourceGraphic"
         id="feComposite12439-6-90-8" />
    </filter>
    <filter
       style="color-interpolation-filters:sRGB"
       id="filter1362-8"
       x="-0.0035613894"
       y="-0.0038209285"
       width="1.0123222"
       height="1.0103571">
      <feFlood
         flood-opacity="0.89336279197832147"
         flood-color="rgb(36,9,63)"
         result="flood"
         id="feFlood1352-8" />
      <feComposite
         in="flood"
         in2="SourceGraphic"
         operator="in"
         result="composite1"
         id="feComposite1354-9" />
      <feGaussianBlur
         stdDeviation="0.01"
         id="feGaussianBlur1356-7" />
      <feOffset
         dx="1"
         dy="0.5"
         result="offset"
         id="feOffset1358-7" />
      <feComposite
         in="SourceGraphic"
         in2="offset"
         operator="over"
         result="fbSourceGraphic"
         id="feComposite1360-6" />
    </filter>
    <filter
       style="color-interpolation-filters:sRGB"
       id="filter1393-4"
       x="-0.0035613894"
       y="-0.0038209285"
       width="1.0123222"
       height="1.0103571">
      <feFlood
         flood-opacity="0.89336279197832147"
         flood-color="rgb(36,9,63)"
         result="flood"
         id="feFlood1383-3" />
      <feComposite
         in="flood"
         in2="SourceGraphic"
         operator="in"
         result="composite1"
         id="feComposite1385-0" />
      <feGaussianBlur
         stdDeviation="0.01"
         id="feGaussianBlur1387-3" />
      <feOffset
         dx="1"
         dy="0.5"
         result="offset"
         id="feOffset1389-0" />
      <feComposite
         in="SourceGraphic"
         in2="offset"
         operator="over"
         result="fbSourceGraphic"
         id="feComposite1391-9" />
    </filter>
    <filter
       style="color-interpolation-filters:sRGB"
       id="filter1424-2"
       x="-0.0035613894"
       y="-0.0038209285"
       width="1.0123222"
       height="1.0103571">
      <feFlood
         flood-opacity="0.89336279197832147"
         flood-color="rgb(36,9,63)"
         result="flood"
         id="feFlood1414-5" />
      <feComposite
         in="flood"
         in2="SourceGraphic"
         operator="in"
         result="composite1"
         id="feComposite1416-4" />
      <feGaussianBlur
         stdDeviation="0.01"
         id="feGaussianBlur1418-0" />
      <feOffset
         dx="1"
         dy="0.5"
         result="offset"
         id="feOffset1420-5" />
      <feComposite
         in="SourceGraphic"
         in2="offset"
         operator="over"
         result="fbSourceGraphic"
         id="feComposite1422-9" />
    </filter>
    <linearGradient
       xlink:href="#linearGradient107772"
       id="linearGradient110312"
       gradientUnits="userSpaceOnUse"
       gradientTransform="translate(-597.5867,883.63306)"
       x1="939.79041"
       y1="-748.43628"
       x2="668.60834"
       y2="-798.28711" />
  </defs>
  <sodipodi:namedview
     id="namedview30"
     pagecolor="#ffffff"
     bordercolor="#666666"
     borderopacity="1.0"
     inkscape:pageshadow="2"
     inkscape:pageopacity="0.0"
     inkscape:pagecheckerboard="0"
     showgrid="false"
     inkscape:zoom="32"
     inkscape:cx="10.6875"
     inkscape:cy="7.1875"
     inkscape:window-width="1848"
     inkscape:window-height="1035"
     inkscape:window-x="72"
     inkscape:window-y="27"
     inkscape:window-maximized="1"
     inkscape:current-layer="svg28" />
  <style
     id="style2">@-webkit-keyframes loading-spinner-animation{0%{opacity:1}100%{opacity:0}}@keyframes loading-spinner-animation{0%{opacity:1}100%{opacity:0}}path{fill:#6a717d}path:nth-of-type(1){-webkit-animation:loading-spinner-animation .5s linear infinite;animation:loading-spinner-animation .5s linear infinite;-webkit-animation-delay:-.5s;animation-delay:-.5s}path:nth-of-type(2){-webkit-animation:loading-spinner-animation .5s linear infinite;animation:loading-spinner-animation .5s linear infinite;-webkit-animation-delay:-.4583333333333333s;animation-delay:-.4583333333333333s}path:nth-of-type(3){-webkit-animation:loading-spinner-animation .5s linear infinite;animation:loading-spinner-animation .5s linear infinite;-webkit-animation-delay:-.4166666666666667s;animation-delay:-.4166666666666667s}path:nth-of-type(4){-webkit-animation:loading-spinner-animation .5s linear infinite;animation:loading-spinner-animation .5s linear infinite;-webkit-animation-delay:-375ms;animation-delay:-375ms}path:nth-of-type(5){-webkit-animation:loading-spinner-animation .5s linear infinite;animation:loading-spinner-animation .5s linear infinite;-webkit-animation-delay:-.3333333333333333s;animation-delay:-.3333333333333333s}path:nth-of-type(6){-webkit-animation:loading-spinner-animation .5s linear infinite;animation:loading-spinner-animation .5s linear infinite;-webkit-animation-delay:-.2916666666666667s;animation-delay:-.2916666666666667s}path:nth-of-type(7){-webkit-animation:loading-spinner-animation .5s linear infinite;animation:loading-spinner-animation .5s linear infinite;-webkit-animation-delay:-.25s;animation-delay:-.25s}path:nth-of-type(8){-webkit-animation:loading-spinner-animation .5s linear infinite;animation:loading-spinner-animation .5s linear infinite;-webkit-animation-delay:-.20833333333333334s;animation-delay:-.20833333333333334s}path:nth-of-type(9){-webkit-animation:loading-spinner-animation .5s linear infinite;animation:loading-spinner-animation .5s linear infinite;-webkit-animation-delay:-.16666666666666666s;animation-delay:-.16666666666666666s}path:nth-of-type(10){-webkit-animation:loading-spinner-animation .5s linear infinite;animation:loading-spinner-animation .5s linear infinite;-webkit-animation-delay:-125ms;animation-delay:-125ms}path:nth-of-type(11){-webkit-animation:loading-spinner-animation .5s linear infinite;animation:loading-spinner-animation .5s linear infinite;-webkit-animation-delay:-83.33333333333333ms;animation-delay:-83.33333333333333ms}path:nth-of-type(12){-webkit-animation:loading-spinner-animation .5s linear infinite;animation:loading-spinner-animation .5s linear infinite;-webkit-animation-delay:-41.666666666666664ms;animation-delay:-41.666666666666664ms}</style>
  <path
     d="M 10,0 C 9.4,0 9,0.4 9,1 v 3 c 0,0.6 0.4,1 1,1 0.6,0 1,-0.4 1,-1 V 1 C 11,0.4 10.6,0 10,0 Z"
     id="path4"
     style="-webkit-animation:loading-spinner-animation 0.5s linear infinite;-webkit-animation-delay:-0.5s"
     sodipodi:nodetypes="sssssss" />
  <path
     d="M12.5 5.7c.5.3 1.1.1 1.4-.4l1.5-2.6c.3-.5.1-1.1-.4-1.4-.5-.3-1.1-.1-1.4.4l-1.5 2.6c-.2.5-.1 1.1.4 1.4z"
     id="path6" />
  <path
     d="M14.3 7.5c.3.5.9.6 1.4.4l2.6-1.5c.5-.3.6-.9.4-1.4-.3-.5-.9-.6-1.4-.4l-2.6 1.5c-.5.3-.6.9-.4 1.4z"
     id="path8" />
  <path
     d="M19 9h-3c-.6 0-1 .4-1 1s.4 1 1 1h3c.6 0 1-.4 1-1s-.4-1-1-1z"
     id="path10" />
  <path
     d="M18.3 13.6l-2.6-1.5c-.5-.3-1.1-.1-1.4.4-.3.5-.1 1.1.4 1.4l2.6 1.5c.5.3 1.1.1 1.4-.4.2-.5.1-1.1-.4-1.4z"
     id="path12" />
  <path
     d="M13.9 14.7c-.3-.5-.9-.6-1.4-.4-.5.2-.6.9-.4 1.4l1.5 2.6c.3.5.9.6 1.4.4.5-.3.6-.9.4-1.4l-1.5-2.6z"
     id="path14" />
  <path
     d="M10 15c-.6 0-1 .4-1 1v3c0 .6.4 1 1 1s1-.4 1-1v-3c0-.6-.4-1-1-1z"
     id="path16" />
  <path
     d="M7.5 14.3c-.5-.3-1.1-.1-1.4.4l-1.5 2.6c-.3.5-.1 1.1.4 1.4.5.3 1.1.1 1.4-.4l1.5-2.6c.2-.5.1-1.1-.4-1.4z"
     id="path18" />
  <path
     d="M5.7 12.5c-.3-.5-.9-.6-1.4-.4l-2.6 1.5c-.5.3-.6.9-.4 1.4.3.5.9.6 1.4.4l2.6-1.5c.5-.3.6-.9.4-1.4z"
     id="path20" />
  <path
     d="M5 10c0-.6-.4-1-1-1H1c-.6 0-1 .4-1 1s.4 1 1 1h3c.6 0 1-.4 1-1z"
     id="path22" />
  <path
     d="M1.7 6.4l2.6 1.5c.5.2 1.1.1 1.4-.4.3-.5.1-1.1-.4-1.4L2.7 4.6c-.5-.2-1.1-.1-1.4.4-.2.5-.1 1.1.4 1.4z"
     id="path24" />
  <path
     d="M6.4 1.7c-.3-.5-.9-.6-1.4-.4-.5.3-.6.9-.4 1.4l1.5 2.6c.3.5.9.6 1.4.4.5-.2.6-.9.4-1.4L6.4 1.7z"
     id="path26" />
  <path
     id="femheartbrain"
     style="fill:none;fill-opacity:1;stroke:#ffcc00;stroke-width:0.299498;stroke-linecap:round;stroke-linejoin:round;stroke-miterlimit:4;stroke-dasharray:none;stroke-opacity:1;-webkit-animation:loading-spinner-animation 0.5s linear infinite;-webkit-animation-delay:-0.5s"
     d="m 10.205019,13.458615 c 0.511921,0.243241 0.980401,0.532879 1.571345,0.647215 0.121006,0.02341 0.236,0.08082 0.359227,0.07834 0.278503,-0.0068 0.311329,-0.378924 0.408531,-0.584331 0.0338,-0.0762 0.09615,-0.135306 0.146135,-0.202019 0.02499,-0.03336 0.04729,-0.06923 0.06058,-0.10874 0.01329,-0.0395 0.01721,-0.08301 0.0056,-0.123049 -0.01236,-0.04275 -0.04145,-0.07897 -0.0749,-0.108323 -0.03344,-0.02935 -0.07154,-0.0528 -0.107904,-0.07845 -0.107068,-0.0755 -0.20006,-0.170946 -0.272737,-0.279945 0.107016,0.05026 0.223569,0.08013 0.341574,0.08743 0.07995,0.0049 0.161771,-6.25e-4 0.236804,-0.02872 0.07503,-0.02804 0.143022,-0.08033 0.179036,-0.15188 0.0299,-0.05939 0.03622,-0.127324 0.04314,-0.193453 0.0069,-0.06613 0.01561,-0.134303 0.0492,-0.191679 0.02343,-0.04 0.05795,-0.07261 0.09568,-0.09955 0.03773,-0.02694 0.07891,-0.04862 0.119601,-0.07082 0.0407,-0.0222 0.08124,-0.04515 0.117307,-0.07427 0.03607,-0.02912 0.06775,-0.06489 0.08628,-0.107381 0.01584,-0.0363 0.02166,-0.07661 0.01952,-0.116156 -0.0021,-0.03955 -0.01206,-0.07841 -0.02642,-0.115321 C 13.53394,11.5637 13.487843,11.498244 13.445475,11.431317 13.214026,11.065739 13.08689,10.635413 13.079039,10.202801 13.129193,9.4657219 13.434073,8.7460414 13.32921,8.0513035 13.237897,7.5453261 12.984606,7.0698534 12.615669,6.7117494 12.042538,6.1554452 11.230912,5.9069366 10.435238,5.837237 10.301895,5.8255559 10.167903,5.8183984 10.033915,5.8163454 9.6319517,5.8101839 9.2295092,5.8498679 8.8408092,5.9506769 8.3225422,6.0850892 7.8290327,6.3308434 7.4337758,6.6920071 6.9997546,7.0885941 6.6937153,7.6175385 6.5380615,8.1844863 6.3824079,8.7514344 6.3743321,9.3548327 6.4860396,9.9320487 c 0.076019,0.3928063 0.2078041,0.7769533 0.4125005,1.1207173 0.2047021,0.343765 0.4840106,0.646418 0.8249984,0.85571 0.3951737,0.242552 0.8694676,0.353893 1.3313024,0.31264 0.4618344,-0.04125 0.9087029,-0.234948 1.2546311,-0.543698 C 10.82604,11.236247 11.998153,9.6871578 11.867073,8.5213312 11.819836,8.1011984 11.51056,7.5664693 11.067204,7.5370066 10.623848,7.507544 10.1478,8.0018402 9.8983439,8.478833 9.6147847,8.1141949 9.2812304,7.5523029 8.7125606,7.5598669 8.1438908,7.5674307 7.902618,8.0489529 7.8437685,8.4623556 7.7168112,9.3542057 8.7168365,10.199933 9.1002873,10.85501" />
</svg>
