<?xml version="1.0" encoding="UTF-8" standalone="no"?>
<!-- Created with Inkscape (http://www.inkscape.org/) -->

<svg
   version="1.1"
   id="svg2"
   width="209.57214"
   height="209.57214"
   viewBox="0 0 209.57214 209.57214"
   xmlns:xlink="http://www.w3.org/1999/xlink"
   xmlns="http://www.w3.org/2000/svg"
   xmlns:svg="http://www.w3.org/2000/svg">
  <g id="adole"
     transform="translate(-39.213932,-44.213932)"
     style="color:#daaa00">
    <circle
       style="display:none;fill:none;fill-opacity:1;stroke:#ffcc00;stroke-width:5.54519;stroke-linecap:round;stroke-linejoin:round;stroke-miterlimit:4;stroke-dasharray:none;stroke-opacity:1"
       id="circle"
       cx="144"
       cy="149"
       r="102.01347" />
    <path
       id="femheartbrain"
       style="fill:none;fill-opacity:1;stroke:currentColor;stroke-width:9.6;stroke-linecap:round;stroke-linejoin:round;stroke-miterlimit:4;stroke-dasharray:none;stroke-opacity:1"
       d="m 147.83339,213.6689 c 9.57185,4.54807 18.33145,9.96372 29.38086,12.10157 2.26258,0.43777 4.41272,1.51114 6.7168,1.46484 5.20744,-0.12723 5.8212,-7.0851 7.63867,-10.92578 0.63196,-1.42478 1.79787,-2.52996 2.73242,-3.77734 0.46727,-0.6237 0.88432,-1.29457 1.13281,-2.03321 0.24849,-0.73864 0.32192,-1.55212 0.10547,-2.30078 -0.23108,-0.79927 -0.77509,-1.47655 -1.40039,-2.02539 -0.6253,-0.54885 -1.33762,-0.98734 -2.01758,-1.4668 -2.00193,-1.41162 -3.74068,-3.19631 -5.0996,-5.23437 2.00097,0.93978 4.18025,1.49832 6.38671,1.63476 1.49485,0.0924 3.02478,-0.0129 4.42774,-0.53711 1.40294,-0.52425 2.67424,-1.50207 3.34764,-2.83984 0.559,-1.11046 0.6772,-2.38071 0.8066,-3.61719 0.1295,-1.23647 0.2917,-2.51118 0.9199,-3.58398 0.4381,-0.74797 1.0836,-1.35769 1.7891,-1.86133 0.7055,-0.50364 1.4754,-0.9091 2.2363,-1.32422 0.761,-0.41511 1.519,-0.84415 2.1934,-1.38867 0.6744,-0.54452 1.2667,-1.21332 1.6133,-2.00781 0.2961,-0.67878 0.4049,-1.4324 0.3652,-2.17188 -0.04,-0.73948 -0.2255,-1.46614 -0.4941,-2.15625 -0.5373,-1.3802 -1.3992,-2.60408 -2.1914,-3.85547 -4.3276,-6.83555 -6.7048,-14.88175 -6.8516,-22.9707 0.9378,-13.78184 6.6384,-27.23837 4.6777,-40.22852 -1.7074,-9.46072 -6.4434,-18.351071 -13.34173,-25.046871 -10.71637,-10.40173 -25.89209,-15.04832 -40.76953,-16.35156 -2.49323,-0.21841 -4.99861,-0.35223 -7.50391,-0.39063 -7.51587,-0.11519 -15.04071,0.6268 -22.30859,2.51172 -9.69051,2.51323 -18.91811,7.10832 -26.308592,13.86133 -8.11529,7.41535 -13.83759,17.305511 -16.74799,27.906251 -2.9104,10.60075 -3.0614,21.88304 -0.9727,32.67578 1.4214,7.34466 3.8855,14.52741 7.7129,20.95508 3.8275,6.42768 9.04999,12.08667 15.425752,16 7.38892,4.5352 16.25723,6.61706 24.89258,5.8457 8.63534,-0.77135 16.99085,-4.39303 23.45899,-10.16601 9.65875,-8.24898 31.5748,-37.21372 29.12389,-59.01225 -0.88324,-7.85561 -6.66605,-17.85393 -14.95588,-18.40482 -8.28983,-0.55089 -17.19095,8.69142 -21.85525,17.61019 -5.30197,-6.81797 -11.53874,-17.32418 -22.17168,-17.18275 -10.63294,0.14143 -15.14424,9.14489 -16.2446,16.87466 -2.37384,16.67574 16.32455,32.48908 23.49428,44.73765" />
  </g>
</svg>
