<svg xmlns="http://www.w3.org/2000/svg" width="682.667" height="682.667">
<!--<style>path{color:#da0}</style>-->
<path d="M208.667 642.13c-34.415-7.878-62.172-33.284-72.264-66.146l-3.486-11.35-12.125-2.361c-36.125-7.036-65.038-35.04-74.4-72.062-3.772-14.92-2.91-37.01 2.035-52.154 1.906-5.835 3.34-10.644 3.186-10.686-.154-.042-4.652-2.997-9.997-6.567C23.851 408.938 10.909 390.862 3.81 368c-4.456-14.35-4.456-39.008 0-53.286 7.596-24.334 21.55-42.933 41.523-55.344 3.3-2.051 6.132-3.83 6.292-3.952.16-.123-1.292-4.692-3.227-10.154-5.035-14.216-5.88-37.485-1.928-53.114 8.847-34.986 34.424-61.011 69.503-70.722 5.485-1.519 11.485-2.763 13.334-2.764 3.056-.003 3.696-1.069 7.088-11.802 14.99-47.434 62.05-75.59 110.763-66.27 29.379 5.62 54.959 25.13 68.002 51.862 10.973 22.491 10.173 2.906 10.173 249.085 0 213.832-.066 219.627-2.624 229.63-4.271 16.698-12.238 30.416-25.34 43.632-19.238 19.405-38.354 27.787-65.369 28.662-9.955.323-18.14-.145-23.333-1.334zm36.053-36.186c22.783-5.896 41.111-26.717 44.55-50.61 2.053-14.26 1.831-79.338-.27-79.317-.917.01-5.513 1.223-10.214 2.697-11.322 3.548-29.225 4.75-39.453 2.649-16.895-3.472-38.813-17.068-45.838-28.434-7.694-12.45.927-27.596 15.708-27.596 4.633 0 6.527 1.057 14.367 8.017 11.945 10.603 20.202 13.776 33.865 13.014 7.807-.435 12.195-1.542 19.313-4.873 5.066-2.37 10.27-5.269 11.565-6.44 2.223-2.013 2.352-10.36 2.327-150.258-.016-92.284-.533-151.645-1.37-157.46-4.357-30.274-30.125-52.666-60.603-52.666-42.499 0-71.944 42.308-57.432 82.52 2.957 8.195 6.953 14.367 14.505 22.406 3.708 3.946 6.928 8.823 7.485 11.333 2.789 12.572-8.773 24.476-21.135 21.76-11.862-2.605-32.197-30.71-37.522-51.858-.853-3.389-2.327-6.161-3.274-6.161-3.586 0-18.094 5.158-23.625 8.4-8.365 4.901-17.919 15.743-22.5 25.531-11.068 23.652-7.153 49.8 10.274 68.622 6.983 7.543 12.218 10.802 28.936 18.014 6.187 2.669 8.1 4.253 9.667 8.004 2.544 6.089 2.469 10.607-.273 16.385-2.668 5.623-8.85 9.699-14.723 9.705-8.823.011-25.394-7.706-39.42-18.357l-7.702-5.849-6.253 3.665c-27.09 15.875-37.362 50.825-23.532 80.06 4.544 9.606 14.88 20.632 23.634 25.216l7.171 3.754 6.526-5.454c14.253-11.913 34.295-19.927 53.193-21.27 14.367-1.023 19.75 1.164 23.45 9.526 6.096 13.782-2.987 26.048-19.289 26.048-7.259 0-20.102 3.873-27.799 8.383-3.153 1.848-8.892 6.7-12.752 10.782-22.916 24.23-22.494 61.472.963 84.928 8.046 8.046 21.208 15.306 30.253 16.687l5.494.838 2.935-9.809c3.618-12.095 12.518-28.082 18.611-33.432 4.126-3.622 5.246-3.949 11.71-3.413 8.257.685 14.027 5.107 16.52 12.66 1.905 5.772.904 9.575-4.774 18.137-7.067 10.658-10.13 21.01-10.13 34.239 0 40.767 37.28 69.519 76.86 59.277zm-54.053-280.216c-4.081-1.485-9.417-7.753-10.72-12.594-1.74-6.462 1.196-21.101 6.488-32.342 9.941-21.119 31.595-34.139 56.747-34.12 12.559.009 20.423 8.083 19.12 19.632-1.098 9.754-9.568 16.363-20.969 16.363-5.953 0-13.831 2.832-17.76 6.384-3.859 3.49-7.532 11.577-8.452 18.611-1.106 8.453-3.695 13.247-8.852 16.392-4.06 2.476-11.273 3.25-15.602 1.674zM434 642.088c-20.608-4.827-33.716-12.17-48.702-27.287-13.103-13.216-21.07-26.934-25.34-43.632-2.558-10.003-2.625-15.799-2.625-229.836s.066-219.832 2.625-229.835c4.27-16.699 12.237-30.416 25.34-43.632 12.6-12.71 23.399-19.483 39.813-24.97 9.03-3.02 12.398-3.418 28.889-3.415 16.665.003 19.81.384 29.333 3.56 15.28 5.096 26.416 12.093 38.661 24.292C534.64 79.931 541.457 91.03 546.361 107c3.233 10.53 3.901 11.667 6.859 11.667 6.423 0 20.947 4.333 31.447 9.382 25.907 12.459 44.243 35.283 51.546 64.164 3.893 15.394 3.018 38.736-1.988 53.052-1.91 5.462-3.342 9.971-3.182 10.02.16.047 4.663 3.007 10.008 6.577 36.32 24.26 51.215 74.066 34.513 115.415-8.668 21.46-20.408 34.647-44.521 50.008-.16.102 1.272 4.654 3.182 10.117 4.97 14.21 5.879 37.666 2.047 52.819-8.984 35.527-35.37 62.186-70.424 71.151-5.651 1.446-11.541 2.628-13.09 2.628-2.377 0-3.372 1.815-6.397 11.667-4.91 15.991-11.73 27.081-24.391 39.666-12.536 12.46-21.511 18.11-37.622 23.68-9.798 3.389-14.153 4.113-27.015 4.494-10.017.296-18.107-.196-23.333-1.42zm37.879-36.614c19.843-6.176 36.107-22.95 41.434-42.733 2.495-9.264 1.907-26.188-1.222-35.21-3.481-10.033-7.107-15.88-15.165-24.457-9.825-10.458-10.576-19.885-2.248-28.213 8.55-8.55 17.393-7.163 28.855 4.526 10.179 10.381 17.899 23.242 22.657 37.743l3.652 11.13 5.412-.848c8.55-1.34 21.4-8.003 28.823-14.946 12.692-11.873 18.825-26.832 18.775-45.8-.074-27.948-16.384-49.485-44.323-58.523-7.142-2.31-10.804-6.927-11.536-14.545-1.205-12.541 6.877-21.013 18.814-19.723 8.398.907 26.754 9.828 36.415 17.697l7.58 6.174 5.856-3.106c13.213-7.01 24.875-22.317 28.965-38.02 6.841-26.266-5.457-56.353-27.822-68.062l-7.082-3.708-6.526 5.454c-14.254 11.912-34.296 19.927-53.193 21.27-14.444 1.028-19.745-1.151-23.511-9.665C520.408 288.16 529.49 276 545.839 276c7.259 0 20.102-3.873 27.799-8.384 20.225-11.852 32.736-38.411 29.028-61.622-3.99-24.976-24.747-47.189-47.412-50.74l-5.412-.847-3.652 11.13c-4.305 13.12-12.414 27.399-18.44 32.469-3.77 3.173-5.157 3.54-11.385 3.024-8.195-.68-13.976-5.123-16.46-12.654-1.882-5.7-.833-9.88 4.379-17.455 27.96-40.638-1.095-96.254-50.284-96.254-30.152 0-55.818 22.024-60.598 52-.76 4.766-1.386 24.786-1.392 44.489l-.01 35.822 3-.874c29.33-8.538 45.168-8.262 65.666 1.148 10.734 4.927 24.311 15.7 28.666 22.747 2.41 3.9 2.863 6.164 2.334 11.67-.55 5.727-1.436 7.547-5.475 11.248-4.103 3.76-5.803 4.416-11.442 4.416-6.205 0-7.19-.505-15.653-8.016-10.795-9.583-19.67-13.329-31.48-13.289-9.673.033-24.093 4.651-31.021 9.936L392 249.469l.01 148.932c.008 96.277.5 151.996 1.393 157.599 3.644 22.853 20.378 42.41 42.28 49.41 10.281 3.287 25.753 3.314 36.196.064zm-43.48-172.087c-11.035-6.727-11.203-23.46-.302-29.899 2.055-1.214 7.87-2.726 12.922-3.36 17.466-2.193 22.437-7.031 26.353-25.644 1.121-5.331 3.07-10.832 4.33-12.225 7.832-8.654 20.854-8.087 28.18 1.228 3.154 4.009 3.714 14.198 1.345 24.476-3.79 16.451-16.616 33.637-30.263 40.553-14.487 7.341-34.718 9.656-42.566 4.871z" style="fill:currentColor;stroke-width:1.33333"/></svg>
