<?xml version="1.0" encoding="UTF-8" standalone="no"?>
<svg
   id="Layer_1"
   data-name="Layer 1"
   viewBox="0 0 50 50"
   version="1.1"
   xmlns="http://www.w3.org/2000/svg"
   xmlns:svg="http://www.w3.org/2000/svg"
   xmlns:rdf="http://www.w3.org/1999/02/22-rdf-syntax-ns#"
   xmlns:cc="http://creativecommons.org/ns#"
   xmlns:dc="http://purl.org/dc/elements/1.1/">
  <defs
     id="defs4">
    <style
       id="style2">.cls-1{fill:none;stroke:#74c481;stroke-width:2px;}</style>
  </defs>
  <title
     id="title6">Icons_Carousel</title>
  <g
     id="Page-1"
     style="stroke:#ffcc00">
    <g
       id="_-"
       data-name="-"
       style="stroke:#ffcc00">
      <g
         id="Group-11"
         style="stroke:#ffcc00">
        <g
           id="Group-10"
           style="stroke:#ffcc00">
          <g
             id="Page-1-2"
             data-name="Page-1"
             style="stroke:#ffcc00">
            <path
               id="Stroke-1"
               class="cls-1"
               d="m 18.86,35.82 v 0 A 2.57,2.57 0 1 1 15.07,32.35 L 25.45,22"
               style="stroke:#ffcc00" />
            <path
               id="Stroke-3"
               class="cls-1"
               d="m 15.28,32.08 v 0 A 2.57,2.57 0 1 1 11.49,28.61 L 21.87,18.24"
               style="stroke:#ffcc00" />
            <path
               id="Stroke-5"
               class="cls-1"
               d="M 25.89,10.06 A 11.730901,11.730901 0 1 1 42.48,26.65 L 26,43.11 v 0 a 2.57,2.57 0 1 1 -3.79,-3.47 l 10.4,-10.38"
               style="stroke:#ffcc00" />
            <path
               id="Stroke-7"
               class="cls-1"
               d="m 22.47,39.42 v 0 A 2.57,2.57 0 0 1 18.68,35.95 L 29.05,25.58"
               style="stroke:#ffcc00" />
            <path
               id="Stroke-9"
               class="cls-1"
               d="M 18.13,14.28 23,19.14 a 3.8749452,3.8749452 0 0 0 5.48,-5.48 v 0 l -4,-4 v 0 a 11.738186,11.738186 0 1 0 -16.7,16.5 l 3.28,3.28"
               style="stroke:#ffcc00" />
          </g>
        </g>
      </g>
    </g>
  </g>
  <metadata
     id="metadata836">
    <rdf:RDF>
      <cc:Work
         rdf:about="">
        <dc:title>Icons_Carousel</dc:title>
      </cc:Work>
    </rdf:RDF>
  </metadata>
</svg>
