<?xml version="1.0" encoding="UTF-8" standalone="no"?>
<svg
   height="48"
   viewBox="0 96 960 960"
   width="48"
   version="1.1"
   id="svg1282"
   sodipodi:docname="eco.svg"
   inkscape:version="1.1 (1:1.1+202105261518+ce6663b3b7)"
   xmlns:inkscape="http://www.inkscape.org/namespaces/inkscape"
   xmlns:sodipodi="http://sodipodi.sourceforge.net/DTD/sodipodi-0.dtd"
   xmlns="http://www.w3.org/2000/svg"
   xmlns:svg="http://www.w3.org/2000/svg">
  <defs
     id="defs1286" />
  <sodipodi:namedview
     id="namedview1284"
     pagecolor="#ffffff"
     bordercolor="#666666"
     borderopacity="1.0"
     inkscape:pageshadow="2"
     inkscape:pageopacity="0.0"
     inkscape:pagecheckerboard="0"
     showgrid="false"
     inkscape:zoom="17.583333"
     inkscape:cx="4.4075829"
     inkscape:cy="24"
     inkscape:window-width="1848"
     inkscape:window-height="1035"
     inkscape:window-x="72"
     inkscape:window-y="27"
     inkscape:window-maximized="1"
     inkscape:current-layer="svg1282" />
  <path
     d="M213 881q-43.594-45-68.297-104Q120 718 120 656q0-73 25.5-133.5T222 411q35-35 87-59t122.5-37.5Q502 301 591 297.5t198 3.5q8 108 5.5 197.5t-16 160.75q-13.5 71.25-38 124.563T680 873q-51 51-110 77t-126 26q-69 0-126.5-23.5T213 881Zm103 0q25 17 58 26t69.923 9Q497 916 547 894t91-64q27-27 46-70.5t31-103Q727 597 731 522t0-165q-94-2-168.5 2.5T431 376q-57 12-98 30.5T266 452q-42 43-64 91t-22 98q0 48 20.5 100.5T251 826q53-98 127-176t157-123q-87 75-141 162.5T316 881Zm0 0Zm0 0Z"
     id="path1280"
     style="fill:#ffcc00" />
</svg>
