<?xml version="1.0" encoding="UTF-8" standalone="no"?>
<svg
   version="1.1"
   id="svg2"
   width="260.0929"
   height="364.0957"
   viewBox="0 0 260.09289 364.0957"
   xmlns:xlink="http://www.w3.org/1999/xlink"
   xmlns="http://www.w3.org/2000/svg"
   xmlns:svg="http://www.w3.org/2000/svg"
   xmlns:rdf="http://www.w3.org/1999/02/22-rdf-syntax-ns#"
   xmlns:cc="http://creativecommons.org/ns#"
   xmlns:dc="http://purl.org/dc/elements/1.1/">
  <metadata
     id="metadata8">
    <rdf:RDF>
      <cc:Work
         rdf:about="">
        <dc:format>image/svg+xml</dc:format>
        <dc:type
           rdf:resource="http://purl.org/dc/dcmitype/StillImage" />
      </cc:Work>
    </rdf:RDF>
  </metadata>
  <defs
     id="defs6">
    <linearGradient
       id="linearGradient2302">
      <stop
         style="stop-color:#800080;stop-opacity:1;"
         offset="0"
         id="stop2298" />
      <stop
         style="stop-color:#00803a;stop-opacity:1"
         offset="1"
         id="stop2300" />
    </linearGradient>
    <linearGradient
       xlink:href="#linearGradient2302"
       id="linearGradient2296"
       x1="321.15314"
       y1="600.74622"
       x2="437.86615"
       y2="319.60794"
       gradientUnits="userSpaceOnUse" />
  </defs>
  <g
     id="g10"
     transform="translate(-265.00574,-287.32438)">
    <path
       id="path1833"
       style="fill:url(#linearGradient2296);fill-opacity:1;stroke:none"
       d="m 502.39574,287.32438 c -7.06247,19.87852 -22.08587,34.69056 -39.18499,45.90006 -55.1565,27.51881 -109.07769,49.18011 -150.15109,96.7293 -29.98944,34.07276 -45.71086,87.43889 -39.22396,133.29914 1.14405,8.08804 5.77831,24.35807 13.16647,20.66812 62.85318,-31.39151 130.42571,-53.68024 168.2202,-110.52632 11.67503,-18.207 22.44978,-39.24398 20.21835,-61.52674 4.05784,10.36581 1.66459,27.10814 -0.6127,39.24801 -11.41061,48.05557 -51.34976,81.99563 -91.41139,107.26323 -25.87335,17.35078 -55.17188,28.18914 -82.54383,42.71116 -18.55893,9.99032 -37.6832,27.31881 -35.72893,50.32975 9.44015,-17.43003 27.84327,-28.76509 45.87523,-36.82254 57.52324,-27.11185 122.97537,-43.3689 168.69273,-90.29096 40.11344,-40.51182 50.05603,-101.40767 43.55298,-156.09712 -4.66758,-26.37944 -6.28028,-57.48781 -20.86907,-80.88509 z" />
    <path
       id="path1835"
       style="fill:#fff8ff;fill-opacity:0.5;stroke:#ffcc00;stroke-width:14;stroke-linecap:round;stroke-linejoin:round;stroke-miterlimit:4;stroke-dasharray:none;stroke-opacity:1"
       d="m 505.01714,291.68665 c -24.06893,42.11881 -70.50734,62.90472 -113.6396,80.04199 -34.1233,14.5286 -65.08912,36.51265 -87.55298,68.05765 -26.96595,36.2238 -34.30823,90.70052 -30.83425,117.95787 3.47398,27.25735 -4.79558,36.52663 17.1572,27.97598 61.49481,-23.95237 126.16764,-54.92441 163.72289,-111.36298 12.64358,-18.15197 21.83727,-39.51096 22.1807,-61.75962 3.74075,12.13612 0.89111,27.45141 -1.60985,40.39352 -10.02815,41.379 -42.90692,72.40687 -76.5334,96.11441 -29.95988,21.23805 -63.87536,35.61525 -96.46192,52.11937 -17.19392,9.79646 -36.1096,25.216 -35.8285,46.83037 12.24182,-15.21575 28.90967,-25.9167 46.4497,-34.25784 54.21417,-25.33042 114.79115,-41.57799 160.07821,-82.65708 39.80379,-35.32856 54.78645,-90.82877 52.17668,-142.55825 -1.89042,-27.09663 -5.17155,-54.36384 -12.24508,-80.635 -1.98801,-5.4426 -3.57569,-11.79704 -7.0598,-16.26039 z" />
  </g>
</svg>
