<?xml version="1.0" encoding="UTF-8" standalone="no"?>
<svg
   width="90.254745"
   height="90.254745"
   version="1.1"
   id="svg5"
   xmlns="http://www.w3.org/2000/svg"
   xmlns:svg="http://www.w3.org/2000/svg">
  <style>path { color: #ffcc00 }</style>
  <circle
     style="display:none;fill:#800080"
     id="path870"
     cx="45.127373"
     cy="45.127373"
     r="45.127373" />
  <path
     d="m 41.271873,86.583681 c -13.325,-9.024 -23.766,-20.9 -28.493,-32.411 -5.888,-14.338 -3.493,-29.55 5.756,-36.56 3.654,-2.77 8.826,-4.58 13.044,-4.566 4.442,0.014 9.17,1.855 11.881,4.627 l 1.646,1.681 1.658,-1.684 c 2.73,-2.775 7.445,-4.61 11.882,-4.624 2.519,-0.009 6.336,0.876 8.866,2.054 5.685,2.647 9.516,7.077 11.642,13.46 3.11,9.34 1.43,20.81 -4.622,31.564 -5.24,9.31 -14.693,19.107 -25.319,26.236 -2.153,1.444 -3.585,2.195 -4.17,2.187 -0.546,-0.008 -2.005,-0.769 -3.77,-1.964 z m 8.48,-6.345 a 1188,1188 0 0 0 4.125,-3.08 c 0.069,-0.056 0.36,-4.376 0.646,-9.6 l 0.52,-9.5 -1.355,-0.6 c -2.309,-1.02 -6.172,-1.858 -8.576,-1.858 -2.403,0 -6.267,0.837 -8.576,1.859 l -1.355,0.6 0.521,9.509 c 0.472,8.613 0.579,9.55 1.126,9.942 0.332,0.238 2.33,1.73 4.44,3.317 2.157,1.622 3.978,2.777 4.16,2.639 0.178,-0.136 2.124,-1.588 4.324,-3.228 z m -18.534,-15.112 c -0.214,-4.095 -0.463,-7.705 -0.554,-8.022 -0.454,-1.585 2.905,-3.653 8.23,-5.065 5.477,-1.453 11.852,-0.801 17.447,1.784 3.157,1.458 3.32,1.782 3.01,5.937 a 356.595,356.595 0 0 0 -0.48,8.32 l -0.226,4.96 1.822,-1.76 c 1.001,-0.968 2.986,-3.2 4.41,-4.96 8.129,-10.045 11.789,-19.507 11.326,-29.28 -0.31,-6.537 -1.992,-10.763 -5.801,-14.567 -3.585,-3.58 -7.613,-5.139 -12.638,-4.889 -5.97,0.297 -9.753,3.522 -10.432,8.896 -0.268,2.12 -0.854,2.88 -2.22,2.88 -1.366,0 -1.951,-0.76 -2.22,-2.88 -0.679,-5.374 -4.461,-8.6 -10.432,-8.896 -5.025,-0.25 -9.052,1.308 -12.637,4.889 -3.819,3.814 -5.517,8.074 -5.808,14.567 -0.41,9.153 2.732,17.965 9.708,27.226 2.526,3.353 7.443,8.747 7.72,8.47 0.09,-0.09 -0.011,-3.515 -0.225,-7.61 z m 10.636,-14.9 c -2.366,-0.846 -4.37,-2.61 -5.44,-4.79 -0.777,-1.583 -0.9,-2.211 -0.894,-4.556 0.006,-2.32 0.134,-2.961 0.865,-4.36 1.065,-2.037 3.335,-4.073 5.282,-4.736 1.893,-0.645 4.997,-0.645 6.89,0 0.814,0.277 2.143,1.087 2.953,1.8 5.306,4.671 4.045,13.51 -2.33,16.33 -2.097,0.927 -5.23,1.06 -7.326,0.312 z m 5.636,-4.375 c 3.723,-1.925 4.036,-7.295 0.55,-9.41 -2.287,-1.388 -4.883,-1.104 -6.723,0.735 -2.551,2.552 -1.98,6.596 1.207,8.539 1.198,0.73 3.685,0.799 4.966,0.136 z"
     style="fill:currentColor;stroke-width:0.32" />
</svg>
