<?xml version="1.0" encoding="UTF-8" standalone="no"?>
<!-- Created with Inkscape (http://www.inkscape.org/) -->

<svg
   version="1.1"
   id="svg2"
   width="741"
   height="741"
   viewBox="0 0 741 741"
   xmlns:xlink="http://www.w3.org/1999/xlink"
   xmlns="http://www.w3.org/2000/svg"
   xmlns:svg="http://www.w3.org/2000/svg">
  <defs
     id="defs6">
    <linearGradient
       xlink:href="#linearGradient56968"
       id="linearGradient988"
       x1="91.928741"
       y1="647.48041"
       x2="636.75061"
       y2="258.94376"
       gradientUnits="userSpaceOnUse" />
    <linearGradient
       id="linearGradient120108">
      <stop
         style="stop-color:#fad415;stop-opacity:1"
         offset="0"
         id="stop120104" />
      <stop
         style="stop-color:#cc5502;stop-opacity:1"
         offset="1"
         id="stop120106" />
    </linearGradient>
    <radialGradient
       xlink:href="#linearGradient56968"
       id="radialGradient120110"
       cx="57.65049"
       cy="88.929794"
       fx="57.65049"
       fy="88.929794"
       r="11.357323"
       gradientTransform="matrix(1.9549264,-6.4000177,5.5378602,1.6915723,11.45797,1123.3888)"
       gradientUnits="userSpaceOnUse" />
    <linearGradient
       xlink:href="#linearGradient56968"
       id="linearGradient93222"
       x1="445.36871"
       y1="295.82675"
       x2="683.64679"
       y2="295.82675"
       gradientUnits="userSpaceOnUse" />
    <linearGradient
       id="linearGradient56968">
      <stop
         style="stop-color:#8f541c;stop-opacity:1"
         offset="0"
         id="stop56952" />
      <stop
         style="stop-color:#b09042;stop-opacity:1"
         offset="0.12773934"
         id="stop56954" />
      <stop
         style="stop-color:#d5bf6a;stop-opacity:1"
         offset="0.24002911"
         id="stop56956" />
      <stop
         style="stop-color:#966e2b;stop-opacity:1"
         offset="0.44441992"
         id="stop56958" />
      <stop
         style="stop-color:#c6aa56;stop-opacity:1"
         offset="0.58005458"
         id="stop56960" />
      <stop
         style="stop-color:#d1a546;stop-opacity:1"
         offset="0.7485435"
         id="stop56962" />
      <stop
         style="stop-color:#9f7a34;stop-opacity:1"
         offset="0.87265646"
         id="stop56964" />
      <stop
         style="stop-color:#906230;stop-opacity:1"
         offset="1"
         id="stop56966" />
    </linearGradient>
    <filter
       style="color-interpolation-filters:sRGB"
       id="filter12441-4-7"
       x="-0.0035613894"
       y="-0.0038209286"
       width="1.0123222"
       height="1.0103571">
      <feFlood
         flood-opacity="0.89336279197832147"
         flood-color="rgb(36,9,63)"
         result="flood"
         id="feFlood12431-4-93" />
      <feComposite
         in="flood"
         in2="SourceGraphic"
         operator="in"
         result="composite1"
         id="feComposite12433-4-7" />
      <feGaussianBlur
         stdDeviation="0.01"
         id="feGaussianBlur60980-87" />
      <feOffset
         dx="1"
         dy="0.5"
         result="offset"
         id="feOffset12437-7-41" />
      <feComposite
         in="SourceGraphic"
         in2="offset"
         operator="over"
         result="fbSourceGraphic"
         id="feComposite12439-6-90" />
    </filter>
    <filter
       style="color-interpolation-filters:sRGB"
       id="filter1362"
       x="-0.0035613894"
       y="-0.0038209285"
       width="1.0123222"
       height="1.0103571">
      <feFlood
         flood-opacity="0.89336279197832147"
         flood-color="rgb(36,9,63)"
         result="flood"
         id="feFlood1352" />
      <feComposite
         in="flood"
         in2="SourceGraphic"
         operator="in"
         result="composite1"
         id="feComposite1354" />
      <feGaussianBlur
         stdDeviation="0.01"
         id="feGaussianBlur1356" />
      <feOffset
         dx="1"
         dy="0.5"
         result="offset"
         id="feOffset1358" />
      <feComposite
         in="SourceGraphic"
         in2="offset"
         operator="over"
         result="fbSourceGraphic"
         id="feComposite1360" />
    </filter>
    <filter
       style="color-interpolation-filters:sRGB"
       id="filter1393"
       x="-0.0035613894"
       y="-0.0038209285"
       width="1.0123222"
       height="1.0103571">
      <feFlood
         flood-opacity="0.89336279197832147"
         flood-color="rgb(36,9,63)"
         result="flood"
         id="feFlood1383" />
      <feComposite
         in="flood"
         in2="SourceGraphic"
         operator="in"
         result="composite1"
         id="feComposite1385" />
      <feGaussianBlur
         stdDeviation="0.01"
         id="feGaussianBlur1387" />
      <feOffset
         dx="1"
         dy="0.5"
         result="offset"
         id="feOffset1389" />
      <feComposite
         in="SourceGraphic"
         in2="offset"
         operator="over"
         result="fbSourceGraphic"
         id="feComposite1391" />
    </filter>
    <filter
       style="color-interpolation-filters:sRGB"
       id="filter1424"
       x="-0.0035613894"
       y="-0.0038209285"
       width="1.0123222"
       height="1.0103571">
      <feFlood
         flood-opacity="0.89336279197832147"
         flood-color="rgb(36,9,63)"
         result="flood"
         id="feFlood1414" />
      <feComposite
         in="flood"
         in2="SourceGraphic"
         operator="in"
         result="composite1"
         id="feComposite1416" />
      <feGaussianBlur
         stdDeviation="0.01"
         id="feGaussianBlur1418" />
      <feOffset
         dx="1"
         dy="0.5"
         result="offset"
         id="feOffset1420" />
      <feComposite
         in="SourceGraphic"
         in2="offset"
         operator="over"
         result="fbSourceGraphic"
         id="feComposite1422" />
    </filter>
    <linearGradient
       xlink:href="#linearGradient9447"
       id="linearGradient94152"
       x1="429.6311"
       y1="398.61551"
       x2="378.98492"
       y2="364.66324"
       gradientUnits="userSpaceOnUse"
       gradientTransform="translate(0,6)" />
    <linearGradient
       id="linearGradient9447">
      <stop
         style="stop-color:#ffba26;stop-opacity:1"
         offset="0"
         id="stop9443" />
      <stop
         style="stop-color:#4f3106;stop-opacity:1"
         offset="0.59191859"
         id="stop9547" />
      <stop
         style="stop-color:#c06a00;stop-opacity:1"
         offset="1"
         id="stop9445" />
    </linearGradient>
    <linearGradient
       xlink:href="#linearGradient56968"
       id="linearGradient1823"
       gradientUnits="userSpaceOnUse"
       x1="425.34253"
       y1="878.10895"
       x2="708.51868"
       y2="1013.9222" />
    <linearGradient
       xlink:href="#linearGradient56968"
       id="linearGradient1825"
       gradientUnits="userSpaceOnUse"
       x1="408.53503"
       y1="574.57349"
       x2="833.01624"
       y2="855.05396" />
    <linearGradient
       xlink:href="#linearGradient56968"
       id="linearGradient1827"
       gradientUnits="userSpaceOnUse"
       x1="724.29858"
       y1="663.30322"
       x2="1026.4866"
       y2="625.76245" />
  </defs>
  <g
     id="g8"
     style="fill:#ffcc00">
    <path
       style="fill:#ffcc00;fill-opacity:1"
       d="m 395,707.22478 c -9.50709,-1.27869 -13.36204,-5.22126 -17.88887,-18.2955 -10.06246,-29.06209 -23.2772,-41.78606 -38.21191,-36.79278 -7.70852,2.57727 -20.4878,12.34886 -33.89922,25.92083 -7.425,7.51388 -15.03611,14.44946 -16.91357,15.4124 -4.62196,2.37058 -12.77508,1.68663 -17.36214,-1.45648 -7.87145,-5.3936 -10.70942,-14.80383 -6.97077,-23.11386 1.09573,-2.43553 6.39124,-9.05783 11.86287,-14.8351 17.98094,-18.98535 36.12429,-32.30947 51.48935,-37.81277 10.38968,-3.72126 25.01315,-3.70817 35.70216,0.0319 22.62958,7.91817 39.27358,27.96754 50.13833,60.39664 3.60814,10.76959 3.77136,14.20609 0.9514,20.03135 -3.44003,7.10616 -11.38148,11.52422 -18.89763,10.51332 z m 73.74118,-23.6011 c -4.45776,-1.65329 -11.28439,-6.801 -22.2881,-16.80664 -29.76323,-27.06361 -45.34474,-55.16746 -48.411,-87.31733 -1.69664,-17.78936 1.8036,-38.22483 9.05458,-52.86334 5.24692,-10.59264 9.82695,-13.95609 19.01563,-13.96454 9.16659,-0.008 15.49622,5.09684 18.02046,14.53471 1.00805,3.76899 0.94207,5.20657 -0.40827,8.89452 -8.17968,22.33991 -8.06783,21.87866 -8.09877,33.39894 -0.0349,12.99517 1.62835,20.24976 7.43484,32.42838 7.43393,15.59201 19.36175,29.80674 37.04227,44.14434 10.5918,8.58918 13.25029,12.59514 13.26977,19.99563 0.033,12.53746 -13.0395,21.85451 -24.63141,17.55533 z M 200.5,675.10414 c -9.49991,-4.39832 -13.94243,-14.52766 -10.43339,-23.78904 1.59263,-4.2034 4.13859,-6.57805 18.93339,-17.65939 46.89546,-35.12481 88.91067,-71.54049 125.50656,-108.77981 41.76163,-42.49588 66.02173,-75.66796 77.93032,-106.55811 4.35857,-11.30584 6.99753,-25.7145 6.1258,-33.44671 -1.51089,-13.40171 -8.11716,-29.46361 -15.74546,-38.28218 -15.67558,-18.12148 -41.91834,-20.68419 -63.15739,-6.16756 -10.19841,6.97048 -16.40082,15.40909 -26.54444,36.11466 -29.47547,60.16655 -56.2893,92.19694 -112.70669,134.63346 -20.28591,15.25883 -66.38418,48.25085 -70.10904,50.17626 -3.87372,2.00236 -11.19039,2.1446 -15.5974,0.30324 -1.77843,-0.74308 -4.67004,-2.98717 -6.4258,-4.98687 -7.1932,-8.1926 -6.39268,-18.99439 1.94638,-26.26365 C 112.05159,528.8043 127.65826,517.375 144.90433,505 226.00607,446.80504 246.66618,424.60796 277.9968,362.00639 c 11.7264,-23.43047 15.74761,-29.77702 24.93459,-39.35347 12.38389,-12.90889 25.79926,-21.15644 42.78677,-26.30462 7.56168,-2.29162 10.65755,-2.67119 22.28184,-2.73191 16.34846,-0.0854 25.7336,2.08594 39.29883,9.09211 16.31522,8.42648 32.27487,26.35705 40.21298,45.17905 18.73631,44.42549 7.79326,88.05711 -37.02202,147.61245 -32.07071,42.61901 -83.43537,92.88809 -145.98979,142.87593 -21.44806,17.13935 -46.45938,35.70592 -50.21788,37.27806 -4.39769,1.83951 -9.01961,1.65512 -13.78212,-0.54985 z m 343.88077,-38.51696 c -18.67008,-7.64791 -28.98862,-14.154 -41.12378,-25.92956 C 483.05083,591.05024 470.54801,564.21292 463.3513,525 c -2.08229,-11.34582 -2.36328,-37.16 -0.54425,-50 0.66231,-4.675 3.68199,-21.73948 6.71042,-37.92106 7.72844,-41.29477 8.79049,-50.31478 8.19249,-69.57894 -0.57649,-18.57117 -2.45486,-27.24042 -8.75962,-40.42838 -5.53605,-11.57999 -11.06186,-18.97672 -22.25764,-29.79361 -45.78877,-44.23913 -109.81634,-44.17105 -156.52971,0.16644 -15.87938,15.07173 -27.06328,31.30554 -40.68495,59.05555 -5.1296,10.45 -11.57861,22.375 -14.33113,26.5 -15.48678,23.2089 -41.4416,49.05716 -72.58395,72.28592 -15.26947,11.38935 -28.79157,20.49383 -33.12996,22.30652 -13.94815,5.82791 -29.29103,-7.26482 -25.40878,-21.68238 1.56087,-5.79664 4.95797,-9.10579 19.51513,-19.00989 20.43443,-13.90276 38.4552,-28.76919 54.96065,-45.34041 16.67837,-16.74482 26.02532,-29.03479 33.12871,-43.55976 11.12716,-22.75276 14.61473,-29.4117 19.49036,-37.21364 26.61726,-42.5927 62.62456,-70.31743 104.33685,-80.3368 38.80338,-9.32064 79.98841,-1.80666 114.32849,20.8586 37.45525,24.72134 60.16475,59.66617 65.1114,100.19184 2.94086,24.09319 0.98352,45.14326 -8.94842,96.23482 -7.61366,39.16599 -8.43446,55.17734 -3.96086,77.26518 5.53968,27.35154 15.8205,48.54632 29.42102,60.65397 7.35185,6.54487 14.55787,10.76038 27.20338,15.91394 5.83765,2.37908 11.52688,5.13706 12.64273,6.12885 5.20081,4.62259 7.26158,15.40356 4.12937,21.6029 -5.72123,11.32355 -15.52419,13.62787 -31.00226,7.28752 z m -396.88935,-6.45216 c -5.1716,-2.34941 -10.21088,-8.12268 -11.06527,-12.67698 -0.93653,-4.99216 0.0776,-11.30414 2.30911,-14.37146 1.03495,-1.42262 12.05614,-10.23658 24.49154,-19.58658 12.43539,-9.35 28.38406,-21.71181 35.4415,-27.47068 69.05033,-56.34513 122.03629,-116.21997 147.80671,-167.02355 10.08899,-19.88934 14.28786,-23.31551 25.61317,-20.89964 9.70791,2.07085 17.20678,12.42404 15.37523,21.22755 -0.93698,4.50368 -8.30882,19.89355 -15.02736,31.37199 -37.93081,64.80366 -109.59658,137.82434 -196.93605,200.6593 -15.33111,11.02972 -19.89136,12.45762 -28.00858,8.77005 z M 588.40814,589.9222 c -3.99535,-1.15967 -13.92756,-10.29747 -24.6047,-22.63673 C 533.05291,531.74798 523.83933,504.8483 528.03462,462.85595 528.60367,457.16018 531.28032,438.1 533.98274,420.5 545.54592,345.19282 545.07241,332.77904 529.38641,300 506.36806,251.89857 464.88588,217.44838 415.5,205.41941 c -33.51896,-8.16424 -71.32959,-7.15096 -100.96739,2.70581 -24.27152,8.07208 -42.75322,19.92496 -63.605,40.79184 -16.83526,16.84745 -26.10708,28.93481 -42.63584,55.58294 -15.59367,25.14056 -24.25653,36.54336 -38.75495,51.0126 -16.65568,16.62217 -33.51221,29.05733 -42.76684,31.54934 -10.76535,2.8988 -22.68268,-6.79107 -22.74802,-18.49622 -0.042,-7.52625 3.21807,-12.02135 13.84575,-19.09091 16.2783,-10.82838 30.63075,-24.62019 42.56135,-40.89882 2.8523,-3.89179 9.98544,-14.76305 15.85142,-24.15835 19.33182,-30.96295 34.67609,-50.71139 52.06646,-67.0108 31.13337,-29.18026 64.31955,-45.60958 107.19601,-53.06902 14.0033,-2.43622 50.44684,-2.43076 66.45705,0.01 48.78014,7.43644 88.39248,27.48355 121.10781,61.29055 26.13718,27.00935 46.84409,63.60709 53.95538,95.36167 5.22251,23.32046 3.85073,43.2878 -8.55332,124.5 -1.42809,9.35 -2.86554,23.10505 -3.19434,30.56679 -0.7332,16.63933 0.80279,24.75047 7.12302,37.61455 6.0715,12.35781 13.04366,21.78117 26.05907,35.22063 14.46222,14.9334 16.56601,18.98832 14.37208,27.70123 -2.65435,10.54135 -13.56465,16.48187 -24.46156,13.319 z m 9.33941,-73.99154 c -4.36437,-2.30399 -8.59436,-8.19093 -9.37008,-13.04049 -0.30797,-1.92532 0.78521,-10.30357 2.52999,-19.39017 7.33582,-38.20404 9.59323,-62.78814 8.80633,-95.90429 -0.77412,-32.57841 -5.00103,-57.93838 -12.89994,-77.39506 -5.29732,-13.0484 -4.07596,-20.6397 4.42631,-27.51154 7.73903,-6.25496 20.80232,-4.11534 26.38568,4.32168 5.50854,8.32397 12.76031,32.77538 16.30864,54.98921 6.90249,43.21219 5.00875,94.89187 -5.36337,146.36525 -3.91252,19.41651 -5.42367,22.95111 -11.44483,26.76962 -5.61446,3.56058 -13.52605,3.88547 -19.37873,0.79579 z M 125.76404,288.00429 c -12.17838,-3.66697 -17.27252,-16.14713 -11.35638,-27.82207 3.43397,-6.77661 18.71553,-29.60269 29.28144,-43.7377 42.92832,-57.42927 81.86586,-87.53677 136.5477,-105.58217 15.46652,-5.10407 37.07058,-9.86108 54.7632,-12.058344 16.43208,-2.040717 59.64992,-1.700384 74.5,0.586675 50.43231,7.767069 96.95803,28.773079 140,63.208939 20.79458,16.63676 52.59425,50.46684 61.13179,65.03505 6.05847,10.33801 2.13001,22.2243 -8.86332,26.8176 -9.90112,4.13696 -16.75624,1.0308 -26.96375,-12.21768 C 535.82328,191.64001 481.07692,154.45884 426,141.17338 c -23.90041,-5.76517 -41.89359,-7.33584 -68.85253,-6.01033 -62.47829,3.07192 -113.48439,25.47449 -152.61849,67.0321 -16.35054,17.3631 -37.88967,45.44215 -51.75308,67.46685 -8.00998,12.72541 -11.81453,16.6994 -17.49857,18.27787 -4.32655,1.2015 -5.7059,1.21084 -9.51329,0.0644 z M 146.0732,159.32846 c -7.2987,-3.84189 -10.39953,-9.35358 -9.844,-17.4976 0.51538,-7.55518 3.07843,-11.20133 19.23871,-27.36853 20.38771,-20.396449 41.49028,-35.363534 69.61552,-49.375112 41.6867,-20.767692 82.46229,-30.476254 133.55013,-31.797943 81.14408,-2.099271 155.12746,21.60241 216.99763,69.518435 9.61813,7.44886 12.7725,11.38051 13.86627,17.28306 2.00803,10.83647 -7.70841,21.87538 -19.27958,21.90365 -4.06723,0.01 -9.04506,-2.74835 -20.53664,-11.37965 C 506.67952,98.316267 459.91287,79.499503 406,72.804006 c -16.43841,-2.041503 -66.44094,-1.716925 -81.5,0.529036 -40.84724,6.0921 -77.22177,19.543083 -108.34595,40.065388 -16.68626,11.00239 -33.17782,25.13536 -42.73558,36.62361 -7.00656,8.42176 -10.60238,10.86308 -17.09953,11.60942 -4.02124,0.46192 -5.71726,0.0807 -10.24574,-2.303 z"
       id="path863" />
  </g>
</svg>
