<svg xmlns="http://www.w3.org/2000/svg" viewBox="0 0 20 20"><defs><style>.cls-1{fill:#f4f3f3;}.cls-2{fill:#ff1e00;}.cls-3{fill:#0086ff;}</style></defs><title>flag-usa</title><g id="Layer_2" data-name="Layer 2"><g id="Layer_1-2" data-name="Layer 1"><circle class="cls-1" cx="10" cy="10" r="10"/><path class="cls-2" d="M2,16a10,10,0,0,0,2,2H16a10,10,0,0,0,2-2Z"/><path class="cls-2" d="M0,10H20a10,10,0,0,0-.2-2H.2A10,10,0,0,0,0,10Z"/><path class="cls-2" d="M2,4A10,10,0,0,0,.84,6H19.16A10,10,0,0,0,18,4Z"/><path class="cls-2" d="M.2,12a9.91,9.91,0,0,0,.64,2H19.16a9.91,9.91,0,0,0,.64-2Z"/><path class="cls-2" d="M4,2H16A9.95,9.95,0,0,0,4,2Z"/><path class="cls-3" d="M10,0A10,10,0,0,0,0,10H10Z"/><path class="cls-1" d="M8.5,8a.5.5,0,1,0,.5.5A.5.5,0,0,0,8.5,8Z"/><path class="cls-1" d="M6.5,8a.5.5,0,1,0,.5.5A.5.5,0,0,0,6.5,8Z"/><path class="cls-1" d="M4.5,8a.5.5,0,1,0,.5.5A.5.5,0,0,0,4.5,8Z"/><path class="cls-1" d="M8.5,4a.5.5,0,1,0,.5.5A.5.5,0,0,0,8.5,4Z"/><path class="cls-1" d="M6.5,4a.5.5,0,1,0,.5.5A.5.5,0,0,0,6.5,4Z"/><path class="cls-1" d="M4.5,4a.5.5,0,1,0,.5.5A.5.5,0,0,0,4.5,4Z"/><path class="cls-1" d="M7.5,2a.5.5,0,1,0,.5.5A.5.5,0,0,0,7.5,2Z"/><path class="cls-1" d="M5.5,2a.5.5,0,1,0,.5.5A.5.5,0,0,0,5.5,2Z"/><path class="cls-1" d="M2.5,8a.5.5,0,1,0,.5.5A.5.5,0,0,0,2.5,8Z"/><path class="cls-1" d="M7.5,6a.5.5,0,1,0,.5.5A.5.5,0,0,0,7.5,6Z"/><path class="cls-1" d="M5.5,6a.5.5,0,1,0,.5.5A.5.5,0,0,0,5.5,6Z"/><path class="cls-1" d="M3.5,6a.5.5,0,1,0,.5.5A.5.5,0,0,0,3.5,6Z"/></g></g></svg>