<svg xmlns="http://www.w3.org/2000/svg" viewBox="0 0 26 19"><path fill="#ff4e7c" fill-rule="evenodd" d="M3 0h21a2 2 0 012 2v14l-3 3H3l-3-3V3z"/><path fill="#ff295b" fill-rule="evenodd" d="M.02 17.168L0 3.029V3h13s-2.97 11.879 4.92 15.96c1.81 0-12.34.031-15.94.038a1.981 1.981 0 01-1.96-1.83z"/><path fill="#ff7d63" fill-rule="evenodd" d="M0 2a2 2 0 012-2h11v11H0V2z"/><path fill="#f55" fill-rule="evenodd" d="M6.66 10.708c-3.38.215-6.45.228-6.66.244V2.268a16.722 16.722 0 006.66 4.547v3.893z"/><path fill="#e02196" fill-rule="evenodd" d="M26 2.387l-.02 13.782L23 19H2a1.957 1.957 0 01-1.14-.363c9.17-3.779 14.64-8.476 15.62-9.5A21.753 21.753 0 0026 2.375v.011z"/><path fill="#c10da1" fill-rule="evenodd" d="M.85 18.635c8.97-3.728 11.43-7.677 12.4-8.7V19H2a2.006 2.006 0 01-1.15-.365z"/><path fill="#a608b0" fill-rule="evenodd" d="M24 19H13v-9h13v7a2 2 0 01-2 2z"/><path fill="#fff" fill-rule="evenodd" d="M26 11H15.25a21.07 21.07 0 005.45 4.226l-1.04 1.908A21.561 21.561 0 0114 12.792V19h-2v-6.225a13.618 13.618 0 01-5.69 4.431l-.94-1.967A11.983 11.983 0 0010.57 11H0V9h5.85a3.747 3.747 0 01-.86-2.489 3.529 3.529 0 013.77-3.51A4.376 4.376 0 0112 4.392V0h2v4.219a4.555 4.555 0 013.03-1.216A3.68 3.68 0 0121 6.618 3.765 3.765 0 0120.22 9H26v2zM8.76 5a1.574 1.574 0 00-1.8 1.509c0 1.4 1.31 2.459 4.8 2.483a.777.777 0 01.08-.175l.01.006C11.76 8.057 11.22 5 8.76 5zm8.27 0c-2.85 0-2.97 3.994-2.97 3.994 3.61 0 4.95-.832 4.95-2.379A1.7 1.7 0 0017.03 5z"/></svg>