<?xml version="1.0" encoding="UTF-8" standalone="no"?>
<!-- Created with Inkscape (http://www.inkscape.org/) -->

<svg
   version="1.1"
   id="svg2"
   width="233.97488"
   height="212.61919"
   viewBox="0 0 233.97488 212.61919"
   xmlns:xlink="http://www.w3.org/1999/xlink"
   xmlns="http://www.w3.org/2000/svg"
   xmlns:svg="http://www.w3.org/2000/svg">
  <defs
     id="defs6">
    <linearGradient
       id="linearGradient1151">
      <stop
         style="stop-color:#6e00b4;stop-opacity:1"
         offset="0"
         id="stop1147" />
      <stop
         style="stop-color:#c24f9b;stop-opacity:1;"
         offset="0.39062762"
         id="stop1216" />
      <stop
         style="stop-color:#ffcc00;stop-opacity:1"
         offset="1"
         id="stop1149" />
    </linearGradient>
    <linearGradient
       id="linearGradient56968">
      <stop
         style="stop-color:#8f541c;stop-opacity:1"
         offset="0"
         id="stop56952" />
      <stop
         style="stop-color:#b09042;stop-opacity:1"
         offset="0.12773934"
         id="stop56954" />
      <stop
         style="stop-color:#d5bf6a;stop-opacity:1"
         offset="0.24002911"
         id="stop56956" />
      <stop
         style="stop-color:#966e2b;stop-opacity:1"
         offset="0.44441992"
         id="stop56958" />
      <stop
         style="stop-color:#c6aa56;stop-opacity:1"
         offset="0.58005458"
         id="stop56960" />
      <stop
         style="stop-color:#d1a546;stop-opacity:1"
         offset="0.7485435"
         id="stop56962" />
      <stop
         style="stop-color:#9f7a34;stop-opacity:1"
         offset="0.87265646"
         id="stop56964" />
      <stop
         style="stop-color:#906230;stop-opacity:1"
         offset="1"
         id="stop56966" />
    </linearGradient>
    <linearGradient
       xlink:href="#linearGradient56968"
       id="linearGradient2056"
       x1="-2.0488241"
       y1="112.88336"
       x2="226.92369"
       y2="112.88336"
       gradientUnits="userSpaceOnUse" />
    <linearGradient
       xlink:href="#linearGradient1151"
       id="linearGradient1153"
       x1="80.17234"
       y1="160.25459"
       x2="116.74177"
       y2="52.821426"
       gradientUnits="userSpaceOnUse"
       gradientTransform="matrix(1.0907127,0,0,1.0907127,-10.612251,-4.2321995)" />
  </defs>
  <g
     id="g8"
     transform="translate(4.5499694,-6.7255039)">
    <path
       style="fill:none;stroke:#ffcc00;stroke-width:12;stroke-linecap:butt;stroke-linejoin:miter;stroke-miterlimit:4;stroke-dasharray:none;stroke-opacity:1"
       d="M 112.10199,212.6163 C 62.324323,186.49635 -3.3405841,128.41301 1.7294398,67.978656 3.9842064,41.101986 29.333996,13.567458 60.846018,12.732075 c 32.886405,-0.49322 52.013312,27.157318 52.013312,27.157318 0,0 10.67404,-26.706276 48.30293,-26.914367 37.62889,-0.208092 58.42937,24.365373 61.64435,50.796085 7.46628,61.381049 -54.38385,121.197299 -110.70462,148.845189 z"
       id="path860" />
  </g>
  <path
     style="fill:url(#linearGradient1153);fill-opacity:1;stroke-width:0.435455"
     d="M 107.71855,176.45671 C 91.525205,174.38823 79.361657,159.59862 76.527094,144.12435 74.102105,133.58823 76.478419,122.21942 71.4607,112.26963 68.355515,103.75741 64.784412,95.204593 63.766807,86.138071 c -1.170514,-7.289396 9.816724,-8.200025 11.530027,-1.621174 4.682767,8.632598 5.51165,18.959293 10.739631,27.301783 5.724689,3.96256 2.259837,-6.81771 1.650404,-9.40022 -2.766137,-13.603325 -5.17868,-27.396024 -5.59192,-41.292943 -1.061476,-6.985034 9.406564,-9.471021 11.474325,-2.722423 1.829431,9.179594 2.34007,18.626544 4.537597,27.767894 1.360417,5.800379 1.74425,11.822801 3.609569,17.498412 6.10997,4.59613 4.93037,-7.144156 4.29919,-10.807312 -0.89258,-13.883277 -1.89892,-27.866844 -0.90407,-41.75662 1.36276,-7.581058 12.00128,-4.575187 11.60793,2.275334 1.56387,12.518363 1.74368,25.167582 3.37638,37.686567 -0.4125,4.39067 1.10207,16.376321 6.96656,9.767061 2.43065,-11.726267 0.93571,-23.949744 3.36323,-35.683352 0.15891,-7.177511 11.43989,-7.584491 11.23968,-0.111259 1.04051,15.738678 -1.25827,31.448259 -0.68444,47.198591 0.27917,10.89822 0.1059,22.45182 -5.81211,32.04057 -4.95291,8.43597 -14.81058,14.23614 -24.73515,12.56434 -10.760316,-0.70201 -18.963737,-13.33218 -14.084581,-23.28797 3.500459,-9.28935 17.267291,-13.96259 24.504391,-6.1266 6.03724,4.8909 2.50495,15.60483 -4.99864,16.5129 -6.86299,4.09888 -11.95061,-8.81466 -3.55618,-7.38983 5.05909,5.28911 8.52859,-5.23406 2.25928,-6.63347 -6.17024,-1.45366 -13.63668,2.9241 -13.12574,9.82654 0.27397,9.38841 12.2748,13.23891 19.72148,9.45899 9.50287,-4.02042 12.24422,-17.60433 5.31925,-25.16361 -5.34807,-6.48832 -14.88452,-9.13703 -22.60007,-5.45161 -10.691629,3.67169 -17.665898,15.69535 -14.914908,26.78231 3.010385,12.4115 16.862938,19.38775 28.935928,17.99812 11.49385,-1.17143 21.393,-9.51958 25.6287,-20.11519 4.02293,-9.36114 6.19531,-19.46847 6.96041,-29.60822 0.99286,-8.9682 6.72043,-18.86391 16.28833,-20.356464 7.84455,1.805506 0.21853,10.851144 -0.30528,15.742604 -4.486,14.23874 -7.37382,28.97998 -12.62614,42.97219 -4.37523,11.7134 -15.37462,19.92724 -27.36796,22.62051 -6.02829,1.49452 -12.55359,2.79416 -18.75336,1.83218 z"
     id="path881" />
</svg>
