<svg xmlns="http://www.w3.org/2000/svg" width="174.699" height="174.699">
<style>path{color:#da0}</style>
<path d="M169.874 200.058c-6.86-4.623-9.149-14.124-5.069-21.039l1.974-3.346-3.76-5.206c-2.068-2.863-4.137-5.851-4.598-6.64-.717-1.225-1.261-1.12-3.75.72-1.603 1.185-3.708 2.154-4.68 2.154-2.156 0-11.906-7.633-20.547-16.085l-6.396-6.257-5.86 5.158c-3.968 3.494-5.667 5.627-5.264 6.611 1.701 4.15 2.281 7.504 1.745 10.093-2.113 10.206-12.902 15.768-22.11 11.398-8.802-4.177-11.605-16.133-5.486-23.404 4.28-5.087 11.292-7.278 17.245-5.39 1.363.433 3.467-.874 7.976-4.958l6.124-5.546-3.5-4.874c-4.584-6.38-6.115-10.212-6.919-17.314l-.661-5.845-7.33-1.15c-4.03-.632-8.195-1.351-9.254-1.598-1.4-.327-2.416.379-3.717 2.58-3.858 6.532-15.117 8.48-21.741 3.764-3.404-2.424-6.642-8.602-6.675-12.734-.052-6.56 5.498-13.442 11.979-14.855 7.653-1.669 13.88 1.302 17.478 8.34 1.165 2.278 2.253 4.277 2.418 4.442.423.423 19.218 3.409 19.434 3.087.097-.145 1.15-1.883 2.342-3.863 1.19-1.98 2.453-3.615 2.806-3.632.353-.018 1.615-.844 2.804-1.836l2.162-1.803-1.829-4.267c-1.663-3.88-2.204-4.327-5.97-4.93-7.987-1.276-13.325-7.467-13.325-15.452 0-11.403 11.007-18.705 21.32-14.143 6.283 2.78 8.92 6.982 8.92 14.217 0 4.89-.429 6.397-2.646 9.304l-2.646 3.47 1.812 4.616c1.766 4.495 1.942 4.634 6.758 5.332 5.178.75 11.055 3.34 15.922 7.016l2.88 2.175 3.22-2.707 3.22-2.707-1.579-14.727c-1.97-18.372-2.116-19.045-4.16-19.05-.913-.002-3.069-.862-4.79-1.911-9.436-5.753-9.395-19.297.08-26.317 3.783-2.803 12.862-2.82 16.6-.029 4.334 3.236 6.37 6.714 6.849 11.7.535 5.564-1.996 11.449-6.07 14.119-2.878 1.885-2.855.17-.308 23.082l1.067 9.6 6.376.035c4.586.026 7.46.607 10.24 2.07l3.863 2.034 8.082-6.404 8.08-6.404-.244-5.276c-.283-6.12 2.008-10.412 7.577-14.198 2.746-1.866 4.237-2.196 8.417-1.86 5.646.453 9.09 2.51 12.44 7.433 4.45 6.539 1.618 17.48-5.505 21.27-4.148 2.207-12.2 2.36-15.16.286-2.04-1.428-2.486-1.216-10.293 4.88-4.49 3.505-8.162 6.5-8.162 6.656 0 .156.648 1.834 1.44 3.73 1.856 4.443 1.847 14.593-.019 19.88-.802 2.274-1.126 4.43-.72 4.79.407.36 4.053 2.865 8.104 5.566l7.366 4.91 4.503-1.992c10.668-4.72 21.566 2.372 21.566 14.034 0 11.403-11.007 18.705-21.32 14.143-6.1-2.7-8.88-6.987-9.078-14.003l-.158-5.62-7.786-5.213-7.786-5.213-11.016 11.233c-6.059 6.178-11.016 11.384-11.016 11.568 0 .184 2.156 3.298 4.79 6.92l4.79 6.585 5.33.442c6.46.536 9.745 2.724 12.752 8.494 3.878 7.442 1.801 14.845-5.572 19.864-4.378 2.98-11.952 2.978-16.376-.003zm12.877-7.507c5.729-4.507 1.474-14.329-5.616-12.962-6.11 1.177-8.287 8.207-3.899 12.595 2.88 2.88 6.16 3.006 9.515.367zm-81.06-22.455c3.024-1.563 3.909-3.204 3.909-7.244 0-3.263-3.857-6.711-7.508-6.711-7.83 0-9.533 11.943-2.092 14.679 2.273.836 2.807.768 5.691-.724zm120.96-14.565c1.094-1.39 1.989-3.493 1.989-4.67 0-3.63-3.552-7.2-7.163-7.2-4.668 0-7.621 2.79-7.621 7.2 0 6.836 8.616 9.982 12.794 4.67zm-62.767-5.936c22.064-19.232 29.24-32.874 23.306-44.312-5.569-10.735-18.056-10.57-28.578.376-1.82 1.893-3.855 3.442-4.523 3.442-.668 0-2.873-1.676-4.9-3.723-7.707-7.784-16.868-10.13-23.515-6.022-4.44 2.745-6.48 7.233-6.453 14.21.025 6.574 1.937 11.28 7.353 18.095 7.001 8.81 24.97 25.44 27.487 25.44.667 0 5.087-3.378 9.823-7.506zm-83.153-41.899c3.024-1.563 3.909-3.204 3.909-7.244 0-3.263-3.857-6.711-7.508-6.711-7.296 0-9.524 11.663-2.75 14.393 2.916 1.175 3.28 1.15 6.35-.438zm142.586-26.072c1.75-.671 4.363-5.217 4.363-7.59 0-2.262-5.257-7.173-7.68-7.173-2.907 0-7.68 5.052-7.68 8.13 0 4.902 6.03 8.54 10.997 6.633zm-101.151-9.84c1.605-1.3 2.218-2.792 2.218-5.403 0-4.41-2.953-7.2-7.62-7.2-3.612 0-7.164 3.57-7.164 7.2 0 1.177.895 3.28 1.99 4.67 2.42 3.078 7.265 3.414 10.576.733zm41.17-22.179c4.179-4.18 2.96-10.476-2.426-12.523-4.473-1.7-10.03 2.441-10.03 7.476 0 5.61 8.463 9.04 12.456 5.047z" style="fill:currentColor;stroke-width:.96" transform="translate(-57.62 -28.216)"/></svg>
