<?xml version="1.0" encoding="UTF-8" standalone="no"?>
<svg
   id="Layer_1"
   height="400"
   viewBox="-97 220.9 400 400"
   width="400"
   version="1.1"
   xmlns="http://www.w3.org/2000/svg"
   xmlns:svg="http://www.w3.org/2000/svg">
  <defs
     id="defs9" />
  <style
     id="style2">.st0{fill:#666666;}</style>
  <path
     class="st0"
     d="M103 620.9c-53.4 0-103.6-20.8-141.4-58.6S-97 474.3-97 420.9s20.8-103.6 58.6-141.4 88-58.6 141.4-58.6 103.6 20.8 141.4 58.6c37.8 37.8 58.6 88 58.6 141.4s-20.8 103.6-58.6 141.4-88 58.6-141.4 58.6zm0-350c-40.1 0-77.7 15.6-106.1 43.9-28.3 28.3-43.9 66-43.9 106.1S-31.4 498.6-3.1 527c28.3 28.3 66 43.9 106.1 43.9s77.7-15.6 106.1-43.9c28.3-28.3 43.9-66 43.9-106.1s-15.6-77.7-43.9-106.1c-28.4-28.3-66-43.9-106.1-43.9zm88.5 80c-11.2-11.2-26.1-17.4-41.9-17.4-15.9 0-30.7 6.2-42 17.4-1.7 1.7-3.2 3.4-4.7 5.3-1.4-1.8-3-3.6-4.7-5.3-11.2-11.2-26.1-17.4-42-17.4s-30.7 6.2-42 17.4c-23.1 23.1-23.1 60.8 0 83.9l79.6 80.4c2.3 2.4 5.5 3.7 8.9 3.7 3.3 0 6.5-1.3 8.9-3.7l79.8-80.4c23.2-23.1 23.2-60.8.1-83.9z"
     id="path4"
     style="fill:#ffcc00" />
</svg>
