<?xml version="1.0" encoding="UTF-8" standalone="no"?>
<!-- Created with Inkscape (http://www.inkscape.org/) -->

<svg
   version="1.0"
   width="901.75226"
   height="899.84332"
   id="svg2"
   xml:space="preserve"
   xmlns="http://www.w3.org/2000/svg"
   xmlns:svg="http://www.w3.org/2000/svg"><defs
     id="defs10"><clipPath
       clipPathUnits="userSpaceOnUse"
       id="clipPath1001"><circle
         style="opacity:0.6;fill:#b3b3b3;stroke-width:0.812823"
         id="circle1003"
         cx="675"
         cy="450"
         r="449.44489" /></clipPath><clipPath
       clipPathUnits="userSpaceOnUse"
       id="clipPath1005"><circle
         style="opacity:0.6;fill:#b3b3b3;stroke-width:0.812823"
         id="circle1007"
         cx="675"
         cy="450"
         r="449.44489" /></clipPath><clipPath
       clipPathUnits="userSpaceOnUse"
       id="clipPath1009"><circle
         style="opacity:0.6;fill:#b3b3b3;stroke-width:0.812823"
         id="circle1011"
         cx="675"
         cy="450"
         r="449.44489" /></clipPath><clipPath
       clipPathUnits="userSpaceOnUse"
       id="clipPath1013"><circle
         style="opacity:0.6;fill:#b3b3b3;stroke-width:0.812823"
         id="circle1015"
         cx="675"
         cy="450"
         r="449.44489" /></clipPath><clipPath
       clipPathUnits="userSpaceOnUse"
       id="clipPath1017"><circle
         style="opacity:0.6;fill:#b3b3b3;stroke-width:0.812823"
         id="circle1019"
         cx="675"
         cy="450"
         r="449.44489" /></clipPath><clipPath
       clipPathUnits="userSpaceOnUse"
       id="clipPath1021"><circle
         style="opacity:0.6;fill:#b3b3b3;stroke-width:0.812823"
         id="circle1023"
         cx="675"
         cy="450"
         r="449.44489" /></clipPath><clipPath
       clipPathUnits="userSpaceOnUse"
       id="clipPath1025"><circle
         style="opacity:0.6;fill:#b3b3b3;stroke-width:0.812823"
         id="circle1027"
         cx="675"
         cy="450"
         r="449.44489" /></clipPath><clipPath
       clipPathUnits="userSpaceOnUse"
       id="clipPath1029"><circle
         style="opacity:0.6;fill:#b3b3b3;stroke-width:0.812823"
         id="circle1031"
         cx="675"
         cy="450"
         r="449.44489" /></clipPath></defs><rect
     width="1350"
     height="900"
     x="0"
     y="0"
     style="fill:#ffffff"
     id="rect4117"
     clip-path="url(#clipPath1029)"
     transform="translate(-224.12384,-0.55511474)" /><path
     d="M 809.99952,449.99983 C 809.99952,524.55892 749.55908,585 675,585 600.44091,585 540.00047,524.55892 540.00047,449.99983 c 0,-74.55749 60.44044,-134.99984 134.99953,-134.99984 74.55908,0 134.99952,60.44235 134.99952,134.99984 z"
     style="fill:#000066"
     id="path2128"
     clip-path="url(#clipPath1025)"
     transform="translate(-224.12384,-0.55511474)" /><path
     d="m 675,449.99983 -4.11513,47.38965 3.5968,71.5293 c -2.50828,-0.01 -5.01465,-0.098 -7.51814,-0.27046 0.54123,-4.11672 -2.35555,-7.89297 -6.47418,-8.43389 -4.11672,-0.54156 -7.89233,2.35523 -8.43579,6.47194 -2.46087,-0.48428 -4.90583,-1.04493 -7.33201,-1.68385 l 21.98742,-68.16096 z m 0,0 -16.24032,44.71115 -15.04011,70.02426 c -2.42013,-0.66056 -4.81832,-1.39939 -7.19136,-2.20759 1.58966,-3.83862 -0.23133,-8.23661 -4.06899,-9.82691 -3.83703,-1.58904 -8.23503,0.23609 -9.82469,4.06835 -2.25086,-1.10348 -4.46768,-2.27823 -6.64567,-3.52298 l 38.87906,-60.14771 z m 0,0 -27.25821,38.98058 -32.65118,63.74578 c -2.16591,-1.2613 -4.29268,-2.59387 -6.37553,-3.99326 2.52768,-3.2907 1.90721,-8.01197 -1.3873,-10.54093 -3.29389,-2.52642 -8.01548,-1.90467 -10.54285,1.38666 -1.88971,-1.6463 -3.72502,-3.35497 -5.50783,-5.12282 l 53.12308,-48.03493 z m 0,0 -36.42012,30.60014 -48.03525,53.12085 c -1.7669,-1.77931 -3.47493,-3.6178 -5.12601,-5.50656 3.29611,-2.53086 3.91658,-7.24769 1.38889,-10.54284 -2.528,-3.29388 -7.24768,-3.91626 -10.54156,-1.38794 -1.39939,-2.08158 -2.73006,-4.20771 -3.99422,-6.37394 l 63.74579,-32.6499 z m 0,0 -43.09793,20.12985 -60.14867,38.87939 c -1.24411,-2.17577 -2.42013,-4.391 -3.52425,-6.6444 3.83544,-1.58903 5.65834,-5.98639 4.06931,-9.82629 -1.58935,-3.83479 -5.98925,-5.65674 -9.82437,-4.06707 -0.81202,-2.37305 -1.54831,-4.77028 -2.20759,-7.18978 l 70.02363,-15.03947 z m 0,0 -46.84014,8.29007 -68.16255,21.9868 c -0.63828,-2.4265 -1.19893,-4.87019 -1.68385,-7.33042 4.11672,-0.54537 7.01509,-4.32099 6.47354,-8.43771 -0.54251,-4.11671 -4.31909,-7.01286 -8.43517,-6.47194 -0.17086,-2.50351 -0.26028,-5.00956 -0.27078,-7.51815 l 71.52834,3.59362 z m 0,0 -47.39061,-4.11544 -71.52834,3.5968 c 0.0105,-2.50859 0.0999,-5.01497 0.27078,-7.51846 4.11608,0.54123 7.89266,-2.35491 8.43517,-6.47386 0.54155,-4.11672 -2.35682,-7.89201 -6.47354,-8.43548 0.48492,-2.46086 1.04557,-4.90646 1.68385,-7.332 l 68.16255,21.98678 z m 0,0 -44.70987,-16.24095 -70.02363,-15.03979 c 0.65928,-2.42013 1.39557,-4.818 2.20759,-7.19104 3.83512,1.58934 8.23502,-0.23355 9.82437,-4.06931 1.58903,-3.83703 -0.23387,-8.23503 -4.06931,-9.82437 1.10412,-2.2515 2.28014,-4.468 3.52425,-6.646 l 60.14867,38.87875 z m 0,0 -38.98248,-27.25852 -63.74579,-32.6515 c 1.26416,-2.16686 2.59483,-4.29204 3.99422,-6.37521 3.29388,2.52768 8.01356,1.90753 10.54156,-1.38698 2.52769,-3.29389 1.90722,-8.0158 -1.38889,-10.54348 1.65108,-1.8894 3.35911,-3.72662 5.12601,-5.5072 l 48.03525,53.12276 z m 0,0 -30.59982,-36.42043 -53.12308,-48.03525 c 1.78281,-1.7669 3.61812,-3.47525 5.50783,-5.12569 2.52737,3.29611 7.24896,3.91626 10.54285,1.38889 3.29451,-2.528 3.91498,-7.248 1.3873,-10.54188 2.08285,-1.39939 4.20962,-2.72974 6.37553,-3.99422 l 32.65118,63.74388 z m 0,0 -20.13208,-43.09792 -38.87906,-60.14899 c 2.17799,-1.24443 4.39481,-2.42045 6.64567,-3.52393 1.58966,3.83512 5.98766,5.6577 9.82469,4.06931 3.83766,-1.58967 5.65865,-5.98925 4.06899,-9.82469 2.37304,-0.81202 4.77123,-1.54862 7.19136,-2.20791 l 15.04011,70.02427 z m 0,0 -8.29103,-46.84013 -21.98742,-68.16255 c 2.42618,-0.63828 4.87114,-1.19893 7.33201,-1.68385 0.54346,4.1164 4.31907,7.01445 8.43579,6.47322 4.11863,-0.54251 7.01541,-4.31877 6.47418,-8.43549 2.50349,-0.17086 5.00986,-0.25996 7.51814,-0.27046 l -3.5968,71.52834 z m 0,0 4.1129,-47.39092 -3.59426,-71.52834 c 2.5086,0.0105 5.01528,0.0996 7.51815,0.27046 -0.54092,4.11672 2.35523,7.89298 6.47194,8.43549 4.11672,0.54123 7.89361,-2.35682 8.43771,-6.47322 2.46087,0.48492 4.90455,1.04557 7.33106,1.68385 l -21.98743,68.16255 z m 0,0 16.24286,-44.70986 15.03883,-70.02427 c 2.4195,0.65929 4.81737,1.39589 7.19042,2.20791 -1.59031,3.83544 0.23164,8.23502 4.06644,9.82469 3.83989,1.58839 8.23852,-0.23419 9.82628,-4.06931 2.25404,1.10348 4.46927,2.2795 6.6444,3.52393 l -38.87812,60.14899 z m 0,0 27.2598,-38.9847 32.6499,-63.74388 c 2.16623,1.26448 4.29236,2.59483 6.37394,3.99422 -2.52832,3.29388 -1.90594,8.01388 1.38922,10.54188 3.29388,2.52737 8.01515,1.90722 10.5422,-1.38889 1.88812,1.65044 3.72661,3.35879 5.50592,5.12569 l -53.12085,48.03525 z m 0,0 36.42171,-30.60013 48.03429,-53.12276 c 1.76849,1.78058 3.47652,3.6178 5.12283,5.5072 -3.29134,2.52768 -3.91308,7.24959 -1.38603,10.54348 2.52832,3.29451 7.2496,3.91466 10.54029,1.38698 1.39939,2.08317 2.73196,4.20835 3.99326,6.37521 l -63.74514,32.6515 z m 0,0 43.09856,-20.13271 60.14771,-38.87874 c 1.24475,2.17799 2.4195,4.39449 3.52362,6.64599 -3.83226,1.58934 -5.65739,5.98734 -4.06772,9.82437 1.58903,3.83576 5.98575,5.65865 9.82565,4.06931 0.80883,2.37304 1.54703,4.77091 2.20822,7.19104 l -70.0249,15.03979 z m 0,0 46.84299,-8.29166 68.15969,-21.98678 c 0.63956,2.42554 1.19957,4.87114 1.68385,7.332 -4.11671,0.54347 -7.0135,4.31876 -6.47194,8.43548 0.54156,4.11895 4.31781,7.01509 8.43453,6.47386 0.17182,2.50349 0.26028,5.00987 0.26982,7.51846 l -71.5293,-3.5968 z m 0,0 47.38964,4.11227 71.5293,-3.59362 c -0.01,2.50859 -0.098,5.01464 -0.26982,7.51815 -4.11672,-0.54092 -7.89297,2.35523 -8.43453,6.47194 -0.54156,4.11672 2.35523,7.89234 6.47194,8.43771 -0.48428,2.46023 -1.04429,4.90392 -1.68385,7.33042 l -68.15969,-21.9868 z m 0,0 44.71114,16.24223 70.0249,15.03947 c -0.66119,2.4195 -1.39939,4.81673 -2.20822,7.18978 -3.8399,-1.58967 -8.23662,0.23228 -9.82565,4.06707 -1.58967,3.8399 0.23546,8.23726 4.06772,9.82629 -1.10412,2.2534 -2.27887,4.46863 -3.52362,6.6444 l -60.14771,-38.87939 z m 0,0 38.98121,27.25981 63.74514,32.6499 c -1.2613,2.16623 -2.59387,4.29236 -3.99326,6.37394 -3.29069,-2.52832 -8.01197,-1.90594 -10.54029,1.38794 -2.52705,3.29515 -1.90531,8.01198 1.38603,10.54284 -1.64631,1.88876 -3.35434,3.72725 -5.12283,5.50656 l -48.03429,-53.12085 z m 0,0 30.60013,36.42108 53.12085,48.03493 c -1.77931,1.76785 -3.6178,3.47652 -5.50592,5.12282 -2.52705,-3.29133 -7.24832,-3.91308 -10.5422,-1.38666 -3.29516,2.52896 -3.91754,7.25023 -1.38922,10.54093 -2.08158,1.39939 -4.20771,2.73196 -6.37394,3.99326 l -32.6499,-63.74578 z m 0,0 20.13111,43.09857 38.87812,60.14771 c -2.17513,1.24475 -4.39036,2.4195 -6.6444,3.52298 -1.58776,-3.83226 -5.98639,-5.65739 -9.82628,-4.06835 -3.8348,1.5903 -5.65675,5.98829 -4.06644,9.82691 -2.37305,0.8082 -4.77092,1.54703 -7.19042,2.20759 l -15.03883,-70.02426 z m 0,0 8.29007,46.84173 21.98743,68.16096 c -2.42651,0.63892 -4.87019,1.19957 -7.33106,1.68385 -0.5441,-4.11671 -4.32099,-7.0135 -8.43771,-6.47194 -4.11671,0.54092 -7.01286,4.31717 -6.47194,8.43389 -2.50287,0.17245 -5.00955,0.26091 -7.51815,0.27046 l 3.59426,-71.5293 z"
     style="fill:#ffffff"
     id="path6"
     clip-path="url(#clipPath1021)"
     transform="translate(-224.12384,-0.55511474)" /><path
     d="m 699.27202,449.99983 c 0,13.40144 -10.87058,24.27202 -24.27202,24.27202 -13.40335,0 -24.26979,-10.87058 -24.26979,-24.27202 0,-13.40335 10.86644,-24.2701 24.26979,-24.2701 13.40144,0 24.27202,10.86675 24.27202,24.2701 z"
     style="fill:#000066"
     id="path2132"
     clip-path="url(#clipPath1017)"
     transform="translate(-224.12384,-0.55511474)" /><rect
     width="1350"
     height="300"
     x="0"
     y="0"
     style="fill:#ff9933"
     id="rect2172"
     clip-path="url(#clipPath1013)"
     transform="translate(-224.12384,-0.55511474)" /><rect
     width="1350"
     height="300"
     x="0"
     y="600"
     style="fill:#138808"
     id="rect3146"
     clip-path="url(#clipPath1009)"
     transform="matrix(1.0031845,0,0,1.0031845,-226.2734,-2.4658334)" /><text
     xml:space="preserve"
     style="font-style:normal;font-weight:normal;font-size:187.53px;line-height:1.25;font-family:sans-serif;fill:#000000;fill-opacity:1;stroke:none;stroke-width:4.68826"
     x="237.76871"
     y="1009.0694"
     id="text23946"
     transform="scale(0.88608163,1.1285642)"><tspan
       id="tspan23944"
       x="237.76871"
       y="1009.0694"
       style="font-style:normal;font-variant:normal;font-weight:normal;font-stretch:normal;font-size:187.53px;font-family:Anton;-inkscape-font-specification:'Anton, Normal';font-variant-ligatures:normal;font-variant-caps:normal;font-variant-numeric:normal;font-variant-east-asian:normal;stroke-width:4.68826">English</tspan></text><text
     xml:space="preserve"
     style="font-style:normal;font-weight:normal;font-size:155.638px;line-height:1.25;font-family:sans-serif;fill:#000000;fill-opacity:1;stroke:none;stroke-width:3.89094"
     x="563.09656"
     y="227.37305"
     id="text60622"
     clip-path="url(#clipPath1005)"
     transform="translate(-224.12384,-0.55511474)"><tspan
       id="tspan60620"
       x="563.09656"
       y="227.37305"
       style="stroke-width:3.89094">हिंदी</tspan></text><text
     xml:space="preserve"
     style="font-style:normal;font-weight:normal;font-size:180.208px;line-height:1.25;font-family:sans-serif;fill:#000000;fill-opacity:1;stroke:none;stroke-width:4.50517"
     x="436.85541"
     y="797.86169"
     id="text67148"
     clip-path="url(#clipPath1001)"
     transform="translate(-224.12384,-0.55511474)"><tspan
       id="tspan67146"
       x="436.85541"
       y="797.86169"
       style="stroke-width:4.50517">अंग्रेज़ी</tspan></text></svg>
