<?xml version="1.0" encoding="UTF-8" standalone="no"?>
<svg
   id="flag-icons-gb"
   viewBox="0 0 581.05005 581.05005"
   version="1.1"
   width="581.05005"
   height="581.05005"
   xmlns="http://www.w3.org/2000/svg"
   xmlns:svg="http://www.w3.org/2000/svg">
  <defs
     id="defs15">
    <clipPath
       clipPathUnits="userSpaceOnUse"
       id="clipPath1453">
      <circle
         style="opacity:0.6;fill:#999999;fill-rule:evenodd"
         id="circle1455"
         cx="320"
         cy="298"
         r="290.52502" />
    </clipPath>
  </defs>
  <g
     id="g987"
     transform="translate(-29.474976,-7.4749756)"
     clip-path="url(#clipPath1453)">
    <path
       fill="#012169"
       d="M 0,6 H 640 V 590 H 0 Z"
       id="path2"
       style="display:inline" />
    <path
       fill="#ffffff"
       d="M 75,58 319,239 562,58 h 78 v 62 L 400,299 640,477 v 61 H 560 L 320,359 81,538 H 0 V 478 L 239,300 0,122 V 58 Z"
       id="path4" />
    <path
       fill="#c8102e"
       d="m 424,339 216,159 v 40 L 369,339 Z m -184,20 6,35 L 54,538 H 0 Z M 640,58 v 3 L 391,249 393,205 590,58 Z M 0,58 239,234 H 179 L 0,100 Z"
       id="path6" />
    <path
       fill="#ffffff"
       d="M 241,6 V 590 H 401 V 6 Z M 0,218 V 378 H 640 V 218 Z"
       id="path8" />
    <path
       fill="#c8102e"
       d="m 0,251 v 96 H 640 V 251 Z M 273,6 v 584 h 96 V 6 Z"
       id="path10" />
  </g>
</svg>
