<?xml version="1.0" encoding="UTF-8" standalone="no"?>
<svg
   width="128.29959"
   height="113.86913"
   viewBox="0 0 128.29959 113.86913"
   fill="none"
   version="1.1"
   id="svg13"
   xmlns="http://www.w3.org/2000/svg"
   xmlns:svg="http://www.w3.org/2000/svg">
  <g
     clip-path="url(#clip0_852_20)"
     id="g6" />
  <defs
     id="defs11">
    <clipPath
       id="clip0_852_20">
      <rect
         width="514"
         height="111"
         fill="#ffffff"
         id="rect8"
         x="0"
         y="0" />
    </clipPath>
  </defs>
  <path
     style="fill:none;stroke:#ffcc00;stroke-width:10;stroke-linecap:round;stroke-linejoin:miter;stroke-miterlimit:4;stroke-dasharray:none;stroke-opacity:1"
     d="M 75.569796,15.764156 C 78.923489,11.205908 83.77974,7.7726803 89.195493,6.1311859 94.611247,4.4896915 100.5564,4.6490547 105.87643,6.5783283 c 5.32004,1.9292736 9.98539,5.6177327 13.09007,10.3491017 3.10468,4.731369 4.63143,10.479347 4.28377,16.127711 -0.46144,7.496883 -4.30821,14.738032 -10.3165,19.245431 C 106.92548,56.807971 98.853787,58.47275 91.573903,56.62357 85.089961,54.976569 79.507286,50.763448 75.000971,45.819033 70.494657,40.874618 66.919804,35.172413 63.122843,29.664492 60.051971,25.209845 56.803576,20.843311 52.928554,17.067289 49.053532,13.291266 44.51139,10.106168 39.394128,8.3489636 35.5174,7.0177436 31.333008,6.5301668 27.274686,7.1056567 19.728191,8.1757865 12.900986,13.012477 9.0052879,19.563683 5.1095902,26.114889 4.0942166,34.223038 5.8175089,41.647661 c 1.3081631,5.636082 4.1012445,10.844581 7.5198381,15.51255 3.418594,4.667968 7.463182,8.837594 11.537838,12.945379 12.743374,12.846985 25.925611,25.258637 39.515989,37.20603 5.887422,-4.82461 11.514614,-9.966745 16.848957,-15.396603 5.281164,-5.375726 10.275272,-11.033437 14.953947,-16.940985"
     id="path1307" />
</svg>
