<?xml version="1.0" encoding="UTF-8" standalone="no"?>
<!-- Created with Inkscape (http://www.inkscape.org/) -->

<svg
   width="135.53329mm"
   height="150.18954mm"
   viewBox="0 0 135.53329 150.18954"
   version="1.1"
   id="svg77632"
   xmlns="http://www.w3.org/2000/svg"
   xmlns:svg="http://www.w3.org/2000/svg">
  <defs
     id="defs77629" />
  <g
     id="layer1"
     transform="translate(-36.657028,-14.617295)">
    <path
       style="fill:#e70d0c;fill-opacity:1;stroke-width:0.264583"
       d="M 101.79457,163.89727 C 69.784926,150.71093 45.387751,120.44368 40.066046,86.13013 36.56677,66.101768 36.329229,45.678049 36.888714,25.413337 59.777963,16.741643 84.562428,14.085803 108.9204,14.702216 c 21.41841,-0.03812 43.05429,3.199889 63.13097,10.754918 0.37125,25.824321 0.57633,52.338649 -7.37806,77.203866 -9.58218,27.97103 -31.94158,51.35209 -59.54532,61.9698 -1.13472,0.60011 -2.25838,-0.50832 -3.33342,-0.73353 z m 16.13958,-53.03374 0.1323,-15.742708 c 10.53923,-0.04549 21.07847,-0.09097 31.6177,-0.13646 -0.0823,-8.972199 0.20177,-17.96044 -0.20719,-26.92023 -6.40018,-0.753285 -13.42916,-0.230276 -20.10986,-0.413564 l -11.30065,-0.04641 c -0.0455,-10.539236 -0.0909,-21.078473 -0.1364,-31.617709 H 90.682073 v 31.752289 l -31.485525,-0.13458 c 3.4e-5,9.128125 7e-5,18.25625 1.08e-4,27.384375 h 31.485417 v 31.754807 c 9.03993,-0.0457 18.079857,-0.0915 27.119787,-0.1372 0.0441,-5.24754 0.0882,-10.49507 0.13229,-15.74261 z"
       id="path77730" />
  </g>
  <path
     d="m 81.27712,96.246223 0.1323,-15.74271 c 10.53923,-0.0455 21.07847,-0.091 31.6177,-0.13646 -0.0823,-8.9722 0.20177,-17.96044 -0.20719,-26.92023 -6.40018,-0.75328 -13.42916,-0.23027 -20.10986,-0.41356 l -11.30065,-0.0464 c -0.0455,-10.53924 -0.0909,-21.078474 -0.1364,-31.61771 H 54.02504 v 31.75229 l -31.48552,-0.13458 c 3e-5,9.12812 7e-5,18.25625 10e-5,27.38437 h 31.48542 v 31.754807 c 9.03993,-0.0457 18.07986,-0.0915 27.11979,-0.1372 0.0441,-5.24754 0.0882,-10.49507 0.13229,-15.742607 z"
     style="fill:#ffffff;fill-opacity:1;stroke-width:0.0700042"
     id="path886" />
</svg>
