<?xml version="1.0" encoding="UTF-8" standalone="no"?>
<!-- Created with Inkscape (http://www.inkscape.org/) -->

<svg
   version="1.1"
   id="svg2"
   width="87"
   height="87"
   viewBox="0 0 87 87"
   xmlns="http://www.w3.org/2000/svg"
   xmlns:svg="http://www.w3.org/2000/svg">
  <defs
     id="defs6" />
  <g
     id="g8">
    <path
       style="fill:#ffcc00"
       d="M 40,70.567388 C 40,69.779451 39.1,68.849126 38,68.5 36.9,68.150874 36,66.995549 36,65.932612 36,64.19425 36.753838,64 43.5,64 c 6.945125,0 7.5,0.154893 7.5,2.09362 0,1.252615 -0.803397,2.303712 -2,2.616631 -1.1,0.287656 -2,1.145528 -2,1.90638 C 47,71.530957 45.813296,72 43.5,72 41.128726,72 40,71.537992 40,70.567388 Z M 35.190371,60.25 C 35.477733,58.757849 36.702093,58.5 43.5,58.5 c 6.797907,0 8.022267,0.257849 8.309629,1.75 C 52.109619,61.807724 51.196625,62 43.5,62 35.803375,62 34.890381,61.807724 35.190371,60.25 Z m -3.50919,-9.130695 c -5.936095,-8.26261 -6.947629,-10.892752 -6.458358,-16.792713 0.508715,-6.13443 4.024775,-11.34688 9.802231,-14.531503 5.436384,-2.996618 14.734753,-2.136556 19.687755,1.821038 8.897282,7.109191 9.652603,16.421383 2.236969,27.579103 L 52.5,55.89046 43.843805,55.94523 35.187611,56 Z m 0.276057,-17.960501 c 1.228686,-4.562989 3.562882,-6.885721 8.691564,-8.648879 5.307146,-1.82451 5.827545,-4.011188 0.758854,-3.188653 -6.379763,1.035293 -11.803564,6.212344 -13.021109,12.428728 -0.968393,4.944299 2.222393,4.416004 3.570691,-0.591196 z"
       id="path863" />
  </g>
</svg>
