<?xml version="1.0" encoding="UTF-8" standalone="no"?>
<!-- Created with Inkscape (http://www.inkscape.org/) -->

<svg
   version="1.1"
   id="svg2"
   width="728.29071"
   height="728.29071"
   viewBox="0 0 728.29071 728.29071"
   xmlns:xlink="http://www.w3.org/1999/xlink"
   xmlns="http://www.w3.org/2000/svg"
   xmlns:svg="http://www.w3.org/2000/svg">
  <defs
     id="defs8">
    <linearGradient
       id="linearGradient912">
      <stop
         style="stop-color:#800080;stop-opacity:0.96"
         offset="0"
         id="stop908" />
      <stop
         style="stop-color:#9b4f00;stop-opacity:0.722"
         offset="0.37317547"
         id="stop1336" />
      <stop
         style="stop-color:#00b5b5;stop-opacity:0.722"
         offset="1"
         id="stop910" />
    </linearGradient>
    <linearGradient
       xlink:href="#linearGradient912"
       id="linearGradient914"
       x1="2.4959645"
       y1="9.3085318"
       x2="13.839123"
       y2="12.965388"
       gradientUnits="userSpaceOnUse" />
    <linearGradient
       xlink:href="#linearGradient912"
       id="linearGradient980"
       x1="141.67514"
       y1="166.84204"
       x2="555.26483"
       y2="557.40662"
       gradientUnits="userSpaceOnUse" />
  </defs>
  <style
     id="style3">path{color:#da0}</style>
  <circle
     style="opacity:0.5;fill:#800080"
     id="bg"
     cx="364.14536"
     cy="364.14536"
     r="364.14536" />
  <path
     style="fill:currentColor"
     d="m 188.10685,617.24195 c -15.56845,-6.74241 -30.96378,-9.31395 -53.66789,-8.96436 -17.89056,0.27547 -18.85876,0.01 -23.73182,-6.51735 -2.02728,-2.71532 -2.06178,-3.73822 -2.06178,-61.11488 0,-57.37666 0.0345,-58.39956 2.06178,-61.11488 1.13399,-1.51885 3.30599,-3.68935 4.82668,-4.82333 2.60753,-1.94445 4.05532,-2.05885 25.43821,-2.01011 24.50678,0.0559 34.97416,1.50521 49.83905,6.90087 l 6.63528,2.40848 8.5995,-2.86573 c 16.0237,-5.3398 24.42358,-6.45512 48.77395,-6.47615 24.41535,-0.0211 24.66379,0.0362 29.76376,6.86522 2.01593,2.69937 2.06834,3.99923 2.35609,58.43821 0.16187,30.62258 0.0315,57.12667 -0.28979,58.89798 -0.70279,3.87503 -4.85282,9.05519 -8.41584,10.50485 -1.50659,0.61297 -9.0678,0.97391 -18.08867,0.86348 -22.51348,-0.27561 -37.61107,2.20264 -52.16201,8.56233 -4.2141,1.84183 -8.9391,3.33265 -10.5,3.31293 -1.5609,-0.0197 -5.78032,-1.31012 -9.3765,-2.86756 z m -6.19947,-71.75577 -0.26202,-37.65918 -6.5,-1.83483 c -6.70036,-1.89139 -17.0939,-3.37107 -29.75,-4.23535 l -7.25,-0.4951 v 38.44182 38.44182 h 5.53941 c 7.23274,0 23.37366,1.81496 30.96059,3.48134 3.3,0.72481 6.34291,1.36302 6.76202,1.41825 0.41911,0.0552 0.64411,-16.84622 0.5,-37.55877 z m 44.64054,35.07979 c 4.34641,-0.78607 13.01419,-1.72117 19.26174,-2.07799 l 11.35917,-0.64877 -0.26173,-38.06471 -0.26174,-38.06471 -9,0.29795 c -10.24134,0.33903 -22.63091,2.28518 -30.28484,4.75712 l -5.21516,1.68431 v 37.4731 37.47309 l 3.25,-0.70008 c 1.7875,-0.38504 6.80615,-1.34323 11.15256,-2.12931 z m 272.59744,38.28651 c -2.475,-0.71071 -6.66307,-2.37809 -9.30682,-3.70529 -15.95298,-8.00862 -37.53645,-38.29681 -43.82643,-61.50183 -3.20043,-11.80703 -3.22149,-32.85955 -0.044,-44 3.79504,-13.30573 8.69093,-22.03863 17.15916,-30.6072 5.95441,-6.02496 8.76608,-8.07375 13.51812,-9.85031 8.57711,-3.20656 17.71233,-4.37475 25.75,-3.29283 3.7125,0.49973 6.73382,0.64799 6.71404,0.32947 -0.0871,-1.40215 -4.92776,-6.11115 -10.30691,-10.02653 -6.68998,-4.8695 -9.146,-9.37114 -8.35011,-15.30494 1.12195,-8.36475 7.05128,-13.05883 15.78951,-12.50009 4.77276,0.30517 6.56281,1.04737 12.16125,5.04234 10.89958,7.77777 19.80811,19.79198 23.6984,31.96009 0.65941,2.0625 1.3611,3.75 1.55932,3.75 0.19822,0 3.42582,-0.73354 7.17245,-1.6301 14.36923,-3.43851 30.74868,-1.71456 41.04609,4.32012 10.5781,6.19918 20.98927,21.70121 25.43217,37.868 3.14521,11.44475 3.1406,31.50657 -0.01,43.44198 -3.15411,11.94882 -10.85282,27.18406 -19.61374,38.81427 -9.53307,12.65526 -16.68345,19.15764 -26.28562,23.90351 -7.15057,3.53417 -8.24613,3.78222 -16.70467,3.78222 -5.48899,0 -11.84651,-0.71667 -16.15101,-1.82067 -6.62351,-1.69876 -7.49391,-1.71417 -13,-0.2302 -8.29512,2.23567 -20.90423,2.83648 -26.4012,1.25799 z m 23.19115,-31.25732 c 9.15533,-1.97639 11.02155,-1.85925 27.11538,1.70194 5.5171,1.2208 6.03688,1.16265 10.42762,-1.16664 10.04295,-5.32777 25.35476,-29.0083 28.81585,-44.56525 3.91997,-17.6195 -1.3709,-38.03775 -11.87453,-45.82561 -4.45268,-3.30141 -14.61845,-2.74918 -27.17547,1.47624 -13.85528,4.66229 -22.14472,4.66229 -36,0 -12.55971,-4.22633 -22.7237,-4.77788 -27.17547,-1.47469 -10.35291,7.68181 -15.75422,28.3856 -11.91149,45.65796 3.73693,16.79675 19.64108,40.69872 30.58696,45.96839 2.01207,0.96868 6.76256,0.47892 17.19115,-1.77234 z m -177.69115,14.99246 c -1.1,-0.15696 -6.62323,-0.82275 -12.27384,-1.47954 -11.60992,-1.34947 -15.61888,-3.29869 -18.47461,-8.98265 -3.15527,-6.28019 -1.88615,-12.7302 3.49331,-17.75395 4.08656,-3.81635 7.70727,-4.25962 21.05488,-2.57767 17.13986,2.1598 45.78885,1.40905 62.84099,-1.64676 14.57327,-2.61159 18.45083,-2.25628 22.79596,2.08885 4.3767,4.3767 5.66795,10.03772 3.55282,15.57611 -2.54636,6.66753 -6.23272,8.85164 -18.98951,11.25099 -16.773,3.15474 -27.44102,4.07804 -45.5,3.93797 -9.075,-0.0704 -17.4,-0.25639 -18.5,-0.41335 z m -49,-147.29101 c -6.80209,-4.2284 -6.96904,-4.75059 -7.31913,-22.89371 -0.38573,-19.99023 0.98978,-27.64921 7.31982,-40.75754 5.19575,-10.75943 13.06415,-20.56694 21.33337,-26.59079 3.32899,-2.42507 6.07819,-4.77673 6.10933,-5.22593 0.0311,-0.4492 -1.04478,-2.26072 -2.39092,-4.0256 -4.66096,-6.11083 -8.55874,-16.0353 -9.72415,-24.75948 -4.21492,-31.55269 20.94741,-59.8982 53.17168,-59.8982 32.76184,0 57.9873,29.04757 53.06337,61.10342 -1.1817,7.69313 -5.4009,18.02819 -9.61584,23.55426 -1.34614,1.76488 -2.42327,3.5764 -2.39362,4.0256 0.0297,0.4492 2.69546,2.69976 5.92401,5.00126 12.13781,8.65252 22.94528,25.42125 27.09829,42.04537 1.75704,7.03329 2.01002,10.70259 1.73989,25.23596 l -0.3161,17.00604 -3.76628,3.76404 -3.76627,3.76405 -66.73373,0.25807 c -63.63301,0.24609 -66.87311,0.17143 -69.73372,-1.60682 z m 114.5,-32.44115 c 0,-2.35945 -0.68981,-6.93826 -1.53291,-10.17514 -5.93459,-22.78443 -28.70488,-37.64498 -51.65249,-33.7099 -20.74741,3.55779 -37.33608,21.03809 -38.59601,40.67055 l -0.4816,7.50439 h 46.1315 46.13151 z m -36.5,-76.67721 c 4.89435,-2.35318 6.34129,-3.54953 9.71549,-8.03289 8.39316,-11.15215 4.37053,-28.12218 -8.17288,-34.47841 -20.18413,-10.22807 -42.12546,10.6428 -32.5041,30.91833 2.17391,4.58116 7.24132,9.5332 11.96149,11.68915 5.3102,2.42544 13.84517,2.38224 19,-0.0962 z m -227.89568,99.95989 c -7.5386,-2.33716 -11.07989,-9.97861 -16.05522,-34.64422 -6.74653,-33.44653 -5.83644,-73.63666 2.3926,-105.65813 2.44871,-9.52859 4.76012,-12.95385 10.21409,-15.13609 8.16286,-3.26613 17.20367,1.02668 19.69838,9.35328 1.0423,3.47887 0.85804,5.48412 -1.40569,15.29802 -3.88284,16.83321 -5.40722,30.44936 -5.42896,48.49314 -0.0236,19.54513 1.8489,34.80007 6.49806,52.93987 4.09879,15.99236 4.20925,17.99764 1.23242,22.37152 -4.28464,6.29544 -10.80154,8.94946 -17.14568,6.98261 z m 427.41561,-6.74433 c -7.47044,-3.75328 -9.57195,-10.94262 -6.50343,-22.24845 4.68813,-17.27324 5.80349,-26.99552 6.10555,-53.22066 0.32737,-28.4227 0.65753,-30.09802 6.6765,-33.8787 4.564,-2.86678 13.62225,-2.25765 17.28277,1.16218 5.76393,5.38494 5.92113,6.27731 5.89034,33.43718 -0.0244,21.55508 -0.34315,26.76305 -2.31299,37.79459 -3.35605,18.79469 -6.62198,30.49728 -9.33179,33.43801 -4.76783,5.17411 -11.75896,6.55446 -17.80695,3.51585 z M 560.64536,301.32223 c -8.48444,-3.15434 -11.76767,-5.2586 -18.06675,-11.57921 -21.95902,-22.03408 -15.73438,-58.44967 12.3662,-72.3451 7.38717,-3.65287 7.88249,-3.75256 18.64466,-3.75256 6.08074,0 12.29339,0.34607 13.80589,0.76905 l 2.75,0.76905 v -29.83458 -29.83457 l -36.25,-6.74545 c -19.9375,-3.70999 -37.00567,-6.96323 -37.92927,-7.22941 -1.55415,-0.44791 -1.7054,3.4497 -2.02993,52.31097 l -0.35066,52.79494 -2.55786,6.64505 c -5.26169,13.66932 -16.00684,24.01277 -29.06596,27.97936 -5.53864,1.68231 -8.80676,2.02709 -16.16415,1.70531 -8.03907,-0.3516 -10.1878,-0.86204 -16.75248,-3.97959 -9.9363,-4.71873 -17.01818,-11.79998 -21.78662,-21.78468 -3.50273,-7.33441 -3.61307,-7.91665 -3.61307,-19.06545 0,-11.18721 0.10009,-11.7096 3.67993,-19.20625 5.70961,-11.95665 14.3373,-19.58261 26.99136,-23.85747 5.29757,-1.78965 7.87656,-2.05677 15.82871,-1.63945 5.225,0.27421 10.5125,0.82208 11.75,1.21749 l 2.25,0.71894 v -38.16629 c 0,-41.38147 0.0242,-41.58109 5.58147,-45.9524 1.44178,-1.13411 4.10864,-2.34101 5.92634,-2.68202 4.43052,-0.83117 110.32594,18.83933 116.29724,21.60268 3.25844,1.50792 4.77254,3.02214 6.22803,6.22851 1.82885,4.02886 1.92407,7.20795 1.94496,64.93703 0.015,41.54988 -0.33584,62.37268 -1.11214,66.00001 -2.90628,13.57997 -12.97894,26.20001 -25.56124,32.02567 -6.01555,2.78523 -8.02231,3.18879 -17.30466,3.47996 -8.3678,0.26248 -11.51533,-0.0481 -15.5,-1.52954 z m 23.32116,-30.89267 c 11.67974,-8.72018 5.22492,-27.594 -9.4434,-27.61237 -8.01306,-0.01 -14.36968,5.8933 -15.07893,14.00368 -1.15163,13.16906 13.91339,21.52941 24.52233,13.60869 z m -111.74225,-17.2842 c 3.11694,0 9.77876,-6.75773 10.9501,-11.10775 2.96767,-11.02108 -7.18972,-21.48865 -18.37566,-18.93681 -11.71141,2.67172 -15.75343,18.3091 -6.82193,26.392 2.47539,2.24019 9.16844,4.74144 11.00037,4.11093 0.73248,-0.2521 2.19368,-0.45837 3.24712,-0.45837 z m -276.57891,41.11229 c -1.65,-1.03413 -19.89569,-18.91994 -40.54596,-39.74626 -34.1427,-34.43376 -37.84398,-38.49153 -40.83378,-44.76681 -8.07513,-16.94886 -7.90258,-34.43439 0.50847,-51.52541 4.49033,-9.12423 14.18569,-19.15222 23.05731,-23.84837 7.58217,-4.01358 19.73519,-7.23134 27.22392,-7.20808 11.55032,0.0359 25.70651,4.72618 34.64453,11.4786 3.03959,2.29632 3.06642,2.29812 5.5,0.36818 3.73976,-2.96579 14.85696,-8.37839 20.44551,-9.95425 2.99249,-0.84382 9.21578,-1.37338 15.5,-1.31894 8.64601,0.0749 11.69036,0.53801 17.24155,2.62282 15.5908,5.85529 25.96839,15.09105 32.68754,29.09099 6.36455,13.26109 7.62449,25.30088 4.09276,39.1098 -3.58462,14.01576 -4.45788,15.09907 -45.47232,56.41038 -20.92724,21.07872 -39.26468,38.96622 -40.74987,39.75 -3.75326,1.98072 -9.73306,1.7727 -13.29966,-0.46265 z m 68.72529,-98.09783 c 10.3851,-21.35681 -9.95148,-44.63389 -32.73459,-37.46772 -4.56186,1.43488 -7.43884,3.38331 -14.07871,9.53479 -12.79464,11.85353 -17.5896,11.70343 -30.92957,-0.96823 -8.63536,-8.20276 -14.48925,-10.66249 -23.44322,-9.85058 -17.68982,1.60406 -29.05393,18.91301 -23.53639,35.84887 1.61752,4.96492 4.1604,7.80632 32.35508,36.15351 l 30.59959,30.7651 29.79333,-29.7651 c 20.58231,-20.56282 30.46765,-31.15187 31.97448,-34.25064 z m 170.27471,-29.1565 c -8.16133,-3.31835 -30.60431,-8.71209 -43.02561,-10.34038 -13.88678,-1.82039 -40.1176,-1.9182 -54.03525,-0.20148 -11.48033,1.41608 -15.5115,0.89831 -19.09949,-2.45317 -7.71814,-7.2094 -6.87371,-18.52687 1.77478,-23.78633 5.30088,-3.22365 18.45592,-4.57734 44.38557,-4.5674 24.82927,0.01 34.49307,1.00026 54.21612,5.55821 11.94456,2.76036 30.34663,8.86722 33.54897,11.13345 5.83943,4.13247 7.88251,14.42192 3.92507,19.76764 -5.20127,7.02591 -12.42866,8.65513 -21.69016,4.88946 z"
     id="recom" />
  <path
     id="filling"
     style="opacity:0.5;fill:url(#linearGradient980);fill-opacity:1"
     d="m 166.40903,157.26254 c -1.03386,-0.006 -2.10536,0.045 -3.22461,0.14649 -17.68982,1.60405 -29.05465,18.9118 -23.53711,35.84765 1.61752,4.96492 4.16079,7.80712 32.35547,36.1543 l 30.59961,30.76368 29.79297,-29.76368 c 20.58231,-20.56282 30.46777,-31.15318 31.97461,-34.25195 10.3851,-21.35682 -9.95127,-44.63296 -32.73438,-37.4668 -4.56186,1.43488 -7.43825,3.38368 -14.07812,9.53516 -12.79465,11.85353 -17.58972,11.70291 -30.92969,-0.96875 -7.55594,-7.17741 -12.98175,-9.95706 -20.21875,-9.9961 z m 302.51172,65.4668 c -1.34247,-0.0635 -2.72285,0.0521 -4.12109,0.3711 -11.71141,2.67172 -15.75377,18.30968 -6.82227,26.39258 2.47539,2.24019 9.16807,4.74183 11,4.11132 0.73248,-0.2521 2.19265,-0.45898 3.24609,-0.45898 3.11694,0 9.77984,-6.7574 10.95118,-11.10742 2.59671,-9.64345 -4.85659,-18.86389 -14.25391,-19.3086 z m 105.60156,20.0879 c -8.01306,-0.01 -14.36887,5.89352 -15.07812,14.0039 -1.15163,13.16906 13.91254,21.5301 24.52148,13.60938 11.67974,-8.72018 5.22496,-27.59491 -9.44336,-27.61328 z M 363.86802,300.9852 c -15.98324,0.25983 -29.00095,17.12574 -21.1836,33.59961 2.17391,4.58116 7.24077,9.53351 11.96094,11.68946 5.3102,2.42544 13.84517,2.38273 19,-0.0957 4.89435,-2.35318 6.34064,-3.54984 9.71484,-8.0332 8.39316,-11.15215 4.37154,-28.12229 -8.17187,-34.47852 -3.78453,-1.91776 -7.63187,-2.7416 -11.32031,-2.68164 z m -0.47266,77.36524 c -2.1345,0.0475 -4.28421,0.25023 -6.43555,0.61914 -20.74741,3.55779 -37.33577,21.03941 -38.5957,40.67187 l -0.48242,7.50391 h 46.13281 46.13086 v -4.28906 c 0,-2.35945 -0.6901,-6.9389 -1.5332,-10.17578 -5.37823,-20.64839 -24.58334,-34.78905 -45.2168,-34.33008 z m 131.91992,117.2539 c -3.85663,-0.0154 -6.89805,0.69158 -8.8457,2.13672 -10.35291,7.68181 -15.75484,28.38585 -11.91211,45.65821 3.73693,16.79675 19.64201,40.69908 30.58789,45.96875 2.01207,0.96868 6.76282,0.47782 17.19141,-1.77344 9.15533,-1.97639 11.0214,-1.85807 27.11523,1.70312 5.5171,1.2208 6.037,1.16132 10.42774,-1.16796 10.04295,-5.32777 25.35531,-29.00751 28.8164,-44.56446 3.91997,-17.6195 -1.37137,-38.03831 -11.875,-45.82617 -4.45268,-3.30141 -14.61876,-2.74886 -27.17578,1.47656 -13.85528,4.66229 -22.14472,4.66229 -36,0 -7.06484,-2.37731 -13.37155,-3.59149 -18.33008,-3.61133 z m -357.16992,5.65625 v 38.44141 38.44336 h 5.53906 c 7.23274,0 23.37402,1.81409 30.96094,3.48047 3.3,0.72481 6.34259,1.36274 6.76171,1.41797 0.41911,0.0552 0.64411,-16.84605 0.5,-37.5586 l -0.26171,-37.6582 -6.5,-1.83594 c -6.70035,-1.89139 -17.0939,-3.37009 -29.75,-4.23437 z m 118.5,0.44922 -9,0.29688 c -10.24134,0.33903 -22.63123,2.28587 -30.28516,4.75781 l -5.21484,1.68359 v 37.47266 37.47461 l 3.25,-0.70117 c 1.7875,-0.38504 6.80593,-1.34283 11.15234,-2.12891 4.34641,-0.78607 13.01417,-1.7213 19.26172,-2.07812 l 11.35938,-0.64844 -0.26172,-38.06445 z" />
</svg>
