<?xml version="1.0" encoding="UTF-8" standalone="no"?>
<!-- Created with Inkscape (http://www.inkscape.org/) -->

<svg
   version="1.1"
   id="svg2"
   width="256"
   height="256"
   viewBox="0 0 256 256"
   xmlns="http://www.w3.org/2000/svg"
   xmlns:svg="http://www.w3.org/2000/svg">
  <defs
     id="defs10" />
  <style
     id="style2">path{color:white}</style>
  <g
     id="adole"
     transform="translate(-16.000008,-21.000008)"
     style="stroke:#da0">
    <circle
       style="display:none;fill:none;fill-opacity:1;stroke:#ffcc00;stroke-width:6.77365;stroke-linecap:round;stroke-linejoin:round;stroke-miterlimit:4;stroke-dasharray:none;stroke-opacity:1"
       id="circle"
       cx="144"
       cy="149"
       r="124.61317" />
    <path
       id="femheartbrain"
       style="fill:none;fill-opacity:1;stroke:currentColor;stroke-width:11.2381;stroke-linecap:round;stroke-linejoin:round;stroke-miterlimit:4;stroke-dasharray:none;stroke-opacity:1"
       d="m 148.68295,227.99523 c 11.69236,5.55563 22.39253,12.17104 35.88979,14.78251 2.76382,0.53475 5.39029,1.84591 8.20481,1.78935 6.36108,-0.15541 7.11081,-8.65471 9.33092,-13.34624 0.77196,-1.74042 2.19616,-3.09044 3.33775,-4.61416 0.57078,-0.76187 1.08023,-1.58136 1.38377,-2.48364 0.30353,-0.90227 0.39323,-1.89597 0.12883,-2.81048 -0.28227,-0.97634 -0.9468,-1.80366 -1.71063,-2.47409 -0.76382,-0.67044 -1.63395,-1.20607 -2.46454,-1.79175 -2.44543,-1.72434 -4.56938,-3.90441 -6.22935,-6.39397 2.44426,1.14797 5.10633,1.83025 7.8016,1.99692 1.82601,0.11287 3.69488,-0.0158 5.40864,-0.6561 1.71375,-0.64039 3.26668,-1.83484 4.08927,-3.46897 0.68284,-1.35647 0.82722,-2.90813 0.98529,-4.41853 0.15819,-1.51039 0.35632,-3.0675 1.12369,-4.37796 0.53516,-0.91368 1.32366,-1.65847 2.18545,-2.27369 0.86179,-0.61521 1.80226,-1.11049 2.73172,-1.61758 0.92959,-0.50707 1.85552,-1.03116 2.67932,-1.69631 0.82381,-0.66515 1.54732,-1.48211 1.97071,-2.45261 0.36169,-0.82916 0.4946,-1.74973 0.4461,-2.65303 -0.0489,-0.9033 -0.27546,-1.79095 -0.60356,-2.63394 -0.65633,-1.68597 -1.70917,-3.18098 -2.67688,-4.7096 -5.28632,-8.34987 -8.19015,-18.1786 -8.36947,-28.05954 1.14555,-16.83502 8.10904,-33.27267 5.71398,-49.14061 C 217.95451,92.9346 212.16931,82.074713 203.74275,73.895549 190.65231,61.189457 172.11462,55.513478 153.94128,53.921523 c -3.04557,-0.266796 -6.10598,-0.430262 -9.1663,-0.477169 -9.18091,-0.140709 -18.37277,0.765659 -27.25075,3.068157 -11.83731,3.070002 -23.109165,8.683072 -32.136908,16.93212 -9.913123,9.05812 -16.90312,21.139312 -20.45828,34.088499 -3.55516,12.9492 -3.739612,26.73093 -1.188189,39.91466 1.736292,8.97177 4.74628,17.74576 9.421589,25.59739 4.67543,7.85165 11.054892,14.76431 18.843118,19.54458 9.02584,5.53992 19.8588,8.08298 30.40719,7.14074 10.54839,-0.94223 20.75495,-5.36625 28.65601,-12.41815 11.79852,-10.07643 38.56977,-45.45792 35.5759,-72.08562 -1.07891,-9.59591 -8.14283,-21.80922 -18.26915,-22.482152 -10.12633,-0.672932 -20.99938,10.616882 -26.69699,21.511482 -6.47655,-8.32839 -14.09499,-21.16211 -27.08351,-20.989348 -12.98853,0.172761 -18.499245,11.170818 -19.843375,20.613008 -2.899732,20.37003 19.941035,39.6866 28.699115,54.64867">
      <animateTransform
         attributeType="xml"
         attributeName="transform"
         type="rotate"
         from="0 144 149"
         to="360 144 149"
         dur="10s"
         repeatCount="indefinite" />
    </path>
  </g>
</svg>
