<?xml version="1.0" encoding="UTF-8" standalone="no"?>
<!-- Created with Inkscape (http://www.inkscape.org/) -->

<svg
   version="1.1"
   id="svg2"
   width="173.30981"
   height="41.690681"
   viewBox="0 0 173.30981 41.690681"
   xmlns:xlink="http://www.w3.org/1999/xlink"
   xmlns="http://www.w3.org/2000/svg"
   xmlns:svg="http://www.w3.org/2000/svg">
  <text
     xml:space="preserve"
     style="font-style:normal;font-weight:normal;font-size:40px;line-height:1.25;font-family:sans-serif;fill:#fac92f;fill-opacity:1;stroke:none"
     x="42.910088"
     y="36.105343"
     id="word"><tspan
       id="tspan2447"
       x="42.910088"
       y="36.105343"
       style="font-style:normal;font-variant:normal;font-weight:900;font-stretch:normal;font-size:40px;font-family:Figtree;-inkscape-font-specification:'Figtree, Heavy';font-variant-ligatures:normal;font-variant-caps:normal;font-variant-numeric:normal;font-variant-east-asian:normal;fill:#fac92f;fill-opacity:1"><tspan
         style="fill:#fdf7f7;fill-opacity:1"
         id="tspan17109">Ado</tspan><tspan
         style="fill:#d4aa00"
         id="tspan2968">LE</tspan></tspan></text>
  <path
     id="femheartbrain"
     style="fill:none;fill-opacity:1;stroke:#d4aa00;stroke-width:2.2206;stroke-linecap:round;stroke-linejoin:round;stroke-miterlimit:4;stroke-dasharray:none;stroke-opacity:1"
     d="m 17.491336,37.118706 c 2.216047,1.144485 4.244044,2.507289 6.802171,3.045262 0.523826,0.110161 1.02162,0.380266 1.555054,0.368615 1.205611,-0.03202 1.347707,-1.782908 1.768482,-2.749384 0.14631,-0.358535 0.416238,-0.636644 0.632602,-0.950537 0.108181,-0.156949 0.204735,-0.325768 0.262265,-0.511641 0.05753,-0.185873 0.07453,-0.390578 0.02442,-0.578973 -0.0535,-0.201129 -0.179447,-0.371561 -0.324214,-0.509672 -0.144768,-0.138114 -0.309682,-0.248457 -0.467104,-0.369109 -0.463481,-0.355223 -0.866032,-0.804325 -1.180645,-1.317187 0.463259,0.236489 0.967799,0.377041 1.478633,0.411375 0.346083,0.02325 0.700288,-0.0032 1.025097,-0.13516 0.324805,-0.131923 0.619132,-0.377984 0.775036,-0.714622 0.129418,-0.279439 0.156783,-0.599087 0.186742,-0.910237 0.02998,-0.311148 0.06753,-0.631918 0.212972,-0.901879 0.101428,-0.188221 0.250872,-0.341652 0.414207,-0.468389 0.163336,-0.126737 0.341581,-0.228768 0.517742,-0.333229 0.176184,-0.104459 0.351674,-0.212424 0.50781,-0.349448 0.156135,-0.137024 0.293262,-0.305322 0.373506,-0.505249 0.06855,-0.170809 0.09374,-0.360452 0.08455,-0.546536 -0.0093,-0.186084 -0.05221,-0.368942 -0.114393,-0.542603 -0.124394,-0.347316 -0.323938,-0.655295 -0.507346,-0.970197 -1.001913,-1.720111 -1.552276,-3.744872 -1.586262,-5.78039 0.217116,-3.468089 1.536902,-6.854315 1.082967,-10.123181 C 30.620334,9.2956218 29.523869,7.0584371 27.926788,5.3734934 25.445765,2.7559825 21.932327,1.5867059 18.487945,1.2587561 17.91072,1.203795 17.330681,1.1701203 16.750662,1.1604573 15.010609,1.1314706 13.26848,1.3181864 11.585842,1.7925112 9.3423235,2.4249451 7.2059765,3.5812622 5.4949537,5.2806024 3.6161254,7.146615 2.2913153,9.6353937 1.617508,12.302984 c -0.67380736,2.667592 -0.70876644,5.506689 -0.2251967,8.222595 0.3290784,1.848224 0.8995596,3.655704 1.7856681,5.273175 0.8861316,1.617474 2.0952272,3.041513 3.571325,4.02627 1.7106612,1.141247 3.7638266,1.66513 5.7630576,1.471023 1.999229,-0.194104 3.933672,-1.10547 5.431157,-2.558194 2.236165,-2.075788 7.310105,-9.36453 6.742678,-14.849953 C 24.481712,11.911099 23.142892,9.3951034 21.223655,9.2564764 19.304418,9.1178494 17.243656,11.443602 16.163791,13.687938 14.936295,11.972251 13.492376,9.3284485 11.030669,9.3640382 8.5689615,9.3996279 7.5245185,11.665275 7.2697664,13.610409 6.7201819,17.806724 11.049179,21.786023 12.709094,24.868276" />
</svg>
