<?xml version="1.0" encoding="UTF-8" standalone="no"?>
<svg
   id="Layer_1"
   data-name="Layer 1"
   viewBox="0 0 50 50"
   version="1.1"
   xmlns="http://www.w3.org/2000/svg"
   xmlns:svg="http://www.w3.org/2000/svg"
   xmlns:rdf="http://www.w3.org/1999/02/22-rdf-syntax-ns#"
   xmlns:cc="http://creativecommons.org/ns#"
   xmlns:dc="http://purl.org/dc/elements/1.1/">
  <defs
     id="defs4">
    <style
       id="style2">.cls-1{fill:none;stroke:#80c380;stroke-miterlimit:10;stroke-width:2px;}</style>
  </defs>
  <title
     id="title6">Icons_Carousel</title>
  <path
     class="cls-1"
     d="M24.21,20.78a3.88,3.88,0,0,1-.09,1c-.52,2.25-2.94,4-5.1,3.37a4.29,4.29,0,0,1-3.28-4.32"
     id="path8"
     style="stroke:#ffcc00" />
  <path
     class="cls-1"
     d="M32.6,21.12a3.88,3.88,0,0,1-.09,1,4.21,4.21,0,0,1-5,3.11,4.29,4.29,0,0,1-3.28-4.32"
     id="path10"
     style="stroke:#ffcc00" />
  <path
     class="cls-1"
     d="M32.6,20.95a4.27,4.27,0,0,0,4,4.41,4.8,4.8,0,0,0,4.49-2.25,3.87,3.87,0,0,0,.35-1.73h0A12.42,12.42,0,0,0,40,16.63L34.93,5.91h-21L8.05,18.7l-.43.78a4.1,4.1,0,0,0,3.8,5.79,4.64,4.64,0,0,0,4-2.51A4.12,4.12,0,0,0,15.75,21"
     id="path12"
     style="stroke:#ffcc00" />
  <circle
     class="cls-1"
     cx="35.01"
     cy="36.85"
     r="7.17"
     id="circle14"
     style="stroke:#ffcc00" />
  <line
     class="cls-1"
     x1="24.39"
     y1="46.79"
     x2="29.4"
     y2="41.77"
     id="line16"
     style="stroke:#ffcc00" />
  <line
     class="cls-1"
     x1="10.82"
     y1="27.43"
     x2="10.82"
     y2="41.43"
     id="line18"
     style="stroke:#ffcc00" />
  <line
     class="cls-1"
     x1="6.41"
     y1="41.77"
     x2="21.71"
     y2="41.77"
     id="line20"
     style="stroke:#ffcc00" />
  <metadata
     id="metadata840">
    <rdf:RDF>
      <cc:Work
         rdf:about="">
        <dc:title>Icons_Carousel</dc:title>
      </cc:Work>
    </rdf:RDF>
  </metadata>
</svg>
