<?xml version="1.0" encoding="UTF-8" standalone="no"?>
<svg
   width="722.66534"
   height="722.66534"
   version="1.1"
   id="svg4"
   xmlns="http://www.w3.org/2000/svg"
   xmlns:svg="http://www.w3.org/2000/svg">
  <style>path{color:#d4aa00}</style>
  <circle
     style="display:none;fill:#800080;stroke:none;stroke-width:21.7131;stroke-miterlimit:4;stroke-dasharray:none"
     id="path905"
     cx="361.33267"
     cy="361.33267"
     r="361.33267" />
  <path
     d="m 200.33267,616.44967 c -4.759,-1.047 -13.2,-5.475 -17.305,-9.08 -4.947,-4.343 -9.592,-13.692 -10.28,-20.686 -0.66,-6.734 0.464,-10.916 10.847,-40.351 19.343,-54.84 37.909,-99.795 59.468,-144 6.303,-12.925 13.209,-27.874 15.346,-33.221 11.971,-29.954 32.608,-71.688 56.26,-113.779 9.228,-16.42 35.904,-56.372 46.071,-69 23.03,-28.6 57.528,-53.223 92.339,-65.904 22.744,-8.285 51.313,-14.355 68.254,-14.5 7.635,-0.066 9.051,0.23 13.92,2.915 12.91,7.119 18.675,24.541 12.03,36.363 -3.32,5.908 -8.61,8.747 -18.752,10.064 -42.509,5.52 -67.402,13.958 -94.698,32.101 -13.233,8.796 -30.923,26.09 -40.277,39.377 l -6.277,8.915 3.777,2.985 c 8.928,7.057 22.826,22.283 25.724,28.184 2.042,4.157 6.496,9.696 14.5,18.032 23.728,24.713 36.195,45.54 42.072,70.285 3.805,16.022 2.313,24.987 -5.45,32.735 -6,5.99 -0.661,4.63 -66.522,16.947 -26.498,4.956 -48.079,8.501 -51.75,8.501 -5.532,0 -6.297,0.232 -6.297,1.91 0,1.737 2.607,7.897 14.004,33.09 2.115,4.675 7.199,15.925 11.298,25 7.826,17.33 19.915,42.983 33.693,71.5 11.075,22.921 11.666,24.352 12.402,30.05 1.136,8.788 -3.313,20.218 -10.562,27.13 -8.71,8.308 -23.612,11.724 -33.009,7.567 -9.874,-4.367 -12.868,-9.142 -34.327,-54.747 -2.329,-4.95 -7.67,-16.3 -11.867,-25.224 -4.197,-8.923 -7.632,-16.415 -7.632,-16.649 0,-0.233 -1.98,-4.632 -4.401,-9.775 -2.42,-5.144 -7.334,-15.877 -10.919,-23.852 -12.313,-27.395 -12.467,-27.678 -13.555,-24.92 -0.525,1.331 -3.94,9.17 -7.589,17.42 -11.09,25.076 -29.314,71.934 -41.03,105.5 -9.89,28.337 -12.41,32.87 -20.601,37.049 -4.352,2.22 -13.608,3.232 -18.905,2.068 z m 192.58,-261.58 c 13.023,-2.454 23.843,-4.627 24.044,-4.828 1.266,-1.266 -18.252,-27.709 -20.453,-27.709 -1.097,0 -19.758,23.69 -24.353,30.92 -2.127,3.344 -3.653,6.08 -3.392,6.08 0.26,0 11.13,-2.008 24.153,-4.463 z m 64.596,-77.607 c -33.572,-6.607 -45.885,-50.716 -20.607,-73.819 6.385,-5.835 10.431,-8.15 18.363,-10.5 29.799,-8.835 59.7,18.432 54.084,49.32 -4.382,24.098 -27.595,39.77 -51.84,34.999 z"
     style="fill:none;stroke:currentColor;stroke-width:20.3;stroke-miterlimit:4;stroke-dasharray:none"
     id="path2" />
</svg>
