<?xml version="1.0" encoding="UTF-8" standalone="no"?>
<svg
   id="Layer_1"
   height="400"
   viewBox="-97 220.9 400 400"
   width="400"
   version="1.1"
   xmlns:xlink="http://www.w3.org/1999/xlink"
   xmlns="http://www.w3.org/2000/svg"
   xmlns:svg="http://www.w3.org/2000/svg">
  <style>stop{color:#304}</style>
  <style>stop{color:#da0}</style>
  <defs
     id="defs9">
    <linearGradient
       id="linearGradient29727">
      <stop
         style="stop-color:currentColor;stop-opacity:1;"
         offset="0"
         id="stop29723" />
      <stop
         style="stop-color:#507;stop-opacity:0;"
         offset="1"
         id="stop29725" />
    </linearGradient>
    <linearGradient
       xlink:href="#linearGradient56968"
       id="linearGradient93222"
       x1="445.36871"
       y1="295.82675"
       x2="683.64679"
       y2="295.82675"
       gradientUnits="userSpaceOnUse" />
    <linearGradient
       id="linearGradient56968">
      <stop
         style="stop-color:#8f541c;stop-opacity:1"
         offset="0"
         id="stop56952" />
      <stop
         style="stop-color:#b09042;stop-opacity:1"
         offset="0.12773934"
         id="stop56954" />
      <stop
         style="stop-color:#d5bf6a;stop-opacity:1"
         offset="0.24002911"
         id="stop56956" />
      <stop
         style="stop-color:#966e2b;stop-opacity:1"
         offset="0.44441992"
         id="stop56958" />
      <stop
         style="stop-color:#c6aa56;stop-opacity:1"
         offset="0.58005458"
         id="stop56960" />
      <stop
         style="stop-color:#d1a546;stop-opacity:1"
         offset="0.7485435"
         id="stop56962" />
      <stop
         style="stop-color:#9f7a34;stop-opacity:1"
         offset="0.87265646"
         id="stop56964" />
      <stop
         style="stop-color:#906230;stop-opacity:1"
         offset="1"
         id="stop56966" />
    </linearGradient>
    <filter
       style="color-interpolation-filters:sRGB"
       id="filter12441-4-7"
       x="-0.0035613894"
       y="-0.0038209286"
       width="1.0123222"
       height="1.0103571">
      <feFlood
         flood-opacity="0.89336279197832147"
         flood-color="rgb(36,9,63)"
         result="flood"
         id="feFlood12431-4-93" />
      <feComposite
         in="flood"
         in2="SourceGraphic"
         operator="in"
         result="composite1"
         id="feComposite12433-4-7" />
      <feGaussianBlur
         stdDeviation="0.01"
         id="feGaussianBlur60980-87" />
      <feOffset
         dx="1"
         dy="0.5"
         result="offset"
         id="feOffset12437-7-41" />
      <feComposite
         in="SourceGraphic"
         in2="offset"
         operator="over"
         result="fbSourceGraphic"
         id="feComposite12439-6-90" />
    </filter>
    <linearGradient
       xlink:href="#linearGradient9447"
       id="linearGradient94152"
       x1="429.6311"
       y1="398.61551"
       x2="378.98492"
       y2="364.66324"
       gradientUnits="userSpaceOnUse"
       gradientTransform="translate(0,6)" />
    <linearGradient
       id="linearGradient9447">
      <stop
         style="stop-color:#ffba26;stop-opacity:1"
         offset="0"
         id="stop9443" />
      <stop
         style="stop-color:#4f3106;stop-opacity:1"
         offset="0.59191859"
         id="stop9547" />
      <stop
         style="stop-color:#c06a00;stop-opacity:1"
         offset="1"
         id="stop9445" />
    </linearGradient>
    <linearGradient
       xlink:href="#linearGradient29727"
       id="linearGradient29729"
       x1="-50.975674"
       y1="526.28607"
       x2="253.56129"
       y2="328.54977"
       gradientUnits="userSpaceOnUse" />
  </defs>
  <style
     id="style2">.st0{fill:#666666;}</style>
  <rect
     style="fill:url(#linearGradient29729);stroke:#000000;fill-opacity:1"
     id="rect889"
     width="400"
     height="400"
     x="-97"
     y="220.89999" />
  <path
     style="fill:none;stroke:#000000;stroke-width:1px;stroke-linecap:butt;stroke-linejoin:miter;stroke-opacity:1"
     d="M -97,220.9 C 303,620.90002 303,620.90002 303,620.90002"
     id="path1103" />
  <path
     style="fill:none;stroke:#000000;stroke-width:1px;stroke-linecap:butt;stroke-linejoin:miter;stroke-opacity:1"
     d="m -97,620.9 c 400,-400 400,-400 400,-400"
     id="path1105" />
  <text
     xml:space="preserve"
     style="font-style:normal;font-weight:normal;font-size:40px;line-height:1.25;font-family:sans-serif;text-align:center;text-anchor:middle;fill:#000000;fill-opacity:1;stroke:none;filter:url(#filter12441-4-7)"
     x="104.13559"
     y="312.72318"
     id="text5817"><tspan
       x="104.13559"
       y="312.72318"
       id="tspan5819"
       style="font-style:normal;font-variant:normal;font-weight:normal;font-stretch:normal;font-size:40px;font-family:Anton;-inkscape-font-specification:'Anton, Normal';font-variant-ligatures:normal;font-variant-caps:normal;font-variant-numeric:normal;font-variant-east-asian:normal;fill:#ffcc00">image</tspan><tspan
       x="104.13559"
       y="363.36185"
       style="font-style:normal;font-variant:normal;font-weight:normal;font-stretch:normal;font-size:40px;font-family:Anton;-inkscape-font-specification:'Anton, Normal';font-variant-ligatures:normal;font-variant-caps:normal;font-variant-numeric:normal;font-variant-east-asian:normal;fill:#ffcc00"
       id="tspan17065">placeholder</tspan></text>
  <g
     id="layer1"
     transform="matrix(2.6790009,0,0,2.6790009,-2.2575859,184.75694)">
    <path
       style="fill:#ffcc00;fill-opacity:1;stroke:#1f0938;stroke-width:1.38641;stroke-opacity:0.364706;filter:url(#filter12441-4-7)"
       d="m 621.03818,1215.2985 c 9.24879,-2.0738 23.91789,-8.4777 46.08239,-20.119 58.85093,-30.91 102.10471,-66.6335 130.40422,-107.7016 10.04274,-14.5741 14.25752,-23.6023 15.63635,-33.4943 1.73832,-12.4711 -4.40708,-21.4098 -16.0776,-23.3853 -9.28383,-1.5717 -17.37754,1.6411 -26.9238,10.6871 -8.74962,8.2912 -14.1749,15.758 -24.08925,33.1543 -14.1034,24.7466 -26.35599,42.3229 -40.47062,58.0547 -13.47201,15.0155 -42.56313,41.9368 -58.27779,53.931 -20.97986,16.0127 -32.71045,25.7419 -34.13728,28.3131 -1.41087,2.5425 -1.09152,2.5653 7.85338,0.56 z"
       id="path158085-1-3-7"
       transform="matrix(0.15654198,-0.02012878,0.02031221,0.15796856,-57.521223,-25.074608)" />
    <path
       id="path179585-7-8-8-99"
       style="fill:#ffcc00;fill-opacity:1;stroke-width:1.1491;filter:url(#filter12441-4-7)"
       d="m 575.31625,764.90533 c -10.61851,-0.79219 -16.29301,1.41034 -21.03041,8.16313 -2.97819,4.24524 -3.18655,5.05521 -3.69952,14.36601 -0.48344,8.77402 -0.10175,12.07758 3.44427,29.82046 l 3.9876,19.95307 -1.74348,29.36879 c -1.73092,29.14461 -1.76526,29.41243 -4.49187,35.06861 -2.21097,4.58592 -2.79784,7.13685 -3.00428,13.0548 -0.14112,4.04538 -0.67253,17.40092 -1.18038,29.67872 -1.05012,25.38883 -0.89519,27.8283 2.1952,34.66468 4.88408,10.80455 17.50687,20.33954 36.94095,27.9005 22.50216,8.7547 31.05373,12.5279 43.02283,18.9882 25.91861,13.9896 47.26065,29.7507 62.60103,46.2296 14.36852,15.4347 22.92785,22.7487 26.96091,23.0416 0.84253,0.06 2.24242,-1.3615 3.11254,-3.1616 5.35142,-11.0704 9.37537,-49.295 7.12086,-67.6492 -1.45327,-11.8305 -3.9588,-24.88456 -7.31422,-38.11075 -10.09839,-39.80484 -40.73125,-117.71328 -58.90835,-149.82152 -24.14239,-42.64478 -56.84226,-69.2296 -88.01371,-71.5551 z m 1.29936,22.36768 c 4.51379,0.4737 11.51395,4.24886 19.87947,10.96168 23.35928,18.74478 58.50849,65.5019 57.81728,76.91206 -0.10327,1.70315 -0.52345,1.88592 -2.71453,1.17585 -1.42581,-0.46199 -5.08777,-2.34309 -8.13831,-4.17973 -13.3483,-8.03659 -37.28413,-28.24572 -49.18706,-41.52837 -13.07563,-14.59115 -24.5823,-35.00577 -22.85516,-40.55041 0.67649,-2.172 2.49005,-3.0753 5.19831,-2.79108 z m 13.3264,64.59001 c 4.6837,0.30314 10.27425,4.38992 16.54779,12.1581 6.74064,8.34668 14.07661,21.0976 17.96817,31.22797 5.86735,15.27365 0.39583,24.19792 -10.66146,17.38814 -6.50731,-4.00764 -25.27145,-29.74775 -30.8105,-42.26458 -2.97365,-6.71955 -2.49904,-13.54478 1.15194,-16.56714 1.73358,-1.43517 3.67517,-2.08045 5.80406,-1.94249 z m 62.62517,42.91857 c 4.51104,0.32743 7.48494,2.38695 12.95411,8.97478 14.99208,18.05866 33.29378,65.4348 40.5737,105.02713 3.89771,21.1979 4.98827,46.5715 1.99211,46.3542 -0.20572,-0.012 -2.24106,-3.1491 -4.52288,-6.9649 -12.53639,-20.9624 -33.78031,-55.40668 -38.88213,-63.04225 -18.01904,-26.96737 -25.01996,-46.37356 -24.04207,-66.63509 0.72031,-14.92067 5.38148,-24.18891 11.92705,-23.71379 z m -68.63143,15.47505 c 6.75795,0.53284 17.84799,7.65172 30.87925,20.58581 11.36636,11.28155 21.65906,29.55245 22.64041,40.19103 0.35839,3.88549 0.22598,4.19496 -1.73801,4.05237 -1.16959,-0.0844 -3.86648,-0.81757 -5.99328,-1.62752 -5.75474,-2.19151 -21.08999,-11.47997 -28.6387,-17.34698 -14.38537,-11.18029 -23.78121,-25.73943 -24.16923,-37.45229 -0.2004,-6.04776 2.3956,-8.76698 7.01956,-8.40242 z m -4.86128,53.87195 c 13.35417,0.88199 39.99107,16.26076 61.58811,36.51591 8.32454,7.8075 8.4018,8.1601 0.88403,4.0008 -3.89739,-2.1561 -10.43575,-5.27258 -14.52946,-6.92485 -4.09371,-1.65228 -12.73418,-4.54078 -19.20098,-6.41913 -19.47119,-5.65575 -29.36788,-10.6766 -34.48705,-17.49292 -3.14443,-4.1872 -3.20153,-6.75913 -0.19121,-8.61683 1.44555,-0.89201 3.46352,-1.22636 5.93656,-1.06298 z"
       transform="matrix(0.15654198,-0.02012878,0.02031221,0.15796856,-57.521223,-25.074608)" />
    <path
       id="path179573-4-8-7-3"
       style="fill:#ffcc00;fill-opacity:1;stroke-width:1.18465;filter:url(#filter12441-4-7)"
       d="m 564.46673,1015.1137 c -27.53711,-2.2618 -32.03169,-0.6993 -42.38278,14.7436 -5.87301,8.7623 -5.30452,8.332 -25.52456,19.3826 -19.65682,10.7428 -23.31446,18.1356 -18.418,37.232 3.22826,12.5905 2.43392,17.9656 -4.47004,30.2336 -4.3488,7.7275 -5.2218,10.1135 -5.70482,15.5983 -1.28238,14.5585 8.02144,26.2439 26.0694,32.745 6.65575,2.3976 26.53572,4.683 37.64493,4.3284 32.95223,-1.0517 71.95876,-7.3258 98.35567,-15.8225 31.80567,-10.2374 65.93787,-28.7252 74.79049,-40.5106 8.43625,-11.2312 3.42542,-20.7665 -23.3556,-44.4464 -24.41927,-21.5913 -53.10812,-37.5526 -86.94154,-48.371 -9.93239,-3.1759 -13.15978,-3.7247 -30.06315,-5.113 z m -14.17964,27.2602 c 11.18879,0.7002 25.86994,4.6153 37.85021,10.4419 6.06997,2.9522 13.44094,6.3526 16.38025,7.5555 7.08513,2.8998 7.25239,3.0563 4.80428,4.4971 -6.18368,3.6393 -25.72211,3.5087 -40.36845,-0.2691 -15.1788,-3.9152 -29.27724,-11.1851 -32.26166,-16.6352 -1.74149,-3.1804 -0.9566,-4.247 3.80114,-5.171 2.72432,-0.5291 6.06461,-0.6525 9.79423,-0.4192 z m -31.0577,32.0456 c 4.17012,0.3406 9.59328,1.9637 18.69543,5.3136 12.3796,4.5558 23.93448,7.82 29.62501,8.3677 2.27901,0.2194 4.96774,0.7999 5.97537,1.2903 1.5967,0.7772 1.31535,1.1435 -2.18924,2.8537 -5.48959,2.6788 -20.09829,6.2164 -28.0638,6.7951 -8.77183,0.6373 -23.36788,-1.2343 -29.01568,-3.7193 -2.63359,-1.1587 -5.7414,-3.5737 -7.32326,-5.6917 -4.79717,-6.4235 -2.59662,-12.1181 5.61831,-14.5315 2.12368,-0.6274 4.17578,-0.8818 6.67786,-0.6779 z m 124.91385,15.9485 c 3.79921,0.3401 7.64657,0.8379 11.50975,1.4937 23.58208,4.0035 31.05305,8.2112 27.37561,15.4194 -1.9477,3.8174 -8.89034,7.4319 -21.82501,11.3625 -18.33105,5.5705 -36.36658,9.1412 -51.57877,10.2103 -7.13643,0.5014 -19.95144,-1.6689 -23.77382,-4.027 -14.55798,-8.9812 -8.36506,-22.0864 14.2571,-30.1674 12.01162,-4.2907 27.57135,-5.7653 44.03514,-4.2915 z m -126.99893,34.1351 c 8.22924,0.533 16.79133,3.9105 33.82976,12.7428 9.46553,4.9068 20.18159,9.7316 23.81151,10.7227 3.63001,0.9911 6.57662,2.0849 6.54932,2.4292 -0.0762,0.9621 -17.92368,3.5727 -26.38721,3.8597 -10.78112,0.3657 -28.09603,-1.9234 -37.34016,-4.9353 -28.01151,-9.1263 -31.45551,-22.8633 -6.20814,-24.7649 1.96357,-0.1478 3.84599,-0.1771 5.74492,-0.054 z"
       transform="matrix(0.15654198,-0.02012878,0.02031221,0.15796856,-57.521223,-25.074608)" />
    <path
       id="path179593-5-6-0-24"
       style="fill:#ffcc00;fill-opacity:1;stroke-width:1.18465;filter:url(#filter12441-4-7)"
       d="m 723.87513,718.17617 c -9.97586,-0.73556 -17.82216,4.07924 -23.8745,14.49774 -4.42036,7.60931 -5.42676,19.93308 -2.93113,35.88134 2.42342,15.48544 1.22264,24.08057 -5.40522,38.67312 -3.7144,8.17795 -4.76249,11.6661 -5.42901,18.0896 -0.87614,8.44593 -0.43734,10.16391 6.94426,27.22339 1.36689,3.15878 4.37075,13.53178 6.67463,23.05223 3.07821,12.71953 5.48427,19.989 9.0766,27.4133 8.14526,16.83437 19.54006,58.81022 25.17144,92.72953 3.74533,22.55838 4.50608,33.66668 3.65473,53.32738 l -0.67953,15.7087 5.21067,-6.0618 c 35.52867,-41.3337 59.75324,-115.4215 60.48194,-184.96882 0.78229,-74.67234 -19.22823,-125.33077 -58.56453,-148.25868 -7.59218,-4.42518 -14.34479,-6.86565 -20.33035,-7.30703 z m 7.26974,37.35079 c 5.78837,0.51561 12.69617,9.05013 20.56541,25.40702 14.3484,29.82449 17.53154,49.65884 9.10057,56.71076 -4.31322,3.60764 -6.87854,3.02223 -11.38066,-2.60001 -4.38834,-5.48024 -7.36137,-12.92394 -14.99844,-37.56074 -5.98202,-19.29768 -7.7207,-27.75306 -7.11259,-34.5798 0.51804,-5.81658 1.43734,-7.58995 3.82571,-7.37723 z m -13.70179,64.03692 c 5.34696,0.47617 11.74917,10.96926 14.20522,23.28369 1.58835,7.96373 -0.34905,27.14449 -2.72035,26.93334 -0.374,-0.0325 -1.08785,-1.60353 -1.5855,-3.48848 -0.49767,-1.8849 -3.00112,-8.31992 -5.56387,-14.29998 -4.94316,-11.53426 -9.24091,-24.57626 -8.99794,-27.30433 0.25596,-2.87371 2.47983,-5.31863 4.66244,-5.12424 z m 44.65139,40.3685 c 7.3411,0.36412 12.45411,10.66151 14.65992,29.78124 3.02179,26.19314 -3.06273,67.33468 -15.59367,105.42092 -2.73565,8.31506 -5.27902,16.12556 -5.65005,17.35806 -0.37096,1.2326 -0.87208,2.0032 -1.11496,1.7127 -0.24312,-0.2906 0.51415,-5.0977 1.68295,-10.6837 1.16881,-5.58588 2.63111,-16.04281 3.25005,-23.23681 1.78157,-20.70719 0.81817,-32.55627 -5.07934,-62.47229 -4.2671,-21.64613 -5.12226,-29.39667 -4.33155,-39.25394 0.82881,-10.33124 3.8993,-16.6045 8.89521,-18.17105 1.13767,-0.3568 2.23301,-0.50697 3.28178,-0.4549 z"
       transform="matrix(0.15654198,-0.02012878,0.02031221,0.15796856,-57.521223,-25.074608)" />
  </g>
</svg>
