<?xml version="1.0" encoding="UTF-8" standalone="no"?>
<!-- Generator: Adobe Illustrator 26.0.3, SVG Export Plug-In . SVG Version: 6.00 Build 0)  -->

<svg
   version="1.1"
   id="Calque_1"
   x="0px"
   y="0px"
   viewBox="0 0 355.9 448"
   style="enable-background:new 0 0 355.9 448;"
   xml:space="preserve"
   xmlns="http://www.w3.org/2000/svg"
   xmlns:svg="http://www.w3.org/2000/svg"><defs
   id="defs11" />
<style
   type="text/css"
   id="style2">
	.st0{fill:#DB5148;}
</style>
<g
   id="g6">
	<path
   class="st0"
   d="M 177.9,0 0,53.7 v 220.8 c 0,13.9 3.6,27.1 10.3,38.3 29.1,48 83.9,92.3 167.6,135.2 83.7,-42.9 138.6,-87.2 167.6,-135.2 6.7,-11.1 10.3,-24.4 10.3,-38.3 V 53.7 Z m 44,295.4 H 134 l 8.5,-72.5 C 131.9,213.1 126,199.6 126,185 c 0,-28.7 23.3,-52 52,-52 28.7,0 52,23.3 52,52 0,14.6 -6,28.1 -16.5,37.9 z"
   id="path4"
   style="fill:#ffcc00" />
</g>
</svg>
