<?xml version="1.0" encoding="UTF-8" standalone="no"?>
<!-- Created with Inkscape (http://www.inkscape.org/) -->

<svg
   width="62.624168mm"
   height="62.624168mm"
   viewBox="0 0 62.624168 62.624168"
   version="1.1"
   id="svg3991"
   xmlns="http://www.w3.org/2000/svg"
   xmlns:svg="http://www.w3.org/2000/svg">
 <style>
    #squat { color: #d4aa00; }
 </style>
  <g id="squat">
    <circle
       style="display:none;fill:#800080;fill-rule:evenodd;stroke-width:0.264583"
       id="path4087"
       cx="31.312084"
       cy="31.312084"
       r="31.312084" />
    <path
       d="m 26.185867,59.308495 c -2.325211,-1.263729 -2.528834,-2.715075 -1.42404,-10.14894 0.546285,-3.67583 0.993748,-6.934491 0.99433,-7.241461 0,-0.393541 -1.393692,-0.511095 -4.729612,-0.398621 -2.626996,0.08853 -5.54998,-0.08498 -6.573018,-0.39026 -2.127356,-0.634762 -3.740282,-2.849087 -3.718666,-5.105215 0.02196,-2.30251 3.608732,-17.00268 4.468654,-18.31512 1.717278,-2.620909 3.113272,-2.846175 16.65912,-2.688351 0,0 7.297403,-0.09972 12.411338,0.144594 2.519707,1.64129 3.108851,5.57911 2.91e-4,7.761447 -3.752155,0.02434 -8.980566,0.150865 -8.980566,0.150865 l -8.98054,0.150892 -1.006819,4.372848 c -0.553746,2.405062 -1.006819,4.465505 -1.006819,4.578747 5.263986,0.347107 10.833843,0.568034 16.592893,0.855742 9.68959,0.484081 10.718747,1.15308 10.959968,4.792927 0.129857,1.959583 -0.02143,2.332249 -1.425707,3.513931 0,0 -0.886892,1.301591 -1.570964,1.321885 -2.443589,0.07252 -6.909435,-0.345414 -6.909435,-0.345414 l -6.909434,-0.345387 -0.267229,1.633537 c -0.146976,0.898473 -0.61042,4.143905 -1.029864,7.212092 -0.972873,7.116419 -0.98978,7.16616 -2.813553,8.278204 -2.021316,0.89953 -3.303781,0.968693 -4.740328,0.211058 z m 3.929909,-3.274536 c 0.252571,-0.600287 0.912416,-4.441428 1.466374,-8.535882 0.553932,-4.094427 1.131041,-8.063759 1.282435,-8.820732 0.211535,-1.057724 -0.01296,-1.664467 -0.969618,-2.6212 -1.141413,-1.141386 -1.588029,-1.244865 -5.373132,-1.244865 -5.462984,0 -5.517727,-0.103769 -3.880882,-7.354861 0.682599,-3.023949 1.582976,-5.875813 2.000779,-6.337485 0.659474,-0.728715 1.950773,-0.856826 9.789398,-0.971179 8.949398,-0.130546 9.031102,-0.141447 9.184745,-1.223196 l -0.129658,-1.129665 -12.065119,0.03823 c -11.04204,0.035 -12.459944,0.08988 -13.389928,0.848889 -0.802481,0.654976 -1.490213,2.764155 -3.010138,9.231868 -1.85928,7.911597 -1.925929,8.450262 -1.18536,9.580509 0.769541,1.174459 0.909955,1.19761 7.26284,1.19761 4.961149,0 6.610138,0.159041 7.041806,0.679186 0.431958,0.520462 0.311758,2.481818 -0.514377,8.393218 -0.592905,4.242726 -0.935831,8.084635 -0.762026,8.537548 0.476461,1.241664 2.693617,1.058942 3.251861,-0.267996 z M 48.586205,39.645112 c 1.075823,-0.57576 1.235419,-2.04298 0.306123,-2.814241 -0.550148,-0.456565 -13.67274,-1.430496 -13.67274,-1.430496 -1.310258,-0.241538 -0.0098,0.942128 0.112766,1.924262 0.07428,0.595259 0.222885,1.785752 0.222885,1.785752 l 2.982621,0.279241 c 2.944389,0.27567 5.796782,0.517128 7.986712,0.67609 0.617829,0.04482 1.545564,-0.144436 2.061633,-0.420608 z M 21.891151,13.318647 C 20.002818,12.668248 17.794788,10.05877 17.993625,8.278045 18.37121,4.896511 20.274836,2.833581 23.572181,2.795323 c 6.183339,0 7.628175,8.084184 1.874493,10.488214 -1.419772,0.842116 -2.310918,0.463338 -3.555523,0.03511 z M 25.30708,10.420058 C 26.705588,9.3393938 26.77348,7.650347 25.470778,6.347645 24.009272,4.886139 22.542528,5.021897 21.267184,6.736741 20.458722,7.823782 20.40898,8.178773 20.9273,9.1622028 c 1.030076,1.9542922 2.815087,2.4669482 4.37978,1.2578552 z"
       style="fill:currentColor;stroke-width:0.48509"
       id="pistle-squat" />
  </g>
</svg>
