<?xml version="1.0" encoding="UTF-8" standalone="no"?>
<!-- Created with Inkscape (http://www.inkscape.org/) -->

<svg
   version="1.1"
   id="svg2"
   width="233.97488"
   height="212.61919"
   viewBox="0 0 233.97488 212.61919"
   xmlns:xlink="http://www.w3.org/1999/xlink"
   xmlns="http://www.w3.org/2000/svg"
   xmlns:svg="http://www.w3.org/2000/svg">
  <defs
     id="defs6">
    <linearGradient
       id="linearGradient56968">
      <stop
         style="stop-color:#8f541c;stop-opacity:1"
         offset="0"
         id="stop56952" />
      <stop
         style="stop-color:#b09042;stop-opacity:1"
         offset="0.12773934"
         id="stop56954" />
      <stop
         style="stop-color:#d5bf6a;stop-opacity:1"
         offset="0.24002911"
         id="stop56956" />
      <stop
         style="stop-color:#966e2b;stop-opacity:1"
         offset="0.44441992"
         id="stop56958" />
      <stop
         style="stop-color:#c6aa56;stop-opacity:1"
         offset="0.58005458"
         id="stop56960" />
      <stop
         style="stop-color:#d1a546;stop-opacity:1"
         offset="0.7485435"
         id="stop56962" />
      <stop
         style="stop-color:#9f7a34;stop-opacity:1"
         offset="0.87265646"
         id="stop56964" />
      <stop
         style="stop-color:#906230;stop-opacity:1"
         offset="1"
         id="stop56966" />
    </linearGradient>
    <linearGradient
       xlink:href="#linearGradient56968"
       id="linearGradient2056"
       x1="-2.0488241"
       y1="112.88336"
       x2="226.92369"
       y2="112.88336"
       gradientUnits="userSpaceOnUse" />
    <linearGradient
       xlink:href="#linearGradient56968"
       id="linearGradient93222"
       x1="445.36871"
       y1="295.82675"
       x2="683.64679"
       y2="295.82675"
       gradientUnits="userSpaceOnUse" />
    <filter
       style="color-interpolation-filters:sRGB"
       id="filter12441-4-7"
       x="-0.0035613894"
       y="-0.0038209285"
       width="1.0123222"
       height="1.0103571">
      <feFlood
         flood-opacity="0.89336279197832147"
         flood-color="rgb(36,9,63)"
         result="flood"
         id="feFlood12431-4-93" />
      <feComposite
         in="flood"
         in2="SourceGraphic"
         operator="in"
         result="composite1"
         id="feComposite12433-4-7" />
      <feGaussianBlur
         stdDeviation="0.01"
         id="feGaussianBlur60980-87" />
      <feOffset
         dx="1"
         dy="0.5"
         result="offset"
         id="feOffset12437-7-41" />
      <feComposite
         in="SourceGraphic"
         in2="offset"
         operator="over"
         result="fbSourceGraphic"
         id="feComposite12439-6-90" />
    </filter>
    <filter
       style="color-interpolation-filters:sRGB"
       id="filter1362"
       x="-0.0035613894"
       y="-0.0038209285"
       width="1.0123222"
       height="1.0103571">
      <feFlood
         flood-opacity="0.89336279197832147"
         flood-color="rgb(36,9,63)"
         result="flood"
         id="feFlood1352" />
      <feComposite
         in="flood"
         in2="SourceGraphic"
         operator="in"
         result="composite1"
         id="feComposite1354" />
      <feGaussianBlur
         stdDeviation="0.01"
         id="feGaussianBlur1356" />
      <feOffset
         dx="1"
         dy="0.5"
         result="offset"
         id="feOffset1358" />
      <feComposite
         in="SourceGraphic"
         in2="offset"
         operator="over"
         result="fbSourceGraphic"
         id="feComposite1360" />
    </filter>
    <filter
       style="color-interpolation-filters:sRGB"
       id="filter1393"
       x="-0.0035613894"
       y="-0.0038209285"
       width="1.0123222"
       height="1.0103571">
      <feFlood
         flood-opacity="0.89336279197832147"
         flood-color="rgb(36,9,63)"
         result="flood"
         id="feFlood1383" />
      <feComposite
         in="flood"
         in2="SourceGraphic"
         operator="in"
         result="composite1"
         id="feComposite1385" />
      <feGaussianBlur
         stdDeviation="0.01"
         id="feGaussianBlur1387" />
      <feOffset
         dx="1"
         dy="0.5"
         result="offset"
         id="feOffset1389" />
      <feComposite
         in="SourceGraphic"
         in2="offset"
         operator="over"
         result="fbSourceGraphic"
         id="feComposite1391" />
    </filter>
    <filter
       style="color-interpolation-filters:sRGB"
       id="filter1424"
       x="-0.0035613894"
       y="-0.0038209285"
       width="1.0123222"
       height="1.0103571">
      <feFlood
         flood-opacity="0.89336279197832147"
         flood-color="rgb(36,9,63)"
         result="flood"
         id="feFlood1414" />
      <feComposite
         in="flood"
         in2="SourceGraphic"
         operator="in"
         result="composite1"
         id="feComposite1416" />
      <feGaussianBlur
         stdDeviation="0.01"
         id="feGaussianBlur1418" />
      <feOffset
         dx="1"
         dy="0.5"
         result="offset"
         id="feOffset1420" />
      <feComposite
         in="SourceGraphic"
         in2="offset"
         operator="over"
         result="fbSourceGraphic"
         id="feComposite1422" />
    </filter>
    <linearGradient
       xlink:href="#linearGradient9447"
       id="linearGradient94152"
       x1="429.6311"
       y1="398.61551"
       x2="378.98492"
       y2="364.66324"
       gradientUnits="userSpaceOnUse"
       gradientTransform="translate(0,6)" />
    <linearGradient
       id="linearGradient9447">
      <stop
         style="stop-color:#ffba26;stop-opacity:1"
         offset="0"
         id="stop9443" />
      <stop
         style="stop-color:#4f3106;stop-opacity:1"
         offset="0.59191859"
         id="stop9547" />
      <stop
         style="stop-color:#c06a00;stop-opacity:1"
         offset="1"
         id="stop9445" />
    </linearGradient>
    <linearGradient
       xlink:href="#linearGradient56968"
       id="linearGradient1823"
       gradientUnits="userSpaceOnUse"
       x1="425.34253"
       y1="878.10895"
       x2="708.51868"
       y2="1013.9222" />
    <linearGradient
       xlink:href="#linearGradient56968"
       id="linearGradient1825"
       gradientUnits="userSpaceOnUse"
       x1="408.53503"
       y1="574.57349"
       x2="833.01624"
       y2="855.05396" />
    <linearGradient
       xlink:href="#linearGradient56968"
       id="linearGradient1827"
       gradientUnits="userSpaceOnUse"
       x1="724.29858"
       y1="663.30322"
       x2="1026.4866"
       y2="625.76245" />
    <linearGradient
       xlink:href="#linearGradient9447"
       id="linearGradient957"
       x1="0"
       y1="449.14999"
       x2="898.29999"
       y2="449.14999"
       gradientUnits="userSpaceOnUse" />
    <linearGradient
       xlink:href="#linearGradient56968"
       id="linearGradient1102"
       x1="0"
       y1="103.814"
       x2="207.62801"
       y2="103.814"
       gradientUnits="userSpaceOnUse" />
    <linearGradient
       xlink:href="#linearGradient56968"
       id="linearGradient1232"
       gradientUnits="userSpaceOnUse"
       x1="56.78199"
       y1="82.574776"
       x2="207.62801"
       y2="103.814" />
    <linearGradient
       xlink:href="#linearGradient56968"
       id="linearGradient1298"
       gradientUnits="userSpaceOnUse"
       x1="0"
       y1="103.814"
       x2="151.29796"
       y2="81.287811" />
    <linearGradient
       xlink:href="#linearGradient56968"
       id="linearGradient942"
       gradientUnits="userSpaceOnUse"
       x1="0"
       y1="103.814"
       x2="207.62801"
       y2="103.814" />
    <linearGradient
       xlink:href="#linearGradient56968"
       id="linearGradient944"
       gradientUnits="userSpaceOnUse"
       x1="0"
       y1="103.814"
       x2="207.62801"
       y2="103.814" />
    <linearGradient
       xlink:href="#linearGradient56968"
       id="linearGradient946"
       gradientUnits="userSpaceOnUse"
       x1="0"
       y1="103.814"
       x2="207.62801"
       y2="103.814" />
    <linearGradient
       xlink:href="#linearGradient56968"
       id="linearGradient948"
       gradientUnits="userSpaceOnUse"
       x1="0"
       y1="103.814"
       x2="207.62801"
       y2="103.814" />
    <linearGradient
       xlink:href="#linearGradient56968"
       id="linearGradient950"
       gradientUnits="userSpaceOnUse"
       x1="0"
       y1="103.814"
       x2="207.62801"
       y2="103.814" />
    <linearGradient
       xlink:href="#linearGradient56968"
       id="linearGradient952"
       gradientUnits="userSpaceOnUse"
       x1="0"
       y1="103.814"
       x2="207.62801"
       y2="103.814" />
    <linearGradient
       xlink:href="#linearGradient56968"
       id="linearGradient954"
       gradientUnits="userSpaceOnUse"
       x1="0"
       y1="103.814"
       x2="207.62801"
       y2="103.814" />
    <linearGradient
       xlink:href="#linearGradient56968"
       id="linearGradient956"
       gradientUnits="userSpaceOnUse"
       x1="0"
       y1="103.814"
       x2="207.62801"
       y2="103.814" />
  </defs>
  <g
     id="g8"
     transform="translate(4.5499694,-6.7255039)">
    <path
       style="fill:none;stroke:#ffcc00;stroke-width:12;stroke-linecap:butt;stroke-linejoin:miter;stroke-miterlimit:4;stroke-dasharray:none;stroke-opacity:1"
       d="M 112.10199,212.6163 C 62.324323,186.49635 -3.3405841,128.41301 1.7294398,67.978656 3.9842064,41.101986 29.333996,13.567458 60.846018,12.732075 c 32.886405,-0.49322 52.013312,27.157318 52.013312,27.157318 0,0 10.67404,-26.706276 48.30293,-26.914367 37.62889,-0.208092 58.42937,24.365373 61.64435,50.796085 7.46628,61.381049 -54.38385,121.197299 -110.70462,148.845189 z"
       id="path860" />
  </g>
  <g
     id="g882"
     style="fill:#ffcc00;fill-opacity:1"
     transform="matrix(0.69914018,0,0,0.69914018,44.406903,33.729055)">
    <circle
       cx="103.814"
       cy="103.814"
       r="45.868"
       id="circle2"
       style="fill:#ffd42a;fill-opacity:1" />
    <path
       d="m 103.814,157.183 c -29.427,0 -53.368,-23.941 -53.368,-53.368 0,-29.427 23.941,-53.368 53.368,-53.368 29.427,0 53.368,23.941 53.368,53.368 0,29.427 -23.941,53.368 -53.368,53.368 z m 0,-91.737 c -21.156,0 -38.368,17.212 -38.368,38.368 0,21.156 17.212,38.368 38.368,38.368 21.156,0 38.368,-17.212 38.368,-38.368 0,-21.156 -17.212,-38.368 -38.368,-38.368 z"
       id="path4"
       style="fill:#ffcc00;fill-opacity:1" />
    <path
       d="m 103.814,39.385 c -4.142,0 -7.5,-3.358 -7.5,-7.5 V 7.5 c 0,-4.142 3.358,-7.5 7.5,-7.5 4.142,0 7.5,3.358 7.5,7.5 v 24.385 c 0,4.142 -3.358,7.5 -7.5,7.5 z"
       id="path6"
       style="fill:#ffcc00;fill-opacity:1" />
    <path
       d="m 103.814,207.628 c -4.142,0 -7.5,-3.358 -7.5,-7.5 v -24.385 c 0,-4.142 3.358,-7.5 7.5,-7.5 4.142,0 7.5,3.358 7.5,7.5 v 24.385 c 0,4.143 -3.358,7.5 -7.5,7.5 z"
       id="path8"
       style="fill:#ffcc00;fill-opacity:1" />
    <path
       d="m 200.128,111.314 h -24.385 c -4.142,0 -7.5,-3.358 -7.5,-7.5 0,-4.142 3.358,-7.5 7.5,-7.5 h 24.385 c 4.142,0 7.5,3.358 7.5,7.5 0,4.142 -3.357,7.5 -7.5,7.5 z"
       id="path10"
       style="fill:#ffcc00;fill-opacity:1" />
    <path
       d="M 31.885,111.314 H 7.5 c -4.142,0 -7.5,-3.358 -7.5,-7.5 0,-4.142 3.358,-7.5 7.5,-7.5 h 24.385 c 4.142,0 7.5,3.358 7.5,7.5 0,4.142 -3.358,7.5 -7.5,7.5 z"
       id="path12"
       style="fill:#ffcc00;fill-opacity:1" />
    <path
       d="m 154.676,60.452 c -1.919,0 -3.839,-0.732 -5.303,-2.197 -2.929,-2.929 -2.929,-7.678 0,-10.606 l 17.243,-17.242 c 2.929,-2.929 7.678,-2.93 10.606,0 2.929,2.929 2.929,7.678 0,10.606 l -17.243,17.242 c -1.464,1.465 -3.384,2.197 -5.303,2.197 z"
       id="path14"
       style="fill:#ffcc00;fill-opacity:1" />
    <path
       d="m 35.709,179.419 c -1.919,0 -3.839,-0.732 -5.303,-2.197 -2.929,-2.929 -2.929,-7.678 0,-10.606 l 17.243,-17.243 c 2.929,-2.929 7.678,-2.929 10.606,0 2.929,2.929 2.929,7.678 0,10.606 l -17.243,17.243 c -1.464,1.465 -3.383,2.197 -5.303,2.197 z"
       id="path16"
       style="fill:#ffcc00;fill-opacity:1" />
    <path
       d="m 171.918,179.419 c -1.919,0 -3.839,-0.732 -5.303,-2.197 l -17.243,-17.243 c -2.929,-2.929 -2.929,-7.678 0,-10.606 2.929,-2.929 7.678,-2.929 10.606,0 l 17.243,17.243 c 2.929,2.929 2.929,7.678 0,10.606 -1.464,1.465 -3.383,2.197 -5.303,2.197 z"
       id="path18"
       style="fill:#ffcc00;fill-opacity:1" />
    <path
       d="m 52.952,60.452 c -1.919,0 -3.839,-0.732 -5.303,-2.197 L 30.406,41.013 c -2.929,-2.929 -2.929,-7.677 0,-10.606 2.929,-2.929 7.678,-2.93 10.606,0 l 17.243,17.242 c 2.929,2.929 2.929,7.677 0,10.606 -1.464,1.465 -3.383,2.197 -5.303,2.197 z"
       id="path20"
       style="fill:#ffcc00;fill-opacity:1" />
  </g>
</svg>
