<?xml version="1.0" encoding="UTF-8" standalone="no"?>
<!-- Created with Inkscape (http://www.inkscape.org/) -->

<svg
   width="272.48129mm"
   height="90.72303mm"
   viewBox="0 0 272.48129 90.72303"
   version="1.1"
   id="svg1137"
   xmlns="http://www.w3.org/2000/svg"
   xmlns:svg="http://www.w3.org/2000/svg">
  <defs
     id="defs1134">
    <rect
       x="532.30713"
       y="-18.723413"
       width="235.87637"
       height="336.54193"
       id="rect27923" />
  </defs>
  <g
     id="g29474"
     transform="translate(10,3)">
    <path
       id="path1300"
       style="fill:#ff0000;stroke-width:0.999999"
       d="m 288.58008,0 -1.73633,1.5722656 -1.73828,1.5722656 -3.625,1 -3.625,1.0019532 -1.99219,2.1386718 -1.99414,2.140625 v 1.5878908 1.589844 l -2,1.71289 -2,1.712891 v 2.927734 2.927735 l 3.49609,2.160156 3.4961,2.162109 3.5039,-1.158203 3.50391,-1.15625 v -0.982422 -0.982422 l 3.75,0.310547 3.75,0.310547 -0.41016,1.5 -0.41015,1.5 -0.44922,3.25 -0.44922,3.25 h -1.26758 -1.26953 l -1.5293,-2.25 -1.52734,-2.25 -3.84375,2 -3.84375,2 -0.3125,3.25 -0.31445,3.25 h -7.35352 -7.35547 l -1.61914,-0.621094 -1.61914,-0.621093 -1.43164,-2.771485 -1.43359,-2.771484 -4.2793,-0.408203 -4.28125,-0.408203 -3.38867,2.300781 -3.39063,2.300781 h -1.18554 -1.18555 l -2.22461,2.367188 -2.22266,2.365234 -6.43945,0.660156 -6.4375,0.660156 -1.51172,0.580079 -1.51172,0.580078 -2.90234,-3.107422 -2.90234,-3.105469 h -3.29297 -3.29492 l -2.56641,2.458984 -2.56836,2.460938 -5.48633,1.4375 -5.48828,1.439453 -1.34766,-1.28125 -1.34765,-1.283203 1.09765,-2.050781 1.09766,-2.050781 v -1.066407 -1.064453 h -1.94141 -1.93945 l -0.5918,0.955078 -0.59179,0.957032 -1.53516,-0.589844 -1.53515,-0.587891 -2.66797,1.382813 -2.66993,1.382812 -2.26367,1.929688 -2.26367,1.929687 v 2.273438 2.273437 l -1.16016,2.546875 -1.16015,2.546875 h -1.78125 -1.7793 l -0.61914,-1 -0.61719,-1 h -0.96093 -0.95899 l 0.64063,2.554688 0.64062,2.554687 -2.31445,2.464844 -2.3125,2.462891 -5.5586,-0.205079 -5.55859,-0.207031 -2.375,1.289063 -2.375,1.289062 -2.625,-1.216797 -2.625,-1.21875 -1.5,-0.755859 -1.5,-0.753906 v -3.042969 -3.041016 l -0.81836,-0.822265 -0.8164,-0.820313 -9.4336,-0.146484 -9.43164,-0.146485 v 3.41211 3.412109 l -1.41797,0.544922 -1.41992,0.542969 -5.19141,6.982422 -5.189449,6.980468 0.466799,0.46875 0.46875,0.466797 7.61133,-1.671875 7.61132,-1.671875 1.53125,1.269532 1.5293,1.269531 v 1.767578 1.767578 l -3.25,3.552734 -3.25,3.552735 -2.5,0.30664 -2.5,0.308594 -0.11523,3 -0.11524,3 -0.13476,1.207031 -0.13477,1.207032 -4.9707,5.292968 -4.970706,5.292971 -0.0293,1.55078 -0.0293,1.55078 -4.328125,2.73438 -4.328125,2.73632 -3.615235,3.81641 -3.615234,3.81445 -0.607422,2.39844 -0.607422,2.39844 -4.199219,4.16211 -4.199218,4.16406 -6.414063,2.08594 -6.416016,2.08789 h -1.265624 -1.267579 l -2.199218,3.08789 -2.199219,3.08789 1.316406,3.99023 1.316406,3.99024 -1.298828,4.17187 -1.300781,4.17188 0.15625,5.16601 0.15625,5.16797 -3.291016,2.41016 -3.292968,2.41015 -6.5,4.76758 -6.5,4.76758 -8.230469,7.6543 -8.230469,7.65625 -0.01953,1.28125 -0.01953,1.28125 1.5,0.57617 1.5,0.57422 v 1.8164 1.81641 l -2.289063,2.82617 -2.289062,2.82813 -1.210938,2.79687 -1.210937,2.79688 v 4.45312 4.45313 l 0.75,0.0137 0.75,0.0156 3.972656,3.36133 3.972656,3.35938 -2.972656,4.28906 -2.972656,4.28906 v 5.23243 5.23242 l -5.113282,1.14453 -5.115234,1.14453 -2.2265625,2.37109 L 0.6875,258.87109 0.34375,263.84766 0,268.82422 l 3.0175781,0.60351 3.015625,0.60352 1.8535157,-0.99023 1.8515624,-0.99219 h 4.6386718 4.638672 l 3.677734,-4.10547 3.675782,-4.10352 4.75,-2.41211 4.75,-2.41211 v -1.57031 -1.57031 l -3,-1.13281 -3,-1.13281 v -2.2793 -2.28125 l -0.75,0.002 -0.75,0.002 -2.841797,4.49805 -2.841797,4.49805 h -1.408203 -1.408203 v -1.17969 -1.17773 l 1.154297,-3.57227 1.152343,-3.57031 1.570313,-4.5 1.570312,-4.5 5.525391,-6.05274 5.527344,-6.05078 2.015625,-2.82422 2.013672,-2.82226 2.986328,0.0293 2.984375,0.0313 4.132812,-2.38086 4.132813,-2.37891 0.564453,-1.4707 0.566406,-1.47266 3.582031,-0.67187 3.583985,-0.67188 7.427734,1.10547 7.427734,1.10351 6.791016,2.60938 6.791016,2.60937 6.226562,3.04102 6.226567,3.04102 0.58789,1.85351 0.58789,1.85352 -0.62305,1.00781 -0.62305,1.00977 h -3.28711 -3.287106 l -3.048828,1.51953 -3.048828,1.52148 -1.251953,1.50977 -1.251953,1.50781 1.101562,2.41601 1.09961,2.41797 3.546875,3.92383 3.544922,3.92578 v 1.30078 1.29883 l -1.404297,1.57813 -1.40625,1.58008 -2.59375,6.42187 -2.595703,6.42187 v 1.17383 1.17188 l 1.876953,1.69726 1.875,1.69922 3.748047,0.60742 3.749999,0.60743 -0.56445,5.46289 -0.564456,5.46093 2.910156,-0.58203 2.91016,-0.58203 4.52929,5.5625 4.5293,5.56055 v 2.28515 2.28516 l 1.5,1.2461 1.5,1.24414 v 1.18164 1.18164 l 2.92578,4.61328 2.92578,4.61328 5.88868,-0.30274 5.88867,-0.30078 4.0625,-2.07422 4.0625,-2.07226 0.59179,-1.54297 0.5918,-1.54101 h 2.08203 2.08008 l 2.86133,1.47851 2.86133,1.48047 4.83984,-2.67774 4.83789,-2.67773 1.30664,-1.80273 1.30664,-1.80078 h 2.38672 2.38672 l 1.52344,-2.17579 1.52539,-2.17578 2.58008,1.17578 2.58007,1.17579 h 3.91016 3.91016 l 2.73632,3.42968 2.73829,3.43164 1.87109,-1.00195 1.87305,-1.00195 2.39843,1.57031 2.39649,1.57227 h 1.95312 1.95508 l 1.58008,-0.60743 1.58203,-0.60742 v -1.49219 -1.49218 l 1.54883,-3.26172 1.54883,-3.26172 2.49804,-1.13867 2.5,-1.13867 h 2.83008 2.83008 l 1.16797,-1.40821 1.16797,-1.4082 0.79883,-5.05078 0.79882,-5.05274 1.32618,-1.59765 1.32617,-1.59961 3.125,-1.30469 3.12695,-1.30664 2.70313,-3.21289 2.70312,-3.21289 v -2.1543 -2.15234 l -3.54102,-5.73828 -3.54296,-5.73828 1.56836,-3.03126 1.56836,-3.03124 h 3.96093 3.96094 l 2.38281,-3.77344 2.38282,-3.77539 4.22851,-2.92969 4.22656,-2.92969 -0.5039,-3.10547 -0.50391,-3.10547 6.26367,-3.27929 6.26367,-3.2793 2.39258,0.33789 2.39258,0.33985 0.64648,6.5 0.64649,6.5 -0.80078,4 -0.80078,4 -1.26758,3.125 -1.26758,3.12695 1.6875,3.55664 1.6875,3.55859 4.12109,2.31641 4.1211,2.31641 3.90234,6.5 3.9043,6.5 5.20898,2.3164 5.21094,2.31836 1.83398,-1.12891 1.83204,-1.12695 2.38281,1.56055 2.38086,1.56055 h 2.51172 2.51367 l 1.64062,2.50585 1.64258,2.50586 -1.25586,3.03125 -1.25586,3.03321 -1.86328,0.99609 -1.86328,0.99805 v 1.48633 1.48632 l 4.69336,2.97657 4.69141,2.97461 2.39648,5.7539 2.39649,5.75196 0.0469,3.64257 0.0488,3.64453 3.86328,0.61719 3.86328,0.61914 v 1.07031 1.07227 l 1.22852,-0.41016 0.006,0.004 1.22851,-0.41016 2.69336,-4.42382 2.69141,-4.42383 0.0801,-1.75781 0.0781,-1.75586 -2.5957,-2.24414 -2.59571,-2.24219 -1.47656,-2.83985 -1.47656,-2.84179 0.73242,-1.65821 0.73438,-1.66015 0.58789,-4.99024 0.58984,-4.99023 2.69336,-1.28711 2.69141,-1.28711 0.68164,-4.54297 0.68164,-4.54297 6.375,-5.10937 6.37695,-5.10938 v -0.8789 -0.87891 l 2.89453,-3.69141 2.89453,-3.6914 2.16797,-6.24024 2.16602,-6.24023 -0.68946,-6.99219 -0.68945,-6.99414 -1.37109,-1.13867 -1.37305,-1.14063 v -2.31835 -2.31836 l 0.88867,-0.54883 0.88867,-0.54883 0.69141,-2.75 0.68945,-2.75 1.16992,-0.74414 1.17188,-0.74414 3.74219,-0.0156 3.74023,-0.0156 1.25,2 1.24805,2 h 1.34961 1.34961 l 1.74804,-2.15821 1.74805,-2.16015 1.16211,0.71875 1.16211,0.7168 v 9.2871 9.28516 l 2,1.81055 2,1.81055 v 1.1914 1.19141 l 3.54883,3.65429 3.54687,3.65235 2.20313,0.0156 2.20117,0.0156 1.4668,0.92578 1.46679,0.92773 1.03711,-0.86132 1.03711,-0.85938 3.4961,-0.33203 3.49609,-0.33203 0.30664,-3.17578 0.30859,-3.17578 1.52344,-1.26368 1.52344,-1.26562 1.89648,1.18555 1.89649,1.18359 3.77148,-1.61719 3.77344,-1.61523 1.73633,-0.87891 1.73633,-0.87695 h 4.35742 4.35937 l 1.60743,1.77539 1.60546,1.77344 0.41602,4.97656 0.41602,4.97461 2.88281,1.5 2.88281,1.5 0.36523,0.19922 0.36524,0.19922 0.67773,3.30078 0.67578,3.30078 3.45704,-0.3418 3.45898,-0.33984 1.75,-1.56446 1.75,-1.56445 -0.0195,-1.5957 -0.0195,-1.5957 -2.98047,-4.4004 -2.98242,-4.40039 v -2.66797 -2.66992 l 3,-3.36132 3,-3.35938 v -1.19727 -1.19726 l -1.3125,-1.08985 -1.31446,-1.08984 -3.44726,0.5586 -3.44922,0.56054 -1.85352,-2.04883 -1.85351,-2.04882 0.39062,-6.9043 0.38868,-6.9043 2.72656,-4.11719 2.72461,-4.11914 v -2.02148 -2.02148 h 2.0664 2.06446 l 1.68554,-0.86329 1.6836,-0.86328 4.25,-0.54101 4.25,-0.54102 v 3.80664 3.80664 l 3,1.04688 3,1.04492 v 0.94336 0.94336 l 7.25,0.44922 7.25,0.44922 1.63086,0.7207 1.63086,0.7207 1.11914,-3.21094 1.11914,-3.20898 v -2.52344 -2.52148 l -1.6543,-1.82813 -1.65625,-1.83007 h -1.77344 -1.77344 l -1.57031,-1.57032 -1.57226,-1.57226 0.0293,-3.17774 0.0312,-3.17968 1.36133,-1.79493 1.36328,-1.79687 -0.46289,-1.77344 -0.46484,-1.77344 1.57031,-1.30273 1.56836,-1.30274 v -3.41015 -3.4082 l 1.33008,-3.21876 1.32812,-3.21874 1.28321,-7.57422 1.2832,-7.57422 -4.96289,-5.17578 -4.96094,-5.17578 h -1.33594 -1.33593 l -2.31446,2.17578 -2.31445,2.17382 v 1.75391 1.75391 l -1.60547,1.60547 -1.60547,1.60546 -1.78906,-0.56835 -1.78906,-0.56641 -1.4668,1.4668 -1.4668,1.46679 -0.63867,3.9961 -0.63867,3.99609 -5.64844,1.64258 -5.64843,1.64062 -2.52344,-0.63281 -2.52344,-0.63281 -3.57812,-3.85352 -3.57813,-3.85156 -3.87109,-1.58594 -3.87305,-1.58593 h -1.68555 -1.6875 l -1.80078,-1.31641 -1.79883,-1.31445 -0.17382,-5.74024 -0.17383,-5.74023 -1.4668,-0.92969 -1.46875,-0.92774 -2.62695,-0.0156 -2.62696,-0.0137 -1.20117,-1.44531 -1.19922,-1.44532 -4.67187,-1.53515 -4.67383,-1.53711 -11.82226,-0.23242 -11.82422,-0.23243 -0.41211,-0.66992 -0.41407,-0.66797 2.15625,-2.74023 2.15625,-2.74219 -1.80078,-7.22851 -1.80078,-7.22852 2.19141,-6.582031 2.18945,-6.582031 3.24805,-4.316407 3.24609,-4.314453 2.16797,-3.578125 2.16992,-3.580078 2.52539,-1.148437 2.52344,-1.150391 -0.043,-1.271485 -0.0449,-1.271484 -1.31055,-5 -1.3125,-5 -2.125,-0.318359 -2.12304,-0.316407 -1.96485,-2.496093 -1.96289,-2.496094 -3.47656,0.960937 -3.47852,0.960938 -2.32812,-1.244141 -2.33008,-1.242187 -4.66211,-4.585938 -4.66406,-4.583984 -0.33594,-1.736328 -0.33789,-1.734375 -7.72656,-5.083985 -7.72656,-5.083984 -4.39258,-2.74414 -4.39258,-2.742188 -6.47852,-1.699219 -6.47656,-1.699219 -5.4043,2.615235 -5.40234,2.615234 -1.5,0.195313 -1.5,0.195312 -2,-0.126953 -2,-0.125 -1.25,-2.691406 -1.25,-2.691406 v -1.316407 -1.314453 l -3.25,-1.982422 -3.25,-1.982421 -4.75,-0.002 -4.75,-0.0039 v -0.917969 -0.916015 l 1.25,-0.4355471 1.25,-0.4355469 -3.5,-3.6269531 -3.5,-3.6269531 -1.61328,2.1230468 -1.61133,2.1230469 -1.13867,-0.703125 -1.13672,-0.703125 V 3.0957031 1.2617188 l -1.64453,-0.63085942 z m -65.1543,65.226562 h 51.24219 v 47.593748 h 47.5918 v 51.24024 h -47.5918 v 47.59375 h -51.24219 v -47.59375 h -47.59375 v -51.24024 h 47.59375 z"
       transform="scale(0.26458333)" />
    <text
       xml:space="preserve"
       style="font-style:normal;font-weight:normal;font-size:44.1738px;line-height:1.25;font-family:sans-serif;fill:#000000;fill-opacity:1;stroke:none;stroke-width:1.10435"
       x="149.00977"
       y="38.063286"
       id="text3919"><tspan
         id="tspan3917"
         style="font-style:normal;font-variant:normal;font-weight:normal;font-stretch:normal;font-size:44.1738px;font-family:'Winner Sans';-inkscape-font-specification:'Winner Sans, Normal';font-variant-ligatures:normal;font-variant-caps:normal;font-variant-numeric:normal;font-variant-east-asian:normal;stroke-width:1.10435"
         x="149.00977"
         y="38.063286">SWISS</tspan><tspan
         style="font-style:normal;font-variant:normal;font-weight:normal;font-stretch:normal;font-size:44.1738px;font-family:'Winner Sans';-inkscape-font-specification:'Winner Sans, Normal';font-variant-ligatures:normal;font-variant-caps:normal;font-variant-numeric:normal;font-variant-east-asian:normal;stroke-width:1.10435"
         x="149.00977"
         y="93.28054"
         id="tspan3921" /></text>
    <text
       xml:space="preserve"
       style="font-style:normal;font-weight:normal;font-size:48.9162px;line-height:1.25;font-family:sans-serif;fill:#000000;fill-opacity:1;stroke:none;stroke-width:1.22291"
       x="134.09029"
       y="90.616341"
       id="text21295"
       transform="scale(1.1073575,0.90305073)"><tspan
         id="tspan21293"
         style="font-style:normal;font-variant:normal;font-weight:normal;font-stretch:normal;font-size:48.9162px;font-family:'Winner Sans';-inkscape-font-specification:'Winner Sans, Normal';font-variant-ligatures:normal;font-variant-caps:normal;font-variant-numeric:normal;font-variant-east-asian:normal;stroke-width:1.22291"
         x="134.09029"
         y="90.616341">MADE</tspan></text>
  </g>
  <text
     xml:space="preserve"
     transform="matrix(0.26458333,0,0,0.26458333,10,3)"
     id="text27921"
     style="font-style:normal;font-weight:normal;font-size:40px;line-height:1.25;font-family:sans-serif;white-space:pre;shape-inside:url(#rect27923);fill:#000000;fill-opacity:1;stroke:none" />
  <path
     id="rect28877-5-1"
     style="fill:#ffffff;stroke-width:0.76907;opacity:0.5"
     d="M 261.2207 76.564453 L 261.2207 124.1582 L 213.62695 124.1582 L 213.62695 175.39844 L 261.2207 175.39844 L 261.2207 222.99219 L 312.46289 222.99219 L 312.46289 175.39844 L 360.05469 175.39844 L 360.05469 124.1582 L 312.46289 124.1582 L 312.46289 76.564453 L 261.2207 76.564453 z "
     transform="scale(0.26458333)" />
</svg>
