<?xml version="1.0" encoding="UTF-8" standalone="no"?>
<!-- Created with Inkscape (http://www.inkscape.org/) -->

<svg
   width="131.78706mm"
   height="84.722969mm"
   viewBox="0 0 131.78706 84.722969"
   version="1.1"
   id="svg1137"
   xmlns="http://www.w3.org/2000/svg"
   xmlns:svg="http://www.w3.org/2000/svg">
  <defs
     id="defs1134" />
  <g
     id="layer1"
     transform="translate(-30.966866,-63.91904)">
    <path
       style="fill:#ffcc00;stroke-width:0.264583"
       d="m 119.62833,148.53365 -0.32509,0.10836 v -0.28351 -0.2835 l -1.02225,-0.16347 -1.02225,-0.16346 -0.0127,-0.96414 -0.0127,-0.96414 -0.63396,-1.52193 -0.63397,-1.52193 -1.24152,-0.78735 -1.24152,-0.78735 v -0.39339 -0.39339 l 0.49288,-0.26379 0.49288,-0.26378 0.33232,-0.8023 0.33233,-0.8023 -0.43443,-0.66302 -0.43443,-0.66302 h -0.66467 -0.66466 l -0.63013,-0.41287 -0.63012,-0.41287 -0.48505,0.29855 -0.48504,0.29855 -1.37863,-0.61328 -1.37862,-0.61328 -1.03273,-1.7198 -1.03272,-1.71979 -1.09031,-0.61289 -1.09031,-0.61289 -0.44661,-0.94116 -0.44661,-0.94117 0.3356,-0.82719 0.3356,-0.8272 0.21187,-1.05833 0.21187,-1.05833 -0.17108,-1.7198 -0.17107,-1.71979 -0.6332,-0.0895 -0.6332,-0.0895 -1.6571,0.86748 -1.657096,0.86749 0.133353,0.82176 0.133353,0.82176 -1.118683,0.77525 -1.118684,0.77525 -0.630299,0.99845 -0.630296,0.99846 H 94.70048 93.652259 l -0.414758,0.80205 -0.414756,0.80205 0.937128,1.51827 0.93713,1.51827 v 0.5698 0.56979 l -0.71525,0.85003 -0.715251,0.85002 -0.827164,0.34562 -0.827167,0.34561 -0.350856,0.42275 -0.350856,0.42276 -0.21132,1.33681 -0.211323,1.33681 -0.309052,0.37239 -0.309055,0.37238 h -0.748903 -0.748903 l -0.661159,0.30125 -0.661157,0.30124 -0.409625,0.86322 -0.409626,0.86322 v 0.39473 0.39473 l -0.418515,0.1606 -0.418513,0.1606 h -0.516837 -0.516837 l -0.634407,-0.41568 -0.634405,-0.41568 -0.495337,0.26509 -0.495337,0.2651 -0.72431,-0.90775 -0.72431,-0.90775 h -1.034606 -1.034603 l -0.682617,-0.31102 -0.682617,-0.31102 -0.403169,0.5756 -0.40317,0.57561 h -0.631452 -0.631452 l -0.345733,0.47682 -0.345731,0.47683 -1.280396,0.70837 -1.280396,0.70838 -0.756986,-0.39145 -0.756986,-0.39145 h -0.550608 -0.550612 l -0.15662,0.40814 -0.15662,0.40815 -1.074901,0.54837 -1.074899,0.54838 -1.557984,0.08 -1.557985,0.08 -0.774065,-1.22058 -0.774068,-1.22058 v -0.31268 -0.31267 l -0.396875,-0.32938 -0.396875,-0.32938 v -0.60481 -0.6048 l -1.198491,-1.47128 -1.198491,-1.47127 -0.769851,0.15397 -0.769847,0.15397 0.149148,-1.44512 0.149148,-1.44512 -0.991748,-0.16094 -0.991751,-0.16093 -0.49635,-0.44919 -0.496351,-0.4492 v -0.31025 -0.31025 l 0.686507,-1.69926 0.686504,-1.69926 0.371829,-0.41771 0.371827,-0.41771 v -0.34398 -0.34397 l -0.938186,-1.03846 -0.938186,-1.03846 -0.291338,-0.63942 -0.291338,-0.63942 0.331322,-0.39922 0.331324,-0.39922 0.806559,-0.40236 0.806561,-0.40237 h 0.869775 0.869778 l 0.164984,-0.26695 0.164986,-0.26695 -0.155649,-0.4904 -0.155646,-0.4904 -1.647368,-0.80462 -1.64737,-0.80463 -1.796756,-0.6902 -1.796756,-0.6902 -1.965477,-0.29233 -1.965477,-0.29232 -0.948027,0.17785 -0.948027,0.17785 -0.149384,0.38929 -0.149385,0.38929 -1.093481,0.62967 -1.09348,0.62967 -0.789889,-0.008 -0.789888,-0.008 -0.533028,0.74688 -0.533029,0.74689 -1.462384,1.60129 -1.462385,1.60129 -0.415376,1.19063 -0.415376,1.19062 -0.305052,0.94483 -0.305062,0.94484 v 0.31195 0.31194 h 0.372579 0.37258 l 0.7519,-1.19015 0.751899,-1.19015 0.198437,-5.3e-4 0.198438,-4.2e-4 v 0.60345 0.60345 l 0.79375,0.29961 0.79375,0.29961 v 0.4154 0.4154 l -1.256771,0.63819 -1.256771,0.6382 -0.972828,1.08605 -0.972828,1.08606 h -1.227378 -1.227379 l -0.490113,0.2623 -0.490114,0.2623 -0.798179,-0.15964 -0.79818,-0.15963 0.09105,-1.31683 0.09105,-1.31683 0.589002,-0.62696 0.589001,-0.62696 1.353236,-0.30285 1.353235,-0.30284 v -1.38438 -1.38439 l 0.786454,-1.13485 0.786455,-1.13485 -1.051038,-0.88911 -1.051037,-0.88911 -0.198438,-0.004 -0.198437,-0.004 v -1.17818 -1.17817 l 0.320429,-0.74006 0.320429,-0.74005 0.605613,-0.74791 0.605612,-0.7479 v -0.48056 -0.48056 l -0.396875,-0.15229 -0.396875,-0.1523 0.0052,-0.33903 0.0052,-0.33903 2.177595,-2.02535 2.177595,-2.02535 1.719792,-1.26154 1.719791,-1.26154 0.870891,-0.63757 0.87089,-0.63756 -0.04124,-1.36722 -0.04124,-1.36721 0.343983,-1.10385 0.343983,-1.10386 -0.348382,-1.05561 -0.348382,-1.0556 0.581826,-0.8171 0.581827,-0.817103 h 0.33516 0.335161 l 1.697344,-0.552072 1.697343,-0.552069 1.111062,-1.101576 1.11106,-1.101575 0.160607,-0.634579 0.160605,-0.634579 0.956435,-1.009328 0.956437,-1.009324 1.145333,-0.723961 1.145337,-0.723961 0.0076,-0.410257 0.0076,-0.410261 1.315288,-1.400238 1.315289,-1.400239 0.03564,-0.319553 0.03564,-0.319553 0.0305,-0.79375 0.0305,-0.79375 0.661458,-0.08139 0.661459,-0.08139 0.859895,-0.940015 0.859896,-0.940017 v -0.467553 -0.467556 l -0.404892,-0.336028 -0.404889,-0.336032 -2.013868,0.442516 -2.013866,0.442513 -0.123872,-0.123873 -0.12387,-0.12387 1.373455,-1.847017 1.373454,-1.847017 0.375423,-0.144064 0.375442,-0.144063 V 78.126988 77.22431 l 2.4956,0.03859 2.4956,0.03858 0.216379,0.217281 0.216379,0.217281 v 0.804937 0.804937 l 0.396875,0.199783 0.396875,0.199783 0.694532,0.322255 0.694531,0.322254 0.628385,-0.34102 0.628386,-0.341022 1.470562,0.0544 1.470562,0.0544 0.612317,-0.651783 0.61232,-0.651783 -0.169693,-0.676106 -0.16969,-0.676107 h 0.254008 0.25401 l 0.163521,0.264584 0.16352,0.264583 h 0.471083 0.471082 l 0.307052,-0.673908 0.307054,-0.673908 v -0.601295 -0.601295 l 0.598988,-0.510735 0.59899,-0.510734 0.706078,-0.365886 0.70608,-0.365886 0.406249,0.155893 0.406252,0.155893 0.15638,-0.253028 0.156379,-0.253028 h 0.513554 0.513551 v 0.281978 0.281977 l -0.290412,0.54264 -0.290412,0.542641 0.356557,0.339258 0.356558,0.339258 1.45184,-0.380769 1.451841,-0.380769 0.679304,-0.650815 0.679305,-0.650815 h 0.871556 0.871556 l 0.767837,0.821971 0.767836,0.821971 0.399976,-0.153485 0.399976,-0.153485 1.703414,-0.17452 1.703414,-0.17452 0.588341,-0.626258 0.588338,-0.626258 h 0.313833 0.313833 l 0.896837,-0.60861 0.896837,-0.608611 1.13243,0.107995 1.132427,0.107994 0.379122,0.733137 0.379119,0.733137 0.428299,0.164354 0.4283,0.164354 h 1.94597 1.94597 l 0.0829,-0.859895 0.0829,-0.859896 1.01687,-0.529167 1.01686,-0.529167 0.40447,0.595313 0.40447,0.595312 h 0.33566 0.33565 l 0.1189,-0.859895 0.1189,-0.859896 0.10849,-0.396875 0.10848,-0.396875 -0.99219,-0.08212 -0.99218,-0.08212 v 0.260036 0.260036 l -0.92716,0.30599 -0.92716,0.30599 -0.92493,-0.571633 -0.92492,-0.571635 v -0.77476 -0.77476 l 0.52917,-0.453087 0.52916,-0.453087 v -0.420475 -0.420475 l 0.52745,-0.566145 0.52744,-0.566145 0.95906,-0.264808 0.95906,-0.264809 0.45961,-0.415941 0.45961,-0.415941 0.43513,0.166979 0.43514,0.166978 v 0.485244 0.485245 l 0.30089,0.185958 0.30089,0.18596 0.42671,-0.56165 0.42672,-0.561651 0.92604,0.959484 0.92605,0.959484 -0.33073,0.115329 -0.33073,0.115329 v 0.242535 0.242535 l 1.25677,9.79e-4 1.25677,9.79e-4 0.85989,0.524288 0.8599,0.524289 v 0.348015 0.348016 l 0.33073,0.712142 0.33073,0.712143 0.52917,0.03341 0.52916,0.03341 0.39688,-0.05176 0.39687,-0.05176 1.42955,-0.691904 1.42955,-0.691905 1.71385,0.449509 1.71386,0.449509 1.16233,0.725827 1.16233,0.725827 2.04427,1.345187 2.04426,1.345186 0.0891,0.459185 0.0891,0.459184 1.23383,1.213102 1.23382,1.213101 0.6163,0.328841 0.61631,0.328841 0.92007,-0.254043 0.92007,-0.254044 0.51941,0.660332 0.51942,0.660331 0.56216,0.08386 0.56216,0.08386 0.34693,1.322917 0.34694,1.322916 0.0117,0.336402 0.0117,0.336402 -0.66795,0.30434 -0.66796,0.304342 -0.57391,0.946758 -0.57391,0.946756 -0.85901,1.141844 -0.859,1.141841 -0.57953,1.741472 -0.57952,1.741469 0.4763,1.912715 0.4763,1.912715 -0.57042,0.725176 -0.57043,0.725172 0.10934,0.176906 0.10933,0.176906 3.12821,0.06166 3.1282,0.06166 1.23641,0.406292 1.23641,0.406291 0.31734,0.382373 0.31735,0.382376 0.6952,0.004 0.69521,0.004 0.38839,0.245637 0.38839,0.245634 0.0458,1.5187 0.0458,1.518702 0.4763,0.34828 0.4763,0.34828 h 0.44629 0.44628 l 1.0245,0.4194 1.0245,0.4194 0.94654,1.01931 0.94655,1.01931 0.66779,0.1676 0.6678,0.16761 1.49439,-0.43443 1.49438,-0.43443 0.16908,-1.05735 0.16907,-1.05735 0.3881,-0.3881 0.3881,-0.3881 0.47343,0.15028 0.47341,0.15025 0.42475,-0.42475 0.42476,-0.42476 v -0.46414 -0.46415 l 0.61236,-0.575289 0.61237,-0.575286 h 0.35327 0.35327 l 1.31283,1.369245 1.31282,1.36925 -0.33928,2.00419 -0.33928,2.00419 -0.35168,0.8514 -0.35168,0.85139 v 0.90215 0.90214 l -0.41527,0.34464 -0.41527,0.34465 0.1227,0.4692 0.1227,0.46921 -0.36048,0.47532 -0.36047,0.47532 -0.008,0.84099 -0.008,0.841 0.41578,0.41577 0.41577,0.41578 h 0.46926 0.46926 l 0.43788,0.48385 0.43789,0.48386 v 0.66729 0.66728 l -0.29612,0.84944 -0.29612,0.84944 -0.43149,-0.1908 -0.43148,-0.1908 -1.91823,-0.11891 -1.91823,-0.11891 v -0.24943 -0.24942 l -0.79375,-0.2767 -0.79375,-0.27671 v -1.00727 -1.00728 l -1.12448,0.14304 -1.12448,0.14305 -0.44563,0.22865 -0.44562,0.22866 h -0.54656 -0.54657 v 0.53484 0.53484 l -0.72104,1.08956 -0.72104,1.08957 -0.10322,1.82677 -0.10322,1.82678 0.49046,0.54195 0.49046,0.54196 0.91239,-0.14806 0.91238,-0.14806 0.34746,0.28836 0.34746,0.28837 v 0.31682 0.31683 l -0.79375,0.88905 -0.79375,0.88906 v 0.70628 0.70628 l 0.78893,1.1643 0.78894,1.16429 0.005,0.42202 0.005,0.42201 -0.46302,0.41387 -0.46302,0.41387 -0.91488,0.0902 -0.91488,0.0902 -0.17893,-0.87333 -0.17893,-0.87332 -0.0968,-0.0527 -0.0968,-0.0527 -0.76272,-0.39687 -0.76273,-0.39688 -0.10999,-1.31626 -0.11,-1.31625 -0.42506,-0.46968 -0.42505,-0.46968 h -1.15321 -1.15321 l -0.45943,0.23228 -0.45943,0.23228 -0.99811,0.42772 -0.99811,0.42772 -0.50176,-0.31335 -0.50176,-0.31336 -0.40306,0.33452 -0.40307,0.33451 -0.0814,0.84019 -0.0814,0.8402 -0.92498,0.0878 -0.92498,0.0878 -0.27452,0.22783 -0.27452,0.22784 -0.388,-0.2454 -0.388,-0.2454 -0.58258,-0.004 -0.58257,-0.004 -0.93878,-0.96663 -0.93878,-0.96663 v -0.31528 -0.31528 l -0.52917,-0.47889 -0.52916,-0.47889 v -2.45692 -2.45692 l -0.30743,-0.19 -0.30744,-0.19001 -0.46258,0.57127 -0.46258,0.57126 h -0.35697 -0.35696 l -0.33047,-0.52917 -0.33047,-0.52916 -0.98995,0.004 -0.98994,0.004 -0.30976,0.19704 -0.30975,0.19703 -0.18258,0.72746 -0.18258,0.72745 -0.23527,0.14541 -0.23527,0.1454 v 0.61345 0.61345 l 0.36312,0.30136 0.36312,0.30136 0.18233,1.85037 0.18233,1.85037 -0.57323,1.65098 -0.57323,1.65098 -0.76597,0.97667 -0.76597,0.97667 v 0.23262 0.23262 l -1.68697,1.35186 -1.68697,1.35185 -0.18025,1.20198 -0.18025,1.20199 -0.71247,0.34045 -0.71247,0.34045 -0.15584,1.32038 -0.15584,1.32037 -0.19403,0.43914 -0.19403,0.43915 0.3908,0.75148 0.3908,0.75148 0.68667,0.59357 0.68668,0.59356 -0.0208,0.46477 -0.0208,0.46477 -0.71245,1.17046 -0.71245,1.17045 -0.32509,0.10837 z"
       id="path1300" />
  </g>
</svg>
