<?xml version="1.0" encoding="UTF-8" standalone="no"?>
<svg
   version="1.1"
   x="0px"
   y="0px"
   viewBox="0 0 48.037498 48.03923"
   enable-background="new 0 0 48 48"
   xml:space="preserve"
   id="svg18"
   width="48.037498"
   height="48.03923"
   xmlns="http://www.w3.org/2000/svg"
   xmlns:svg="http://www.w3.org/2000/svg"><defs
     id="defs22" /><g
     id="g12"
     style="fill:#ffcc00"
     transform="translate(0,0.03923048)"><path
       d="m 36.8,15.5 c -0.5,0.3 -0.6,0.9 -0.3,1.4 2,3.1 3.1,6.6 3.1,10.3 C 39.6,37.6 31.2,46 20.8,46 10.4,46 2,37.6 2,27.2 2,16.9 10.4,8.4 20.8,8.4 c 3.7,0 7.3,1.1 10.3,3.1 0.5,0.3 1.1,0.2 1.4,-0.3 0.3,-0.5 0.2,-1.1 -0.3,-1.4 C 28.8,7.6 24.9,6.4 20.8,6.4 9.3,6.4 0,15.8 0,27.2 0,38.7 9.3,48 20.8,48 c 11.5,0 20.8,-9.3 20.8,-20.8 0,-4.1 -1.2,-8 -3.4,-11.4 -0.4,-0.5 -1,-0.6 -1.4,-0.3 z"
       id="path2"
       style="fill:#ffcc00" /><path
       d="m 29.1,14.7 c 0.3,-0.5 0.1,-1.1 -0.4,-1.4 -2.4,-1.4 -5.1,-2.1 -7.9,-2.1 -8.8,0 -16,7.2 -16,16 0,8.8 7.2,16 16,16 8.8,0 16,-7.2 16,-16 0,-2.8 -0.7,-5.5 -2.1,-7.9 -0.3,-0.5 -0.9,-0.6 -1.4,-0.4 -0.5,0.3 -0.6,0.9 -0.4,1.4 1.2,2.1 1.8,4.5 1.8,6.9 0,7.7 -6.3,14 -14,14 -7.7,0 -14,-6.3 -14,-14 0,-7.7 6.3,-14 14,-14 2.4,0 4.8,0.6 6.9,1.8 0.6,0.3 1.2,0.1 1.5,-0.3 z"
       id="path4"
       style="fill:#ffcc00" /><path
       d="m 25.4,18.3 c 0.2,-0.5 0,-1.1 -0.5,-1.3 -1.3,-0.5 -2.6,-0.8 -4,-0.8 -6.1,0 -11,4.9 -11,11 0,6.1 4.9,11 11,11 6.1,0 11,-4.9 11,-11 0,-1.4 -0.3,-2.7 -0.8,-4 -0.2,-0.5 -0.8,-0.8 -1.3,-0.6 -0.5,0.2 -0.8,0.8 -0.6,1.3 0.4,1 0.6,2.1 0.6,3.3 0,5 -4,9 -9,9 -5,0 -9,-4 -9,-9 0,-5 4,-9 9,-9 1.2,0 2.3,0.2 3.3,0.6 0.5,0.2 1.1,0 1.3,-0.5 z"
       id="path6"
       style="fill:#ffcc00" /><path
       d="m 20.2,23.3 c 0.5,-0.1 0.9,-0.6 0.9,-1.1 -0.1,-0.5 -0.6,-0.9 -1.1,-0.9 -2.9,0.4 -5.2,3 -5.2,5.9 0,3.3 2.7,6 6,6 3,0 5.5,-2.2 5.9,-5.1 0.1,-0.5 -0.3,-1.1 -0.9,-1.1 -0.5,-0.1 -1.1,0.3 -1.1,0.9 -0.3,1.9 -2,3.4 -4,3.4 -2.2,0 -4,-1.8 -4,-4 0.1,-2.1 1.6,-3.8 3.5,-4 z"
       id="path8"
       style="fill:#ffcc00" /><path
       d="M 48,6.1 C 47.9,5.7 47.6,5.5 47.2,5.4 L 43.4,4.7 42.7,0.9 C 42.6,0.5 42.3,0.2 42,0 41.6,-0.1 41.3,0 41,0.2 L 35.2,6 C 35,6.2 34.9,6.6 34.9,6.9 l 0.8,4 -15.6,15.6 c -0.4,0.4 -0.4,1 0,1.4 0.2,0.2 0.5,0.3 0.7,0.3 0.3,0 0.5,-0.1 0.7,-0.3 L 37,12.4 c 0,0 4.1,0.8 4.2,0.8 0.3,0 0.5,-0.1 0.7,-0.3 L 47.7,7.1 C 48,6.8 48.1,6.4 48,6.1 Z m -7.2,5 -2.1,-0.4 0.6,-0.6 c 0.4,-0.4 0.4,-1 0,-1.4 -0.4,-0.4 -1,-0.4 -1.4,0 L 37.3,9.3 36.9,7.2 41,3 41.5,5.6 c 0.1,0.4 0.4,0.7 0.8,0.8 L 45,7 Z"
       id="path10"
       style="fill:#ffcc00" /></g></svg>
