<?xml version="1.0" encoding="UTF-8" standalone="no"?>
<!-- Created with Inkscape (http://www.inkscape.org/) -->

<svg
   version="1.1"
   id="svg2"
   width="446.55673"
   height="446.55673"
   viewBox="0 0 446.55673 446.55673"
   xmlns="http://www.w3.org/2000/svg"
   xmlns:svg="http://www.w3.org/2000/svg">
  <style>path{color:#da0}</style>
  <g id="g8" transform="translate(-186.36103,-75.494426)">
    <path
       style="fill:currentColor"
       d="m 423.99999,478.17406 c -55.77766,-4.6711 -97.23929,-15.5313 -135.97506,-35.61646 -35.4576,-18.38538 -61.1554,-40.81985 -81.89775,-71.49765 -22.30263,-32.98544 -25.99371,-74.05966 -9.73889,-108.37393 5.59975,-11.82118 9.15665,-16.96225 18.5603,-26.8267 9.45316,-9.91636 15.57354,-14.46887 27.85819,-20.72166 24.02212,-12.22708 53.37272,-14.248 79.19321,-5.45281 5.225,1.77979 10.22103,3.55057 11.10229,3.93508 1.33222,0.58127 1.70654,-0.27851 2.22084,-5.1012 1.52038,-14.2569 8.65685,-32.89556 17.53625,-45.80031 13.32414,-19.36443 35.79269,-35.08951 58.83706,-41.17834 12.7626,-3.37217 33.13693,-3.78318 46.30356,-0.93408 25.73377,5.56846 48.83347,20.44639 65.02168,41.87881 10.36803,13.72678 20.77478,37.23326 26.52276,59.90892 2.16092,8.52477 5.43094,26.81311 5.44966,30.47851 0.003,0.64642 -2.45403,-0.17854 -5.58796,-1.87595 -3.07662,-1.66637 -9.02279,-4.23206 -13.2137,-5.70153 l -7.61984,-2.67178 -1.70371,-8.45228 c -3.87011,-19.19997 -15.15779,-45.98177 -24.49311,-58.11371 -10.06452,-13.07961 -24.86643,-23.53539 -41.18792,-29.09436 -11.26638,-3.83724 -26.51078,-4.7671 -39.18786,-2.39034 -16.97537,3.18262 -35.40585,14.74712 -46.08121,28.91439 -7.47372,9.91838 -10.18753,15.22962 -13.50163,26.42427 -2.63732,8.90857 -3.42627,20.04582 -2.54533,35.93131 0.40176,7.24483 -1.17417,10.34268 -6.56218,12.89946 -5.07758,2.40947 -9.33724,1.3772 -16.4831,-3.99444 -17.88388,-13.44355 -43.1635,-18.90787 -64.82655,-14.01258 -14.91718,3.3709 -32.81117,13.78289 -41.45138,24.11935 -22.84871,27.33438 -25.81099,65.09486 -7.55841,96.34761 13.51386,23.13893 37.31477,46.56778 63.00979,62.02482 41.07634,24.70979 94.8406,38.90402 154.21573,40.7143 17.54221,0.53484 19.09143,0.43363 24.7077,-1.61417 l 5.99198,-2.18478 5.39931,3.58493 c 2.96961,1.97172 8.39911,4.63316 12.06553,5.9143 l 6.66623,2.32937 -3.28245,2.87399 c -5.45778,4.77864 -12.9023,9.09387 -19.76403,11.45626 -5.45141,1.87683 -9.00047,2.27937 -22,2.49527 -8.525,0.14159 -20.225,-0.13826 -26,-0.62189 z m 71.5,-42.43998 c -9.16182,-3.72102 -14.64181,-10.22158 -23.27467,-27.60921 -12.72622,-25.63218 -17.39806,-43.17689 -17.54971,-65.90645 -0.12417,-18.61249 2.72722,-31.02346 10.67729,-46.47399 11.54166,-22.43057 35.81201,-33.92382 59.00275,-27.94083 16.37462,4.22451 27.54061,13.85449 35.44908,30.57266 4.36186,9.2208 4.87278,9.88738 7.19526,9.38739 1.375,-0.29601 6.325,-0.82194 11,-1.16871 24.22981,-1.7973 46.68334,14.16016 53.5437,38.05285 2.32832,8.10891 1.6051,23.75276 -1.46912,31.77789 -5.05284,13.19029 -18.64219,29.37004 -32.57458,38.78395 -22.29615,15.06518 -51.92827,23.05827 -85.21059,22.98505 -9.09087,-0.02 -11.73397,-0.40736 -16.78941,-2.4606 z"
       />
  </g>
</svg>
