<?xml version="1.0" encoding="UTF-8" standalone="no"?>
<!-- Created with Inkscape (http://www.inkscape.org/) -->

<svg
   version="1.1"
   id="svg2"
   width="592"
   height="592"
   viewBox="0 0 592.00001 592.00002"
   xmlns="http://www.w3.org/2000/svg"
   xmlns:svg="http://www.w3.org/2000/svg">
  <defs
     id="defs6" />
  <g
     id="g8"
     transform="translate(-298.94553,-273.26763)"
     style="fill:#ffcc00">
    <path
       style="fill:#ffcc00;stroke-width:0.472659"
       d="m 581.71357,824.84278 c -35.1674,-1.69911 -72.10599,-11.57358 -102.40888,-27.37603 -10.76423,-5.61336 -12.42565,-6.54227 -18.8421,-10.53488 -54.9277,-34.1784 -95.27332,-87.87924 -112.2682,-149.43126 -11.18088,-40.49492 -12.25316,-84.0462 -3.06028,-124.29512 1.43703,-6.29171 2.24128,-9.33444 4.72062,-17.85968 0.95128,-3.27096 6.31535,-18.60735 7.42963,-21.24201 0.5355,-1.26616 1.1597,-2.1069 1.43702,-1.93555 0.26965,0.16662 0.3536,0.0818 0.18655,-0.18839 -0.35697,-0.57746 0.57869,-3.52264 1.03095,-3.24514 0.16967,0.1041 0.3309,-0.4232 0.3583,-1.1718 0.0636,-1.73814 8.37345,-18.50832 13.44751,-27.13861 19.8543,-33.76942 47.21117,-62.79254 79.39085,-84.22639 12.25823,-8.16482 20.14841,-12.49933 38.47998,-21.13916 7.7439,-3.64977 23.98454,-9.47044 35.02694,-12.55372 31.48582,-8.79153 64.57406,-11.333 97.85166,-7.51587 41.44428,4.75389 80.7498,19.4941 115.10591,43.1666 63.45786,43.72448 104.02205,113.08741 110.34483,188.68447 1.52389,18.21994 1.31518,34.06817 -0.68052,51.67559 -5.34412,47.14924 -24.45308,93.02935 -54.13711,129.98172 -35.51054,44.20554 -82.78896,74.86764 -136.59775,88.58964 -17.7757,4.53304 -33.44172,6.87909 -51.99846,7.78687 -10.86051,0.53131 -13.23551,0.52833 -24.81745,-0.0312 z m 27.65373,-30.22149 c 40.50822,-2.73359 77.75904,-15.40338 111.56036,-37.944 18.30143,-12.20444 36.45107,-28.95845 51.02822,-47.10441 l 3.22712,-4.01714 -0.31506,-8.9795 c -1.11518,-31.7854 -7.16407,-56.03269 -17.89215,-71.72156 -8.68843,-12.70601 -20.70499,-20.28392 -39.12077,-24.67041 -8.45833,-2.01469 -19.28479,-3.35505 -40.18065,-4.97451 -3.50989,-0.27202 -7.26347,-0.61844 -8.34129,-0.76981 l -1.95966,-0.27522 -0.32551,2.05484 c -0.72732,4.5914 -2.2536,8.30679 -5.11533,12.45214 -1.35621,1.96452 -6.73055,7.32537 -7.34381,7.32537 -0.2767,0 -0.67319,0.28699 -0.88111,0.63776 -1.07993,1.82191 -12.45841,8.14157 -13.75985,7.64228 -0.42391,-0.16264 -0.62092,-0.1459 -0.43778,0.0372 1.11396,1.1137 -12.82277,5.6476 -22.34296,7.26862 -9.3252,1.58782 -16.16361,2.04781 -25.99924,1.74888 -17.28473,-0.52534 -30.88418,-3.54794 -43.72598,-9.71849 -13.86692,-6.66312 -22.57306,-15.95303 -24.36962,-26.00367 l -0.60922,-3.40822 -1.69198,0.25773 c -0.93059,0.14175 -6.05276,0.58772 -11.3826,0.99103 -29.38432,2.22355 -42.71989,4.8625 -55.07111,10.89792 -23.95703,11.70658 -35.91806,37.40318 -38.99134,83.76741 -0.26412,3.98466 -0.48022,9.13558 -0.48022,11.4465 v 4.20168 l 3.16537,3.91316 c 23.68234,29.27704 52.63851,51.61939 85.90007,66.27979 32.90363,14.50269 69.95482,21.06032 105.4561,18.66464 z m -3.14939,-185.90563 c 17.11995,-3.73774 33.23417,-14.56134 48.04123,-32.26832 24.83244,-29.6958 41.10939,-73.72815 39.79996,-107.66673 -0.87488,-22.67581 -9.16598,-43.64788 -24.12966,-61.03521 -3.96158,-4.60324 -5.87236,-6.47793 -11.8729,-11.64862 -11.95565,-10.30224 -29.96414,-18.46658 -47.21786,-21.40672 -6.92894,-1.18074 -20.6412,-1.41046 -28.02318,-0.46949 -33.50214,4.27051 -62.20281,24.74202 -76.95947,54.89338 -12.90293,26.36374 -13.41434,55.29507 -1.59439,90.19811 8.48373,25.05155 21.8043,47.67481 37.97997,64.50408 13.13021,13.66075 28.26994,22.50571 43.25366,25.26975 4.98366,0.91933 15.69237,0.72801 20.72264,-0.37023 z"
       id="path37" />
  </g>
</svg>
