<?xml version="1.0" encoding="UTF-8" standalone="no"?>
<svg
   height="48"
   viewBox="0 96 960 960"
   width="48"
   version="1.1"
   id="svg1412"
   xmlns="http://www.w3.org/2000/svg"
   xmlns:svg="http://www.w3.org/2000/svg">
  <defs
     id="defs1416" />
  <path
     d="M345 936q-94 0-159.5-65.5T120 711q0-45 17-86t49-73l270-270q32-32 73-49t86-17q94 0 159.5 65.5T840 441q0 45-17 86t-49 73L504 870q-32 32-73 49t-86 17Zm273-265 114-113q23-23 35.5-53.5T780 441q0-69-48-117t-117-48q-33 0-63.5 12.5T498 324L385 438l233 233ZM345 876q32 0 63-12.5t54-35.5l113-114-233-233-114 113q-23 23-35.5 53.5T180 711q0 69 48 117t117 48Z"
     id="path1410"
     style="fill:#ffcc00" />
</svg>
