<?xml version="1.0" encoding="UTF-8" standalone="no"?>
<!-- Created with Inkscape (http://www.inkscape.org/) -->

<svg
   width="131.73694mm"
   height="129.64734mm"
   viewBox="0 0 131.73694 129.64734"
   version="1.1"
   id="svg7738"
   inkscape:version="1.1 (1:1.1+202105261518+ce6663b3b7)"
   sodipodi:docname="weather-icons.svg"
   xmlns:inkscape="http://www.inkscape.org/namespaces/inkscape"
   xmlns:sodipodi="http://sodipodi.sourceforge.net/DTD/sodipodi-0.dtd"
   xmlns="http://www.w3.org/2000/svg"
   xmlns:svg="http://www.w3.org/2000/svg">
  <sodipodi:namedview
     id="namedview7740"
     pagecolor="#ffffff"
     bordercolor="#666666"
     borderopacity="1.0"
     inkscape:pageshadow="2"
     inkscape:pageopacity="0.0"
     inkscape:pagecheckerboard="0"
     inkscape:document-units="mm"
     showgrid="false"
     fit-margin-top="0"
     fit-margin-left="0"
     fit-margin-right="0"
     fit-margin-bottom="0"
     inkscape:zoom="0.75187991"
     inkscape:cx="303.90491"
     inkscape:cy="348.4599"
     inkscape:window-width="1848"
     inkscape:window-height="1035"
     inkscape:window-x="72"
     inkscape:window-y="27"
     inkscape:window-maximized="1"
     inkscape:current-layer="layer1" />
  <defs
     id="defs7735" />
  <g
     inkscape:label="Layer 1"
     inkscape:groupmode="layer"
     id="layer1">
    <g
       id="g2886"
       transform="matrix(0.26458333,0,0,0.26458333,360.89834,-41.204181)">
      <path
         style="fill:#a4dbee"
         d="m -1174.486,588.83667 c -2.3404,-4.5258 -1.9119,-7.9168 2.0387,-16.1327 l 3.5929,-7.4718 2.4043,4.7067 c 1.3224,2.5887 3.1065,6.7747 3.9646,9.3023 1.4492,4.2684 1.4316,4.8587 -0.2472,8.2933 -1.6042,3.282 -2.2791,3.732 -6.0033,4.0026 -3.7879,0.2752 -4.3471,0.013 -5.75,-2.7004 z"
         id="path1531" />
      <path
         style="fill:#a4dbee"
         d="m -1217.2029,596.10347 c -2.1027,-0.6125 -4.8372,-6.2834 -4.8372,-10.0314 0,-1.5717 1.9354,-6.8426 4.3008,-11.7129 l 4.3008,-8.8552 4.1992,8.6704 c 4.6702,9.643 5.392,15.4502 2.4029,19.334 -1.745,2.2673 -6.9869,3.5795 -10.3665,2.5951 z"
         id="path1527" />
      <path
         style="fill:#a4dbee"
         d="m -1192.7971,608.57527 c -1.8681,-1.8682 -1.5003,-6.4183 0.899,-11.1213 l 2.1419,-4.1985 2.5569,5.222 c 2.0625,4.2124 2.3698,5.7569 1.5896,7.9884 -1.0733,3.07 -5.0575,4.2392 -7.1874,2.1094 z"
         id="path1493" />
      <path
         style="fill:#a4dbee"
         d="m -1207.4686,629.16087 c -2.0964,-2.0963 -1.9252,-4.0797 0.8019,-9.2918 l 2.2829,-4.3633 2.1684,5.0406 c 2.1095,4.9036 2.0305,7.8579 -0.2517,9.4207 -1.688,1.1558 -3.2993,0.8961 -5.0015,-0.8062 z"
         id="path1465" />
      <path
         style="fill:#a4dbee"
         d="m -1174.679,633.98797 c -3.2231,-3.4778 -2.8085,-6.7033 2.2058,-17.1597 l 3.6425,-7.5959 3.8953,7.9064 c 4.0507,8.2217 4.6717,11.7956 2.7734,15.9618 -2.0167,4.4263 -8.792,4.9067 -12.517,0.8874 z"
         id="path1463" />
    </g>
    <g
       id="g2644"
       transform="matrix(0.26458333,0,0,0.26458333,360.89834,-41.204181)">
      <path
         style="fill:#f2ae4b"
         d="m -1329.0401,161.73234 c 0,-5.33333 0.2223,-6 2,-6 1.7778,0 2,0.66667 2,6 0,5.33333 -0.2222,6 -2,6 -1.7777,0 -2,-0.66667 -2,-6 z"
         id="path1131" />
      <path
         style="fill:#f2ae4b"
         d="m -1313.0401,172.42851 c 0,-1.58639 6.1435,-7.69617 7.7386,-7.69617 2.6066,0 2.1468,2.18129 -1.156,5.48413 -3.5691,3.56911 -6.5826,4.58176 -6.5826,2.21204 z"
         id="path1127" />
      <path
         style="fill:#f2ae4b"
         d="m -1347.8373,170.14456 c -3.1995,-3.34803 -3.4854,-5.41222 -0.7495,-5.41222 1.9249,0 7.5467,5.51344 7.5467,7.40121 0,2.64432 -3.2893,1.68182 -6.7972,-1.98899 z"
         id="path1125" />
      <path
         style="fill:#f2ae4b"
         d="m -1306.8537,187.98234 c 0.2627,-1.38044 1.5453,-1.81333 6.0734,-2.0499 5.2177,-0.27261 5.7402,-0.1133 5.7402,1.75 0,1.84152 -0.6173,2.0499 -6.0733,2.0499 -5.2443,0 -6.0279,-0.23887 -5.7403,-1.75 z"
         id="path1119" />
      <path
         style="fill:#f2ae4b"
         d="m -1359.0401,187.68244 c 0,-1.8633 0.5226,-2.02261 5.7403,-1.75 4.5281,0.23657 5.8106,0.66946 6.0733,2.0499 0.2876,1.51113 -0.4959,1.75 -5.7402,1.75 -5.456,0 -6.0734,-0.20838 -6.0734,-2.0499 z"
         id="path1117" />
      <path
         style="fill:#f2ae4b"
         d="m -1334.8024,201.15884 c -6.848,-4.10427 -10.1808,-13.00878 -6.9877,-18.6697 2.0273,-3.59399 7.4219,-8.7568 9.15,-8.7568 0.88,0 1.6,-0.45 1.6,-1 0,-0.55 1.8,-1 4,-1 2.2,0 4,0.45 4,1 0,0.55 0.7875,1.01001 1.75,1.02224 4.1675,0.053 10.2399,8.17279 10.2463,13.70101 0.01,5.64821 -3.7269,11.74736 -8.6571,14.14264 -5.7666,2.80164 -9.8942,2.68155 -15.1015,-0.43939 z"
         id="path1111" />
      <path
         style="fill:#f2ae4b"
         d="m -1309.7901,208.19202 c -6.098,-6.3848 -2.882,-9.15844 3.3699,-2.90645 2.0742,2.07422 3.3222,4.15544 2.9981,5 -0.8653,2.2549 -2.8325,1.60814 -6.368,-2.09355 z"
         id="path1109" />
      <path
         style="fill:#f2ae4b"
         d="m -1350.0401,209.92851 c 0,-1.99531 5.8994,-8.19617 7.7976,-8.19617 2.2652,0 1.2023,3.06681 -2.2642,6.53333 -3.8594,3.8594 -5.5334,4.36244 -5.5334,1.66284 z"
         id="path1107" />
      <path
         style="fill:#f2ae4b"
         d="m -1327.8561,219.84605 c -1.9294,-1.19242 -1.1971,-11.61371 0.816,-11.61371 1.11,0 1.5799,1.4024 1.8073,5.39279 0.3234,5.67824 -0.4673,7.5534 -2.6233,6.22092 z"
         id="path1103" />
    </g>
    <g
       id="g2890"
       transform="matrix(0.26458333,0,0,0.26458333,360.89834,-41.204181)">
      <path
         style="fill:#a4dbee"
         d="m -1036.3552,592.28657 c 0.4979,-3.068 0.1552,-4.1119 -2.1344,-6.5017 l -2.7276,-2.847 3.9973,-0.6753 c 3.1718,-0.5359 4.2476,-1.2799 5.2099,-3.6029 1.5305,-3.6951 2.4648,-3.69 4.1079,0.022 1.0092,2.28 2.1644,3.0947 5.0887,3.5888 l 3.7832,0.6391 -2.0049,2.8157 c -1.1409,1.6022 -2.005,4.4155 -2.005,6.5279 0,3.4042 -0.1866,3.6503 -2.25,2.9658 -2.8587,-0.9484 -6.6296,-0.9532 -9.4541,-0.012 -2.065,0.6881 -2.1667,0.5038 -1.611,-2.9204 z"
         id="path1529" />
      <path
         style="fill:#f2ae4b"
         d="m -1057.0401,622.54477 c -1.375,-0.5787 -3.625,-1.5483 -5,-2.1548 -1.375,-0.6065 -4.8842,-3.4308 -7.7982,-6.2762 -6.2551,-6.1079 -9.2018,-13.0152 -9.2018,-21.5703 0,-5.3043 0.4292,-7.0864 3.326,-13.8111 1.4172,-3.2901 11.2579,-13 13.1751,-13 0.8244,0 1.4989,-0.3782 1.4989,-0.8403 0,-0.4622 2.3919,-1.4141 5.3153,-2.1154 7.7172,-1.8513 18.3664,-0.3504 22.0833,3.1124 1.9409,1.8082 1.8786,1.8433 -3.2757,1.8433 -6.2521,0 -8.3203,0.9699 -13.644,6.3992 -8.7679,8.9416 -8.6782,20.1228 0.2346,29.2311 4.4056,4.5023 9.0146,6.3697 15.7214,6.3697 4.5187,0 11.9612,-2.959 13.7608,-5.4711 0.3846,-0.5368 1.0553,-0.5874 1.5,-0.1131 0.4424,0.4719 0.2418,1.0589 -0.4457,1.3044 -0.6875,0.2455 -1.2603,1.1964 -1.2729,2.1131 -0.027,1.9791 -9.4047,11.2395 -12.9771,12.815 -6.5689,2.8972 -8.5268,3.3469 -14.297,3.284 -3.4116,-0.037 -7.328,-0.5412 -8.703,-1.1199 z"
         id="path873" />
    </g>
    <g
       id="g2633"
       transform="matrix(0.26458333,0,0,0.26458333,360.89834,-41.204181)">
      <path
         style="fill:#a4dbee"
         d="m -1174.4758,182.02582 c -0.5427,-1.4252 -0.4278,-1.54006 0.5598,-0.5598 0.6834,0.67834 0.9907,1.48524 0.6828,1.79313 -0.3079,0.30789 -0.867,-0.24711 -1.2426,-1.23333 z"
         id="path1967" />
      <path
         style="fill:#a4dbee"
         d="m -1171.8902,190.06448 c -0.082,-1.19252 -0.4411,-2.99252 -0.797,-4 -0.4978,-1.40881 -0.3643,-1.57128 0.5781,-0.70361 0.674,0.6205 1.0326,2.4205 0.797,4 -0.3018,2.02337 -0.4726,2.23124 -0.5781,0.70361 z"
         id="path1961" />
      <path
         style="fill:#a4dbee"
         d="m -1167.0401,192.73269 c -1.2927,-0.8354 -1.2663,-0.97149 0.191,-0.98469 0.9301,-0.008 1.9691,0.43469 2.309,0.98469 0.7822,1.2656 -0.5416,1.2656 -2.5,0 z"
         id="path1953" />
      <path
         style="fill:#a4dbee"
         d="m -1158.0401,200.97608 c 0,-0.59947 -1.216,-2.53515 -2.7023,-4.30152 -2.2431,-2.6658 -2.3402,-2.98539 -0.5712,-1.88062 2.234,1.39516 4.7335,5.81215 3.811,6.73464 -0.2956,0.2956 -0.5375,0.047 -0.5375,-0.5525 z"
         id="path1941" />
      <path
         style="fill:#a4dbee"
         d="m -1156.9698,206.98269 c 0.053,-2.85641 0.255,-3.27723 0.8452,-1.76597 0.7145,1.82931 0.3588,5.51597 -0.5321,5.51597 -0.2108,0 -0.3517,-1.6875 -0.3131,-3.75 z"
         id="path1933" />
      <path
         style="fill:#a4dbee"
         d="m -1224.657,208.89819 c -0.4816,-2.40818 -1.3029,-3.02316 -5.4608,-4.08878 -9.6931,-2.48427 -13.9178,-12.73257 -9.5252,-23.10616 0.875,-2.06626 5.1761,-5.24012 8.8221,-6.50985 2.2936,-0.79876 3.3658,-2.1181 4.6326,-5.70045 3.2662,-9.23658 9.3197,-13.75064 18.4479,-13.75652 3.1898,-0.002 7.0148,0.63109 8.5,1.40698 4.4644,2.33232 10.2003,9.68515 10.2003,13.07571 0,0.83246 0.693,1.51357 1.5399,1.51357 2.4261,0 8.7635,3.55469 10.953,6.14359 l 1.9928,2.35641 -2.5893,-2.28011 c -3.0802,-2.71231 -12.217,-6.21989 -16.2021,-6.21989 -3.3015,0 -10.6977,4.7898 -13.5149,8.75233 -1.0745,1.51122 -2.5256,4.66017 -3.2248,6.99767 -0.9893,3.30776 -1.7534,4.25 -3.4462,4.25 -1.1963,0 -3.9376,1.52354 -6.0918,3.38564 -3.8194,3.30168 -3.9166,3.54968 -3.9166,10 0,3.6379 -0.1237,6.61436 -0.275,6.61436 -0.1512,0 -0.5301,-1.27553 -0.8419,-2.8345 z"
         id="path1931" />
      <path
         style="fill:#a4dbee"
         d="m -1223.0401,214.67367 c 0,-0.58246 0.45,-0.7809 1,-0.44098 0.55,0.33992 1,0.81648 1,1.05902 0,0.24254 -0.45,0.44098 -1,0.44098 -0.55,0 -1,-0.47656 -1,-1.05902 z"
         id="path1925" />
      <path
         style="fill:#a4dbee"
         d="m -1164.2809,219.73809 c 1.7925,-1.09292 4.1533,-3.45373 5.2462,-5.24626 1.093,-1.79253 1.9888,-2.83699 1.9909,-2.32102 0.01,1.81995 -4.4887,7.46521 -6.775,8.50693 -3.738,1.70312 -3.9822,1.20655 -0.4621,-0.93965 z"
         id="path1917" />
      <path
         style="fill:#a4dbee"
         d="m -1216.7901,220.5122 c -1.2375,-0.59683 -2.25,-1.47675 -2.25,-1.95538 0,-0.68879 3.0559,0.79519 5.9167,2.87321 0.9986,0.72539 -1.6171,0.0706 -3.6667,-0.91783 z"
         id="path1915" />
      <path
         style="fill:#a4dbee"
         d="m -1201.8455,221.98704 c 5.882,-0.17649 15.782,-0.17711 22,-0.001 6.218,0.17574 1.4054,0.32014 -10.6946,0.32089 -12.1,7.6e-4 -17.1874,-0.14302 -11.3054,-0.31951 z"
         id="path1913" />
      <path
         style="fill:#44bbe7"
         d="m -1216.5864,219.28761 c -5.3767,-3.22329 -6.9537,-6.47108 -6.9537,-14.32104 0,-6.27424 0.1144,-6.56183 3.9166,-9.84861 2.1542,-1.8621 4.8955,-3.38564 6.0918,-3.38564 1.6928,0 2.4569,-0.94224 3.4462,-4.25 0.6992,-2.3375 2.1503,-5.48645 3.2248,-6.99767 2.8172,-3.96253 10.2134,-8.75233 13.5149,-8.75233 3.6756,0 12.993,3.41621 15.5744,5.71038 2.3826,2.11734 5.6782,8.94112 5.7094,11.8213 0.016,1.53065 1.1076,2.35225 4.4242,3.33153 12.5427,3.70341 14.5942,20.29073 3.3569,27.14219 -2.998,1.8279 -5.0621,1.98667 -25.7592,1.9814 -22.0327,-0.006 -22.584,-0.0561 -26.5463,-2.43151 z"
         id="path1294" />
    </g>
    <g
       id="g2596"
       transform="matrix(0.26458333,0,0,0.26458333,360.89834,-41.204181)">
      <path
         style="fill:#a4dbee"
         d="m -915.79006,177.04336 c 0.9625,-0.25153 2.5375,-0.25153 3.5,0 0.9625,0.25152 0.175,0.45732 -1.75,0.45732 -1.925,0 -2.7125,-0.20579 -1.75,-0.45732 z"
         id="path1979" />
      <path
         style="fill:#a4dbee"
         d="m -907.54006,178.73269 c -1.63041,-0.70061 -1.68751,-0.87242 -0.30902,-0.92971 0.93004,-0.0387 1.9691,0.37971 2.30902,0.92971 0.71066,1.14988 0.67591,1.14988 -2,0 z"
         id="path1975" />
      <path
         style="fill:#a4dbee"
         d="m -929.54006,184.73269 c 0.99549,-1.1 2.03498,-2 2.30998,-2 0.275,0 -0.31449,0.9 -1.30998,2 -0.99549,1.1 -2.03498,2 -2.30998,2 -0.275,0 0.31449,-0.9 1.30998,-2 z"
         id="path1965" />
      <path
         style="fill:#a4dbee"
         d="m -897.2158,188.68652 c -0.92165,-2.17461 -1.49571,-3.95383 -1.27568,-3.95383 0.73346,0 3.57766,6.122 3.26216,7.02162 -0.17091,0.48732 -1.06482,-0.89319 -1.98648,-3.06779 z"
         id="path1959" />
      <path
         style="fill:#a4dbee"
         d="m -933.04006,191.79171 c 0,-1.06754 0.38499,-2.17893 0.85554,-2.46974 0.47055,-0.29082 0.64309,0.58263 0.38343,1.94098 -0.56402,2.95046 -1.23897,3.23851 -1.23897,0.52876 z"
         id="path1957" />
      <path
         style="fill:#a4dbee"
         d="m -935.22756,196.04961 c 0.72187,-0.28887 1.58438,-0.25335 1.91667,0.0789 0.33229,0.3323 -0.25834,0.56864 -1.3125,0.52522 -1.16495,-0.048 -1.4019,-0.28494 -0.60417,-0.60416 z"
         id="path1951" />
      <path
         style="fill:#a4dbee"
         d="m -893.54006,196.73269 c -1.92824,-0.82859 -1.92138,-0.86195 0.19098,-0.92971 1.20504,-0.0387 2.4691,0.37971 2.80902,0.92971 0.731,1.18278 -0.24752,1.18278 -3,0 z"
         id="path1947" />
      <path
         style="fill:#a4dbee"
         d="m -888.04006,198.73269 c -0.90129,-0.58246 -1.02463,-0.97549 -0.30902,-0.98469 0.65504,-0.008 1.4691,0.43469 1.80902,0.98469 0.7673,1.24153 0.42112,1.24153 -1.5,0 z"
         id="path1945" />
      <path
         style="fill:#a4dbee"
         d="m -882.47577,204.02582 c -0.54268,-1.4252 -0.42782,-1.54006 0.5598,-0.5598 0.68342,0.67834 0.99067,1.48524 0.68278,1.79313 -0.30789,0.30789 -0.86705,-0.24711 -1.24258,-1.23333 z"
         id="path1939" />
      <path
         style="fill:#a4dbee"
         d="m -947.00838,205.09905 c -0.0407,-1.45718 7.57911,-8.36754 9.2212,-8.36262 0.68592,0.002 -0.13935,0.8492 -1.83392,1.88255 -1.69457,1.03334 -4.04281,3.16916 -5.21832,4.74626 -1.1755,1.5771 -2.15154,2.35731 -2.16896,1.73381 z"
         id="path1937" />
      <path
         style="fill:#a4dbee"
         d="m -947.7677,211.73269 c 0,-2.475 0.19502,-3.4875 0.43337,-2.25 0.23836,1.2375 0.23836,3.2625 0,4.5 -0.23835,1.2375 -0.43337,0.225 -0.43337,-2.25 z"
         id="path1929" />
      <path
         style="fill:#a4dbee"
         d="m -947.04006,218.23269 c 0,-0.825 0.17686,-1.5 0.39301,-1.5 0.21616,0 0.65203,0.675 0.96862,1.5 0.31658,0.825 0.13972,1.5 -0.39301,1.5 -0.53274,0 -0.96862,-0.675 -0.96862,-1.5 z"
         id="path1921" />
      <path
         style="fill:#a4dbee"
         d="m -885.04006,222.79171 c 0,-0.58246 0.41278,-1.05902 0.91729,-1.05902 1.65243,0 4.37484,-8.78935 3.7265,-12.03105 -0.38096,-1.90478 -0.24016,-2.83753 0.37127,-2.45964 1.65229,1.02117 1.10024,7.34437 -1.00077,11.46268 -2.02499,3.96931 -4.01429,5.99465 -4.01429,4.08703 z"
         id="path1911" />
      <path
         style="fill:#a4dbee"
         d="m -943.11575,223.07433 -2.42431,-2.65836 3.25,2.34642 c 3.38058,2.44069 3.81284,2.9703 2.42431,2.9703 -0.45412,0 -1.91662,-1.19626 -3.25,-2.65836 z"
         id="path1907" />
      <path
         style="fill:#a4dbee"
         d="m -942.45954,242.86297 c -0.29563,-0.47834 1.45387,-3.96476 3.88779,-7.7476 4.10707,-6.38329 4.2853,-6.92968 2.4785,-7.59806 -2.68282,-0.99244 -2.45574,-1.94679 0.30319,-1.27423 1.87879,0.45801 2.82744,-0.36291 5.75,-4.97578 1.925,-3.03836 4.03594,-5.52661 4.69098,-5.52945 2.38047,-0.0103 2.32789,2.00469 -0.15495,5.93777 -1.39482,2.20953 -2.53603,4.27479 -2.53603,4.58946 0,0.31467 2.29164,0.43611 5.09254,0.26987 l 5.09254,-0.30226 5.4861,-9 c 6.6427,-10.89741 7.89815,-12.33067 9.44551,-10.78331 0.84131,0.84131 -0.30098,3.51966 -4.45986,10.45715 l -5.59084,9.32616 5.51514,0.30134 c 4.69229,0.25638 5.78219,-0.0285 7.30505,-1.90911 1.87969,-2.32132 4.11382,-1.89876 4.11382,0.77808 0,1.24234 0.74874,1.42281 3.75,0.90388 2.70611,-0.4679 3.33245,-0.36396 2.25,0.3734 -0.825,0.56198 -2.97662,1.02868 -4.78138,1.0371 -2.20292,0.0103 -3.4936,0.59047 -3.92706,1.76531 -0.35512,0.9625 -0.91487,1.975 -1.24388,2.25 -0.32902,0.275 -2.14442,3.0875 -4.03423,6.25 -2.13709,3.5763 -4.11222,5.75 -5.22474,5.75 -2.28927,0 -2.26749,-1.50754 0.07,-4.84563 1.0223,-1.4599 3.05295,-4.56687 4.51254,-6.90437 l 2.65382,-4.25 h -5.9641 -5.96409 l -4.54845,7.03118 c -2.50165,3.86715 -4.54845,7.46715 -4.54845,8 0,0.53285 -0.9,0.96882 -2,0.96882 -2.79027,0 -2.51221,-2.3889 0.852,-7.31982 1.56861,-2.2991 3.38444,-5.19268 4.03519,-6.43018 1.15687,-2.19997 1.06567,-2.24942 -4.10201,-2.22407 l -5.28518,0.0259 -4.82602,7.97407 c -4.44621,7.34649 -6.71369,9.33686 -8.09346,7.10435 z"
         id="path1901" />
      <path
         style="fill:#44bbe7"
         d="m -939.05566,224.88071 c -5.30214,-2.81756 -7.9844,-7.4381 -7.9844,-13.75417 0,-4.79021 0.37572,-5.70497 3.83815,-9.34474 2.18133,-2.29306 5.17141,-4.30139 6.92673,-4.65246 2.68664,-0.53732 3.23573,-1.22151 4.21932,-5.25737 3.33896,-13.7005 20.1178,-18.83758 30.7486,-9.41412 2.37008,2.10091 6.20847,9.7013 6.24524,12.36618 0.0135,0.98171 1.55201,2.05013 4.01437,2.78787 8.00473,2.39827 12.44637,10.37483 10.11328,18.16198 -1.46461,4.88844 -6.03199,9.4937 -10.25284,10.33787 -4.39061,0.87812 -4.85285,0.79998 -4.85285,-0.82041 0,-2.57892 -2.26782,-2.9465 -4.11382,-0.66679 -1.52286,1.88066 -2.61276,2.16549 -7.30505,1.90911 l -5.51514,-0.30134 5.59084,-9.32616 c 4.15888,-6.93749 5.30117,-9.61584 4.45986,-10.45715 -1.54736,-1.54736 -2.80281,-0.1141 -9.44551,10.78331 l -5.4861,9 -5.09254,0.30226 c -2.8009,0.16624 -5.09254,0.0448 -5.09254,-0.26987 0,-0.31467 1.14121,-2.37993 2.53603,-4.58946 2.48284,-3.93308 2.53542,-5.94809 0.15495,-5.93777 -0.65504,0.003 -2.76598,2.47552 -4.69098,5.49484 -1.925,3.01932 -3.95702,5.492 -4.5156,5.49484 -0.55858,0.003 -2.58358,-0.82807 -4.5,-1.84645 z"
         id="path1292" />
    </g>
    <g
       id="g2620"
       transform="matrix(0.26458333,0,0,0.26458333,360.89834,-41.204181)">
      <path
         style="fill:#a4dbee"
         d="m -1052.2901,177.02696 c 1.2375,-0.23836 3.2625,-0.23836 4.5,0 1.2375,0.23835 0.225,0.43337 -2.25,0.43337 -2.475,0 -3.4875,-0.19502 -2.25,-0.43337 z"
         id="path1977" />
      <path
         style="fill:#a4dbee"
         d="m -1043.0401,178.73269 c -0.9013,-0.58246 -1.0246,-0.97549 -0.309,-0.98469 0.6551,-0.008 1.4691,0.43469 1.809,0.98469 0.7673,1.24153 0.4212,1.24153 -1.5,0 z"
         id="path1973" />
      <path
         style="fill:#a4dbee"
         d="m -1058.5401,178.73269 c 0.34,-0.55 1.0681,-1 1.6181,-1 0.55,0 0.7219,0.45 0.3819,1 -0.3399,0.55 -1.068,1 -1.618,1 -0.55,0 -0.7219,-0.45 -0.382,-1 z"
         id="path1971" />
      <path
         style="fill:#a4dbee"
         d="m -1063.0401,180.89936 c 0,-0.45834 0.6552,-0.83334 1.456,-0.83334 0.8009,0 1.2243,0.375 0.941,0.83334 -0.2832,0.45833 -0.9384,0.83333 -1.456,0.83333 -0.5175,0 -0.941,-0.375 -0.941,-0.83333 z"
         id="path1969" />
      <path
         style="fill:#a4dbee"
         d="m -1035.4341,184.88475 -1.8941,-2.65206 2.3385,2.22222 c 1.2862,1.22222 2.1385,2.41565 1.8941,2.65206 -0.2445,0.23641 -1.2968,-0.76359 -2.3385,-2.22222 z"
         id="path1963" />
      <path
         style="fill:#a4dbee"
         d="m -1031.9241,193.06448 c -0.064,-0.64252 -0.4072,-1.99252 -0.7631,-3 -0.5022,-1.42127 -0.3691,-1.57546 0.5937,-0.68801 0.6826,0.62908 1.026,1.97908 0.7632,3 -0.2628,1.02092 -0.53,1.33052 -0.5938,0.68801 z"
         id="path1955" />
      <path
         style="fill:#a4dbee"
         d="m -1074.2901,196.07041 c 0.6875,-0.27741 1.8125,-0.27741 2.5,0 0.6875,0.27741 0.125,0.50439 -1.25,0.50439 -1.375,0 -1.9375,-0.22698 -1.25,-0.50439 z"
         id="path1949" />
      <path
         style="fill:#a4dbee"
         d="m -1021.0401,200.80258 c 0,-0.51157 -2.3625,-1.83812 -5.25,-2.9479 -2.8875,-1.10978 -4.4445,-2.04123 -3.4601,-2.06988 0.9844,-0.0287 3.5414,0.84146 5.6821,1.9336 3.9693,2.02499 5.9947,4.01429 4.0871,4.01429 -0.5825,0 -1.0591,-0.41855 -1.0591,-0.93011 z"
         id="path1943" />
      <path
         style="fill:#a4dbee"
         d="m -1018.4758,204.02582 c -0.5427,-1.4252 -0.4278,-1.54006 0.5598,-0.5598 0.6835,0.67834 0.9907,1.48524 0.6828,1.79313 -0.3079,0.30789 -0.867,-0.24711 -1.2426,-1.23333 z"
         id="path1935" />
      <path
         style="fill:#a4dbee"
         d="m -1083.7677,211.73269 c 0,-2.475 0.195,-3.4875 0.4334,-2.25 0.2383,1.2375 0.2383,3.2625 0,4.5 -0.2384,1.2375 -0.4334,0.225 -0.4334,-2.25 z"
         id="path1927" />
      <path
         style="fill:#a4dbee"
         d="m -1016.7607,211.73269 c 0,-4.72387 0.1332,-5.11194 0.9437,-2.75 0.5915,1.72387 0.5915,3.77613 0,5.5 -0.8105,2.36194 -0.9437,1.97387 -0.9437,-2.75 z"
         id="path1923" />
      <path
         style="fill:#a4dbee"
         d="m -1083.0401,218.67367 c 0,-0.58246 0.45,-0.7809 1,-0.44098 0.55,0.33992 1,0.81648 1,1.05902 0,0.24254 -0.45,0.44098 -1,0.44098 -0.55,0 -1,-0.47656 -1,-1.05902 z"
         id="path1919" />
      <path
         style="fill:#a4dbee"
         d="m -1020.9956,223.23269 c 0,-0.55 0.88,-2.125 1.9555,-3.5 1.0756,-1.375 1.9556,-2.05 1.9556,-1.5 0,0.55 -0.88,2.125 -1.9556,3.5 -1.0755,1.375 -1.9555,2.05 -1.9555,1.5 z"
         id="path1909" />
      <path
         style="fill:#a4dbee"
         d="m -1079.1158,223.07433 -2.4243,-2.65836 3.25,2.34642 c 3.3806,2.44069 3.8129,2.9703 2.4243,2.9703 -0.4541,0 -1.9166,-1.19626 -3.25,-2.65836 z"
         id="path1905" />
      <path
         style="fill:#a4dbee"
         d="m -1072.2618,226.9124 c -0.9469,-0.37384 8.0706,-0.53671 20.039,-0.36193 17.0658,0.24923 22.6692,0.005 25.9717,-1.13303 4.9185,-1.69454 5.4367,-1.36995 1.2607,0.78957 -2.3878,1.23478 -7.0115,1.51228 -24.25,1.45539 -11.7148,-0.0386 -22.0744,-0.37615 -23.0214,-0.75 z"
         id="path1903" />
      <path
         style="fill:#f2ae4b"
         d="m -1075.7901,170.01406 c -1.6215,-0.58167 -1.6616,-9.47006 -0.05,-11.08172 2.2176,-2.21758 2.8,-1.23141 2.8,4.74098 0,6.01611 -0.492,7.15068 -2.75,6.34074 z"
         id="path1129" />
      <path
         style="fill:#f2ae4b"
         d="m -1061.0401,175.46041 c 0,-1.81674 6.4815,-7.72807 8.4734,-7.72807 2.264,0 1.8627,1.60945 -1.2234,4.90601 -3.1987,3.41693 -7.25,4.99387 -7.25,2.82206 z"
         id="path1123" />
      <path
         style="fill:#f2ae4b"
         d="m -1094.5067,173.19901 c -3.9087,-3.90866 -4.4252,-5.48277 -1.7834,-5.43507 2.5476,0.046 7.25,4.53472 7.25,6.92043 0,2.93439 -1.4375,2.54381 -5.4666,-1.48536 z"
         id="path1121" />
      <path
         style="fill:#f2ae4b"
         d="m -1106.3285,192.11059 c -0.3914,-0.39137 -0.7116,-1.31158 -0.7116,-2.04492 0,-0.96475 1.6789,-1.33333 6.0734,-1.33333 5.2441,0 6.0279,0.23891 5.7406,1.75 -0.2548,1.34041 -1.5097,1.81903 -5.3617,2.04492 -2.766,0.16221 -5.3493,-0.0253 -5.7407,-0.41667 z"
         id="path1115" />
      <path
         style="fill:#f2ae4b"
         d="m -1085.8287,201.71461 c -1.1912,-1.10976 -2.8605,-4.40728 -3.7095,-7.32784 -1.3894,-4.77951 -1.3901,-5.67771 -0.01,-8.98913 2.2238,-5.32231 6.8133,-9.29914 11.6185,-10.06752 4.459,-0.7131 10.8856,0.14063 10.8856,1.44612 0,0.45173 0.9,1.10697 2,1.4561 1.2059,0.38273 2,1.51303 2,2.84663 0,1.21652 -0.9,2.86054 -2,3.65337 -1.1,0.79283 -2,2.24218 -2,3.22076 0,0.97858 -0.45,1.77924 -1,1.77924 -0.55,0 -1,1.35 -1,3 0,2.71481 -0.3089,3.00146 -3.25,3.01531 -2.4662,0.0116 -2.8882,0.24909 -1.75,0.98469 1.2654,0.81774 1.2108,0.97177 -0.3488,0.98469 -1.0168,0.008 -3.1098,1.36531 -4.6512,3.01531 -3.3137,3.54737 -3.9383,3.63775 -6.7886,0.98227 z"
         id="path1113" />
      <path
         style="fill:#f2ae4b"
         d="m -1098.0401,212.43529 c 0,-1.3323 7.0228,-8.70295 8.2922,-8.70295 1.7381,0 0.4589,4.65037 -1.9793,7.19528 -2.7944,2.91676 -6.3129,3.75705 -6.3129,1.50767 z"
         id="path1105" />
      <path
         style="fill:#44bbe7"
         d="m -1072.8701,226.04953 c -1.2815,-0.26251 -4.094,-2.24127 -6.25,-4.39725 -3.6209,-3.62088 -3.92,-4.34461 -3.92,-9.4857 0,-3.06116 0.5076,-6.51423 1.1281,-7.67349 1.4638,-2.73514 5.5005,-6.76077 6.7794,-6.76077 3.223,0 5.7948,-2.4703 7.0707,-6.79165 4.116,-13.94002 22.8402,-17.94603 32.1565,-6.87983 1.0055,1.19432 2.5775,4.48251 3.4933,7.30711 1.4679,4.52711 2.1024,5.26663 5.3556,6.24129 6.9276,2.07556 10.2472,6.64687 10.2472,14.11094 0,5.34387 -3.1578,11.10782 -7.2308,13.19845 -1.7792,0.91325 -8.8428,1.33007 -24.5,1.4457 -12.1,0.0894 -23.0485,-0.0523 -24.33,-0.3148 z"
         id="path1290" />
    </g>
    <g
       id="g2723"
       transform="matrix(0.26458333,0,0,0.26458333,360.89834,-41.204181)">
      <path
         style="fill:#a4dbee"
         d="m -1056.7901,297.04336 c 0.9625,-0.25152 2.5375,-0.25152 3.5,0 0.9625,0.25153 0.175,0.45733 -1.75,0.45733 -1.925,0 -2.7125,-0.2058 -1.75,-0.45733 z"
         id="path1897" />
      <path
         style="fill:#a4dbee"
         d="m -1049.0401,298.73269 c -0.825,-0.53316 -1.05,-0.96937 -0.5,-0.96937 0.55,0 1.675,0.43621 2.5,0.96937 0.825,0.53316 1.05,0.96937 0.5,0.96937 -0.55,0 -1.675,-0.43621 -2.5,-0.96937 z"
         id="path1891" />
      <path
         style="fill:#a4dbee"
         d="m -1063.3067,298.6086 c 0.6783,-0.68342 1.4852,-0.99067 1.7931,-0.68278 0.3079,0.30789 -0.2471,0.86705 -1.2333,1.24258 -1.4252,0.54268 -1.5401,0.42782 -0.5598,-0.5598 z"
         id="path1889" />
      <path
         style="fill:#a4dbee"
         d="m -1067.0401,300.73269 c 0,-0.55 0.4766,-1 1.0591,-1 0.5824,0 0.7809,0.45 0.4409,1 -0.3399,0.55 -0.8164,1 -1.059,1 -0.2425,0 -0.441,-0.45 -0.441,-1 z"
         id="path1883" />
      <path
         style="fill:#a4dbee"
         d="m -1042.5501,302.72229 c -1.5753,-1.64429 -2.5345,-2.9896 -2.1316,-2.9896 1.031,0 5.9462,5.02881 5.4248,5.55018 -0.2359,0.23592 -1.7178,-0.91635 -3.2932,-2.56061 z"
         id="path1875" />
      <path
         style="fill:#a4dbee"
         d="m -1071.9598,306.73269 c 1.4578,-3.06103 1.9197,-3.62834 1.9197,-2.3578 0,0.53655 -0.6998,1.84905 -1.5551,2.91667 -1.4664,1.83031 -1.4872,1.7984 -0.3646,-0.55887 z"
         id="path1869" />
      <path
         style="fill:#a4dbee"
         d="m -1038.4758,308.02582 c -0.5427,-1.4252 -0.4278,-1.54006 0.5598,-0.5598 0.6834,0.67834 0.9907,1.48524 0.6828,1.79313 -0.3079,0.30789 -0.867,-0.24711 -1.2426,-1.23333 z"
         id="path1865" />
      <path
         style="fill:#a4dbee"
         d="m -1035.2901,316.65259 c -0.9625,-0.5606 -1.7183,-2.00942 -1.6797,-3.21959 0.063,-1.96937 0.147,-2.00526 0.8011,-0.34194 0.402,1.0221 1.8328,2.46865 3.1797,3.21456 1.4224,0.78772 1.8202,1.35831 0.9489,1.36123 -0.825,0.003 -2.2875,-0.45365 -3.25,-1.01426 z"
         id="path1853" />
      <path
         style="fill:#a4dbee"
         d="m -1077.8526,316.67619 c 1.4782,-0.58766 3.1684,-2.27786 3.756,-3.75598 l 1.0685,-2.6875 -0.5873,2.99795 c -0.709,3.61937 -0.3073,3.21775 -3.9267,3.92675 l -2.998,0.58726 z"
         id="path1851" />
      <path
         style="fill:#a4dbee"
         d="m -1026.8065,320.65006 c -1.7958,-1.60455 -2.9205,-2.91681 -2.4993,-2.91614 1.0756,0.002 6.6785,4.9194 6.1766,5.42128 -0.2267,0.22672 -1.8815,-0.9006 -3.6773,-2.50514 z"
         id="path1835" />
      <path
         style="fill:#a4dbee"
         d="m -1087.0401,323.37434 c 0,-1.03096 5.0288,-5.94616 5.5502,-5.4248 0.2359,0.23593 -0.9163,1.71785 -2.5606,3.29315 -1.6442,1.57531 -2.9896,2.53455 -2.9896,2.13165 z"
         id="path1833" />
      <path
         style="fill:#a4dbee"
         d="m -1053.0401,326.7327 c 0,-0.55 0.45,-1 1,-1 0.55,0 1,0.45 1,1 0,0.55 -0.45,1 -1,1 -0.55,0 -1,-0.45 -1,-1 z"
         id="path1821" />
      <path
         style="fill:#a4dbee"
         d="m -1022.3088,326.8129 c -0.435,-1.66335 -0.3049,-2.05378 0.4372,-1.31171 0.5811,0.5811 0.8598,1.64682 0.6193,2.36826 -0.2497,0.74895 -0.7029,0.29565 -1.0565,-1.05655 z"
         id="path1819" />
      <path
         style="fill:#a4dbee"
         d="m -1088.9698,328.04176 c -0.039,-1.20504 0.3797,-2.4691 0.9297,-2.80902 1.1828,-0.731 1.1828,0.24752 0,3 -0.8285,1.92824 -0.8619,1.92138 -0.9297,-0.19098 z"
         id="path1817" />
      <path
         style="fill:#a4dbee"
         d="m -1064.5401,330.73274 c 0.34,-0.55 0.8165,-1 1.0591,-1 0.2425,0 0.4409,0.45 0.4409,1 0,0.55 -0.4765,1 -1.059,1 -0.5824,0 -0.7809,-0.45 -0.441,-1 z"
         id="path1811" />
      <path
         style="fill:#a4dbee"
         d="m -1057.0401,334.73274 c 0,-0.55 0.45,-1 1,-1 0.55,0 1,0.45 1,1 0,0.55 -0.45,1 -1,1 -0.55,0 -1,-0.45 -1,-1 z"
         id="path1807" />
      <path
         style="fill:#a4dbee"
         d="m -1067.0401,334.73274 c 0,-0.55 0.45,-1 1,-1 0.55,0 1,0.45 1,1 0,0.55 -0.45,1 -1,1 -0.55,0 -1,-0.45 -1,-1 z"
         id="path1805" />
      <path
         style="fill:#a4dbee"
         d="m -1022.3088,336.6526 c 0.3536,-1.3522 0.8068,-1.8055 1.0565,-1.05655 0.2405,0.72144 -0.038,1.78716 -0.6193,2.36826 -0.7421,0.74207 -0.8722,0.35164 -0.4372,-1.31171 z"
         id="path1791" />
      <path
         style="fill:#a4dbee"
         d="m -1088.3734,338.06609 c -0.3667,-0.36666 -0.6381,-1.60416 -0.6033,-2.75 0.058,-1.91559 0.1405,-1.89048 1.0215,0.31185 0.9793,2.44822 0.7762,3.63253 -0.4182,2.43815 z"
         id="path1789" />
      <path
         style="fill:#a4dbee"
         d="m -1068.5401,338.73274 c 0.34,-0.55 0.8165,-1 1.0591,-1 0.2425,0 0.4409,0.45 0.4409,1 0,0.55 -0.4765,1 -1.059,1 -0.5824,0 -0.7809,-0.45 -0.441,-1 z"
         id="path1783" />
      <path
         style="fill:#a4dbee"
         d="m -1024.5401,340.73274 c 0.34,-0.55 0.8165,-1 1.0591,-1 0.2425,0 0.4409,0.45 0.4409,1 0,0.55 -0.4765,1 -1.059,1 -0.5824,0 -0.7809,-0.45 -0.441,-1 z"
         id="path1775" />
      <path
         style="fill:#a4dbee"
         d="m -1028.5401,344.73274 c 0.34,-0.55 0.8165,-1 1.0591,-1 0.2425,0 0.4409,0.45 0.4409,1 0,0.55 -0.4765,1 -1.059,1 -0.5824,0 -0.7809,-0.45 -0.441,-1 z"
         id="path1771" />
      <path
         style="fill:#a4dbee"
         d="m -1084.4516,343.22638 c -1.6013,-1.37716 -2.7263,-2.68272 -2.5,-2.90124 0.2263,-0.21852 1.9695,0.9088 3.8738,2.50515 1.9042,1.59635 3.0292,2.9019 2.5,2.90123 -0.5293,-6.7e-4 -2.2725,-1.12799 -3.8738,-2.50514 z"
         id="path1769" />
      <path
         style="fill:#a4dbee"
         d="m -1045.0352,346.98274 c 0,-0.4125 3.3392,-0.7573 7.4145,-0.76623 4.0754,-0.009 7.1966,0.32858 6.9362,0.75 -0.6122,0.99056 -14.3571,1.0061 -14.3507,0.0162 z"
         id="path1763" />
      <path
         style="fill:#a4dbee"
         d="m -1078.0401,346.68705 c -1.0954,-0.74131 -0.6909,-0.83408 1.5,-0.34401 3.677,0.82247 4.4751,1.39483 1.9167,1.37439 -1.0542,-0.008 -2.5917,-0.47209 -3.4167,-1.03038 z"
         id="path1761" />
      <path
         style="fill:#a4dbee"
         d="m -1046.4331,370.15095 c -0.3338,-0.86998 -0.607,-2.60997 -0.607,-3.86664 0,-2.70403 3.9356,-12.55157 5.0163,-12.55157 0.7911,0 5.9837,10.39641 5.9837,11.98028 0,0.50909 -0.5222,2.07179 -1.1605,3.47267 -0.9419,2.06719 -1.8637,2.54705 -4.893,2.54705 -2.481,0 -3.936,-0.53034 -4.3395,-1.58179 z"
         id="path1735" />
      <path
         style="fill:#f2ae4b"
         d="m -1064.5218,367.98234 c 0.6934,-1.65695 1.5275,-4.97391 3.3882,-13.47262 0.4482,-2.04743 0.5776,-3.95993 0.2876,-4.25 -0.2901,-0.29006 -3.1524,-0.52738 -6.3607,-0.52738 -5.1667,0 -5.8334,-0.22857 -5.8334,-2 0,-1.1 0.45,-2 1,-2 0.55,0 1,-0.80066 1,-1.77924 0,-0.97858 0.9,-2.42792 2,-3.22076 1.1,-0.79284 2,-2.24218 2,-3.22076 0,-0.97858 0.45,-1.77924 1,-1.77924 0.55,0 1,-0.9 1,-2 0,-1.1 0.45,-2 1,-2 0.55,0 1,-0.70714 1,-1.57143 0,-2.60517 2.6469,-4.42857 6.4286,-4.42857 3.3658,0 3.5706,0.18714 3.5561,3.25 -0.012,2.46622 -0.2491,2.88826 -0.9847,1.75 -0.7838,-1.21296 -0.9723,-1.06944 -0.9847,0.75 -0.01,1.2375 -0.4653,2.25 -1.0153,2.25 -0.55,0 -1,0.9 -1,2 0,1.1 -0.45,2 -1,2 -0.55,0 -1,0.9 -1,2 0,1.83715 0.6718,2.00125 8.25,2.01531 5.0229,0.009 7.7168,0.35314 6.8869,0.87895 -1.1509,0.72914 -1.1509,0.93939 0,1.35006 1.0387,0.37063 0.8758,0.93502 -0.6843,2.37105 -1.1261,1.03654 -3.1297,3.45963 -4.4526,5.38463 -1.3228,1.925 -3.1228,4.175 -4,5 -0.8771,0.825 -2.6887,3.075 -4.0257,5 -4.3743,6.29841 -9.1521,10.30336 -7.456,6.25 z"
         id="path1099" />
      <path
         style="fill:#44bbe7"
         d="m -1079.5401,345.18009 c -10.1644,-5.35544 -12.0346,-15.90508 -4.2734,-24.10673 1.6687,-1.76342 4.4709,-3.43691 6.3432,-3.78815 2.8982,-0.5437 3.4471,-1.1258 4.0395,-4.2838 2.2279,-11.87542 14.4702,-18.47647 25.6236,-13.81626 1.9124,0.79906 4.8859,3.05731 6.6077,5.01834 2.9177,3.32305 3.6088,4.90403 4.3842,10.02883 0.2013,1.33055 1.6369,2.43673 4.2889,3.30475 11.5171,3.76961 14.8768,16.6509 6.522,25.00572 -3.0927,3.09275 -6.6327,4.18953 -13.522,4.18953 -3.9795,0 -4.2073,-0.15155 -3.7584,-2.5 l 0.4779,-2.5 h -8.1166 c -4.4641,0 -8.1166,-0.20383 -8.1166,-0.45295 0,-1.27583 2.4336,-5.54705 3.1606,-5.54705 0.4617,0 0.8394,-0.9 0.8394,-2 0,-1.1 0.45,-2 1,-2 0.55,0 1,-0.9 1,-2 0,-1.1 0.45,-2 1,-2 0.55,0 1,-0.45 1,-1 0,-0.55 -2.2193,-1 -4.9319,-1 -4.3024,0 -5.1958,0.37069 -7,2.90437 -1.1374,1.5974 -2.0681,3.3974 -2.0681,4 0,0.6026 -0.45,1.09563 -1,1.09563 -0.55,0 -1,0.9 -1,2 0,1.1 -0.45,2 -1,2 -0.55,0 -1,0.9 -1,2 0,1.1 -0.3433,2 -0.7628,2 -0.4196,0 -1.2071,1.0125 -1.75,2.25 -1.2352,2.81525 -4.1014,3.24509 -7.9872,1.19777 z"
         id="path1288" />
    </g>
    <g
       id="g2693"
       transform="matrix(0.26458333,0,0,0.26458333,360.89834,-41.204181)">
      <path
         style="fill:#a4dbee"
         d="m -1191.771,297.03936 c 0.9729,-0.25354 2.3229,-0.23687 3,0.0371 0.677,0.27393 -0.1191,0.48137 -1.7691,0.46099 -1.65,-0.0204 -2.2039,-0.2445 -1.2309,-0.49804 z"
         id="path1895" />
      <path
         style="fill:#a4dbee"
         d="m -1198.3067,298.6086 c 0.6783,-0.68342 1.4852,-0.99067 1.7931,-0.68278 0.3079,0.30789 -0.2471,0.86705 -1.2333,1.24258 -1.4252,0.54268 -1.5401,0.42782 -0.5598,-0.5598 z"
         id="path1887" />
      <path
         style="fill:#a4dbee"
         d="m -1177.4574,302.8241 c -0.95,-1.04975 -3.0591,-2.46032 -4.687,-3.13461 -1.6279,-0.67428 -2.7622,-1.42358 -2.5207,-1.66511 0.7022,-0.70216 5.954,2.30933 8.0324,4.60596 1.0464,1.15631 1.6776,2.10238 1.4026,2.10238 -0.275,0 -1.2773,-0.85888 -2.2273,-1.90862 z"
         id="path1879" />
      <path
         style="fill:#a4dbee"
         d="m -1204.5401,302.73269 c 1.5808,-1.65 3.2876,-3 3.7929,-3 0.5052,0 -0.5265,1.35 -2.2929,3 -1.7663,1.65 -3.4731,3 -3.7928,3 -0.3197,0 0.712,-1.35 2.2928,-3 z"
         id="path1873" />
      <path
         style="fill:#a4dbee"
         d="m -1174.4017,307.23269 c -0.3166,-0.825 -0.1397,-1.5 0.393,-1.5 0.5328,0 0.9686,0.675 0.9686,1.5 0,0.825 -0.1768,1.5 -0.393,1.5 -0.2161,0 -0.652,-0.675 -0.9686,-1.5 z"
         id="path1867" />
      <path
         style="fill:#a4dbee"
         d="m -1209.0401,309.79171 c 0,-0.51754 0.4449,-1.21592 0.9886,-1.55194 0.5669,-0.35034 0.7345,0.0511 0.393,0.94098 -0.6648,1.73242 -1.3816,2.04939 -1.3816,0.61096 z"
         id="path1863" />
      <path
         style="fill:#a4dbee"
         d="m -1170.1843,317.06375 c -0.9394,-0.24964 -1.8532,-1.80755 -2.1315,-3.634 -0.6281,-4.12179 0.075,-4.95152 0.8617,-1.01712 0.4014,2.00692 1.4791,3.3481 3.257,4.05334 2.6134,1.03667 1.2301,1.45278 -1.9872,0.59778 z"
         id="path1849" />
      <path
         style="fill:#a4dbee"
         d="m -1213.0401,316.4427 c 1.375,-0.63506 2.8306,-1.6171 3.2347,-2.18232 0.4668,-0.65288 0.7403,-0.56277 0.75,0.24708 0.01,0.70111 -1.139,1.71361 -2.5498,2.25 -3.5018,1.3314 -4.5169,1.10872 -1.4349,-0.31476 z"
         id="path1847" />
      <path
         style="fill:#a4dbee"
         d="m -1220.5434,320.73808 c 0.3381,-0.54704 1.6022,-1.50258 2.809,-2.12341 l 2.1943,-1.12879 -2.2082,2.12341 c -2.3044,2.21598 -3.8537,2.84165 -2.7951,1.12879 z"
         id="path1839" />
      <path
         style="fill:#a4dbee"
         d="m -1162.3458,320.2011 c -1.5432,-1.35762 -2.4091,-2.4684 -1.9243,-2.4684 0.4848,0 1.9383,1.125 3.23,2.5 2.9887,3.18124 2.3281,3.16525 -1.3057,-0.0316 z"
         id="path1837" />
      <path
         style="fill:#a4dbee"
         d="m -1158.4017,325.2327 c -0.3166,-0.825 -0.1397,-1.5 0.393,-1.5 0.5328,0 0.9686,0.675 0.9686,1.5 0,0.825 -0.1768,1.5 -0.393,1.5 -0.2161,0 -0.652,-0.675 -0.9686,-1.5 z"
         id="path1823" />
      <path
         style="fill:#a4dbee"
         d="m -1203.0401,326.23274 c 0,-6 0.3,-7.5 1.5,-7.5 1.2,0 1.5,1.5 1.5,7.5 0,6 -0.3,7.5 -1.5,7.5 -1.2,0 -1.5,-1.5 -1.5,-7.5 z"
         id="path1809" />
      <path
         style="fill:#a4dbee"
         d="m -1156.7677,331.73274 c 0,-2.475 0.195,-3.4875 0.4334,-2.25 0.2383,1.2375 0.2383,3.2625 0,4.5 -0.2384,1.2375 -0.4334,0.225 -0.4334,-2.25 z"
         id="path1803" />
      <path
         style="fill:#a4dbee"
         d="m -1224.3734,336.06606 c -0.8836,-0.88356 -0.728,-5.32886 0.2742,-7.83333 0.5453,-1.36266 0.7807,-0.32698 0.7387,3.25 -0.034,2.8875 -0.1256,5.25 -0.2039,5.25 -0.078,0 -0.4423,-0.3 -0.809,-0.66667 z"
         id="path1799" />
      <path
         style="fill:#a4dbee"
         d="m -1191.3734,337.06606 c -0.833,-0.83301 -0.87,-5.63983 -0.06,-7.75154 1.2115,-3.15692 2.393,-1.46913 2.393,3.41822 0,4.64673 -0.7069,5.95969 -2.3333,4.33333 z"
         id="path1795" />
      <path
         style="fill:#a4dbee"
         d="m -1213.4006,338.03889 c -0.3517,-0.35172 -0.6395,-2.81448 -0.6395,-5.47282 0,-3.62963 0.3736,-4.83333 1.5,-4.83333 1.131,0 1.5,1.21566 1.5,4.94098 0,4.66988 -0.9336,6.79201 -2.3605,5.36517 z"
         id="path1787" />
      <path
         style="fill:#a4dbee"
         d="m -1169.0401,336.73274 c 0,-2.2 0.45,-4 1,-4 0.55,0 1,1.8 1,4 0,2.2 -0.45,4 -1,4 -0.55,0 -1,-1.8 -1,-4 z"
         id="path1781" />
      <path
         style="fill:#a4dbee"
         d="m -1222.5812,339.66621 c -0.3625,-0.58659 -0.4447,-1.281 -0.1825,-1.54313 0.2621,-0.26213 0.743,0.21781 1.0687,1.06653 0.6762,1.76211 0.1,2.07206 -0.8862,0.4766 z"
         id="path1779" />
      <path
         style="fill:#a4dbee"
         d="m -1163.1769,344.11603 c 1.2695,-0.8892 3.168,-3.0267 4.2188,-4.75 1.0543,-1.72909 1.9122,-2.43693 1.9143,-1.57946 0,1.64874 -5.9528,7.94617 -7.5164,7.94617 -0.5087,0 0.1138,-0.72752 1.3833,-1.61671 z"
         id="path1767" />
      <path
         style="fill:#a4dbee"
         d="m -1180.0401,359.23274 c 0,-2.475 0.45,-4.5 1,-4.5 0.55,0 1,2.025 1,4.5 0,2.475 -0.45,4.5 -1,4.5 -0.55,0 -1,-2.025 -1,-4.5 z"
         id="path1743" />
      <path
         style="fill:#a4dbee"
         d="m -1202.3734,363.06607 c -0.9924,-0.99245 -0.8064,-8.12891 0.2286,-8.76857 1.2011,-0.74238 2.1047,1.84074 2.1047,6.01703 0,3.23673 -0.848,4.23681 -2.3333,2.75154 z"
         id="path1741" />
      <path
         style="fill:#a4dbee"
         d="m -1213.4256,362.91798 c -1.1037,-1.78589 -0.8651,-18.33463 0.2809,-19.48065 0.8935,-0.89346 1.3082,-0.64222 1.754,1.06266 0.4777,1.8268 1.29,2.23275 4.4673,2.23275 h 3.8833 v -4.5 c 0,-3.33333 0.3889,-4.5 1.5,-4.5 1.1111,0 1.5,1.16667 1.5,4.5 v 4.5 h 3.8834 c 3.1044,0 3.9936,-0.42138 4.4327,-2.10062 0.5887,-2.2512 2.6839,-1.73625 2.6839,0.65964 0,1.01448 1.184,1.44098 4,1.44098 h 4 l 0.2221,-6.75 c 0.1222,-3.7125 0.2402,-8.96432 0.2622,-11.67071 0.024,-2.99074 0.5255,-5.08254 1.2779,-5.33333 0.9386,-0.31288 1.2378,2.52982 1.2378,11.75953 v 12.17215 l 5.75,-0.33882 5.75,-0.33882 -0.3209,8.75 c -0.1766,4.8125 -0.7391,8.75 -1.25,8.75 -0.511,0 -0.9291,-3.6 -0.9291,-8 v -8 h -4.5 c -3.4386,0 -4.5,0.37346 -4.5,1.58333 0,0.87084 -0.5625,1.37709 -1.25,1.125 -0.6875,-0.25208 -1.1375,-0.96458 -1,-1.58333 0.1564,-0.7037 -1.4352,-1.125 -4.25,-1.125 h -4.5 v 8 c 0,4.66667 -0.4166,8 -1,8 -1.1282,0 -1.2452,-0.9483 -1.2031,-9.75 l 0.03,-6.25 h -9.9134 -9.9134 v 8 c 0,7.09293 -0.8536,9.66396 -2.3855,7.18524 z"
         id="path1739" />
      <path
         style="fill:#44bbe7"
         d="m -1200.0401,326.23232 c 0,-6 -0.3,-7.5 -1.5,-7.5 -1.2,0 -1.5,1.5 -1.5,7.5 0,6 0.3,7.5 1.5,7.5 1.2,0 1.5,-1.5 1.5,-7.5 z"
         id="path1286" />
      <path
         style="fill:#44bbe7"
         d="m -1189.0401,332.73232 c 0,-4.88735 -1.1815,-6.57514 -2.393,-3.41821 -0.8103,2.11171 -0.7733,6.91853 0.06,7.75154 1.6264,1.62636 2.3333,0.3134 2.3333,-4.33333 z"
         id="path1284" />
      <path
         style="fill:#44bbe7"
         d="m -1211.0401,332.67332 c 0,-3.72532 -0.369,-4.94098 -1.5,-4.94098 -1.1264,0 -1.5,1.2037 -1.5,4.83333 0,2.65834 0.2878,5.1211 0.6395,5.47282 1.4269,1.42684 2.3605,-0.69529 2.3605,-5.36517 z"
         id="path1282" />
      <path
         style="fill:#44bbe7"
         d="m -1167.0401,336.73234 c 0,-2.2 -0.45,-4 -1,-4 -0.55,0 -1,1.8 -1,4 0,2.2 0.45,4 1,4 0.55,0 1,-1.8 1,-4 z"
         id="path1280" />
      <path
         style="fill:#44bbe7"
         d="m -1211.4399,344.48234 c -0.6139,-2.18213 -0.6768,-2.19273 -2.0853,-0.35162 -1.2679,1.65727 -1.6786,1.72102 -3.2336,0.5019 -5.4491,-4.27201 -7.4598,-9.15028 -6.5543,-15.90139 0.6514,-4.85626 5.7317,-10.50145 10.3669,-11.51951 1.6727,-0.36739 3.1723,-1.18804 3.3325,-1.82368 2.1457,-8.5153 4.4395,-11.88999 10.5736,-15.55631 10.1289,-6.0539 24.7259,1.0807 26.6348,13.01825 0.5176,3.23665 1.0509,3.86888 3.7345,4.42727 7.1368,1.48497 11.6233,7.06446 11.6233,14.45509 0,8.87031 -6.4239,14.98963 -15.7426,14.99626 l -5.25,0.004 v -12.08333 c 0,-9.15912 -0.2995,-11.98348 -1.2378,-11.67071 -0.7524,0.25079 -1.2536,2.34259 -1.2779,5.33333 -0.022,2.70639 -0.14,7.95821 -0.2622,11.67071 l -0.2221,6.75 h -3.8833 c -3.1044,0 -3.9936,-0.42138 -4.4327,-2.10062 -0.5887,-2.2512 -2.684,-1.73625 -2.684,0.65964 0,1.01448 -1.1839,1.44098 -4,1.44098 h -4 v -4.5 c 0,-3.33333 -0.3889,-4.5 -1.5,-4.5 -1.1111,0 -1.5,1.16667 -1.5,4.5 v 4.5 h -3.8833 c -3.173,0 -3.9992,-0.41161 -4.5165,-2.25 z"
         id="path1278" />
    </g>
    <g
       id="g2664"
       transform="matrix(0.26458333,0,0,0.26458333,360.89834,-41.204181)">
      <path
         style="fill:#a4dbee"
         d="m -1327.7901,297.04336 c 0.9625,-0.25152 2.5375,-0.25152 3.5,0 0.9625,0.25153 0.175,0.45733 -1.75,0.45733 -1.925,0 -2.7125,-0.2058 -1.75,-0.45733 z"
         id="path1893" />
      <path
         style="fill:#a4dbee"
         d="m -1334.3067,298.6086 c 0.6783,-0.68342 1.4852,-0.99067 1.7931,-0.68278 0.3079,0.30789 -0.2471,0.86705 -1.2333,1.24258 -1.4252,0.54268 -1.5401,0.42782 -0.5598,-0.5598 z"
         id="path1885" />
      <path
         style="fill:#a4dbee"
         d="m -1340.5434,302.7381 c 0.3381,-0.54704 1.6022,-1.50258 2.809,-2.12341 l 2.1943,-1.12882 -2.2082,2.12341 c -2.3044,2.21598 -3.8537,2.84165 -2.7951,1.12879 z"
         id="path1881" />
      <path
         style="fill:#a4dbee"
         d="m -1313.4574,302.8241 c -0.95,-1.04975 -3.0591,-2.46032 -4.687,-3.13461 -1.6279,-0.67428 -2.7622,-1.42358 -2.5207,-1.66511 0.7022,-0.70216 5.954,2.30933 8.0324,4.60596 1.0464,1.15631 1.6776,2.10238 1.4026,2.10238 -0.275,0 -1.2773,-0.85888 -2.2273,-1.90862 z"
         id="path1877" />
      <path
         style="fill:#a4dbee"
         d="m -1310.5401,306.73269 c -0.3399,-0.55 -0.1414,-1 0.441,-1 0.5825,0 1.059,0.45 1.059,1 0,0.55 -0.1984,1 -0.4409,1 -0.2426,0 -0.7191,-0.45 -1.0591,-1 z"
         id="path1871" />
      <path
         style="fill:#a4dbee"
         d="m -1344.4758,309.43956 c 0.3756,-0.98622 0.9347,-1.54122 1.2426,-1.23333 0.3079,0.30789 6e-4,1.11479 -0.6828,1.79313 -0.9876,0.98026 -1.1025,0.8654 -0.5598,-0.5598 z"
         id="path1861" />
      <path
         style="fill:#a4dbee"
         d="m -1306.2254,316.4827 c -1.7296,-1.37929 -3.4382,-8.25339 -1.7996,-7.24069 0.5417,0.3348 0.9849,1.89467 0.9849,3.46637 0,2.20729 0.6259,3.08624 2.75,3.86204 1.5125,0.55241 2.0485,1.03991 1.1912,1.08333 -0.8574,0.0434 -2.2643,-0.48355 -3.1265,-1.17105 z"
         id="path1845" />
      <path
         style="fill:#a4dbee"
         d="m -1348.5401,316.28404 c 1.65,-0.75156 3.1875,-1.18307 3.4167,-0.95891 0.6621,0.6476 -0.1996,1.08283 -3.4167,1.72581 l -3,0.59958 z"
         id="path1843" />
      <path
         style="fill:#a4dbee"
         d="m -1295.9921,322.4704 -2.31,-3.2377 2.828,2.7197 c 1.5554,1.49583 2.5949,2.9528 2.31,3.2377 -0.2849,0.2849 -1.5575,-0.93896 -2.828,-2.7197 z"
         id="path1827" />
      <path
         style="fill:#a4dbee"
         d="m -1359.0401,324.79172 c 0,-0.51754 0.4449,-1.21592 0.9886,-1.55194 0.5669,-0.35034 0.7345,0.0511 0.393,0.94098 -0.6648,1.73242 -1.3816,2.04939 -1.3816,0.61096 z"
         id="path1825" />
      <path
         style="fill:#a4dbee"
         d="m -1292.9307,331.73274 c 0.045,-4.15357 0.1249,-4.29119 1.0404,-1.78768 0.6678,1.82645 0.652,3.2962 -0.048,4.5 -0.8281,1.42282 -1.0305,0.86923 -0.9919,-2.71232 z"
         id="path1801" />
      <path
         style="fill:#a4dbee"
         d="m -1360.4985,333.92216 c -0.3395,-1.54582 -0.2368,-3.83915 0.2283,-5.09629 0.6491,-1.75474 0.8455,-1.10182 0.8455,2.81057 0,2.80296 -0.1027,5.09629 -0.2282,5.09629 -0.1255,0 -0.506,-1.26476 -0.8456,-2.81057 z"
         id="path1797" />
      <path
         style="fill:#a4dbee"
         d="m -1358.5812,339.66621 c -0.3625,-0.58659 -0.4447,-1.281 -0.1825,-1.54313 0.2621,-0.26213 0.743,0.21781 1.0687,1.06653 0.6762,1.76211 0.1,2.07206 -0.8862,0.4766 z"
         id="path1777" />
      <path
         style="fill:#a4dbee"
         d="m -1295.5288,340.35586 c 0.9453,-1.44271 1.9078,-2.62312 2.1389,-2.62312 0.7234,0 -1.6049,3.85397 -2.7593,4.56743 -0.6041,0.37335 -0.3249,-0.50159 0.6204,-1.94431 z"
         id="path1773" />
      <path
         style="fill:#a4dbee"
         d="m -1353.533,344.74419 c -0.3503,-0.56686 0.051,-0.7345 0.941,-0.39301 1.7324,0.66479 2.0494,1.38156 0.611,1.38156 -0.5176,0 -1.216,-0.44485 -1.552,-0.98855 z"
         id="path1765" />
      <path
         style="fill:#a4dbee"
         d="m -1323.8033,350.27448 0.4859,-2.54174 h -12.8023 c -7.0413,0 -13.012,-0.3375 -13.2682,-0.75 -0.2562,-0.4125 5.5672,-0.61315 12.941,-0.44588 7.3737,0.16726 13.4063,-0.0577 13.4056,-0.5 -7e-4,-0.44227 -1.1706,-2.15412 -2.6,-3.80412 l -2.5987,-3 3.7609,-0.96569 c 2.6341,-0.67635 4.3414,-1.94931 5.6979,-4.24852 2.192,-3.71512 2.9526,-3.60378 4.7322,0.69275 0.8338,2.01292 1.9621,3.02657 3.3803,3.03677 1.1707,0.008 2.7928,0.43533 3.6046,0.94869 1.2598,0.79662 1.1499,1.37454 -0.75,3.9442 -1.2243,1.65595 -2.226,3.25404 -2.226,3.55131 0,1.14629 6.2419,0.46677 9.0497,-0.98519 1.6227,-0.83912 2.9503,-1.30068 2.9503,-1.02568 0,1.12667 -6.1108,3.55136 -8.9503,3.55136 -2.5946,0 -3.0497,0.3769 -3.0497,2.52568 0,2.50081 -0.03,2.50994 -3.0903,0.92758 -2.8341,-1.46552 -3.4251,-1.46419 -7.1246,0.0161 l -4.0342,1.61416 0.4859,-2.54174 z"
         id="path1755" />
      <path
         style="fill:#a4dbee"
         d="m -1343.0401,363.30317 c 0,-1.82905 -0.675,-3.88574 -1.5,-4.57043 -2.2015,-1.82711 -1.8326,-3 0.9435,-3 1.6461,0 3.013,-0.96409 4.1886,-2.95436 l 1.7452,-2.95436 1.7967,2.95436 c 1.2241,2.01295 2.598,2.95436 4.3113,2.95436 3.0464,0 3.1917,1.07734 0.4769,3.53428 -1.5151,1.37114 -1.8796,2.56533 -1.4206,4.65499 0.6786,3.08953 0.3031,3.33314 -2.6782,1.73761 -1.3894,-0.74359 -2.9046,-0.75956 -4.9342,-0.052 -2.8564,0.99571 -2.9292,0.93844 -2.9292,-2.30445 z"
         id="path1737" />
      <path
         style="fill:#44bbe7"
         d="m -1351.5401,345.03917 c -4.1562,-2.23482 -6.3302,-4.9628 -7.5424,-9.46428 -2.1147,-7.85368 3.1965,-17.03042 10.668,-18.43208 2.6997,-0.50647 3.3744,-1.1046 3.3744,-2.99134 0,-2.4095 3.0651,-8.62707 5.4078,-10.96977 10.2763,-10.27623 28.4394,-4.9972 31.3612,9.11493 0.7144,3.45065 1.3026,4.09077 4.7729,5.19386 2.1987,0.69888 5.4028,2.88439 7.2081,4.91661 2.8054,3.15796 3.25,4.39001 3.25,9.00587 0,8.78542 -5.9857,15.31937 -14.0339,15.31937 -3.5545,0 -3.5959,-0.2291 -0.7401,-4.0918 1.8999,-2.56966 2.0098,-3.14758 0.75,-3.9442 -0.8118,-0.51336 -2.4339,-0.94027 -3.6046,-0.94869 -1.4182,-0.0102 -2.5465,-1.02385 -3.3803,-3.03677 -1.7796,-4.29653 -2.5402,-4.40787 -4.7322,-0.69275 -1.3565,2.29921 -3.0638,3.57217 -5.6979,4.24852 l -3.7609,0.96569 2.5987,3 c 1.4294,1.65 2.5993,3.3375 2.6,3.75 7e-4,0.4125 -5.7363,0.73198 -12.7488,0.70996 -9.7653,-0.0307 -13.4522,-0.41765 -15.75,-1.65313 z"
         id="path1276" />
    </g>
    <g
       id="g2745"
       transform="matrix(0.26458333,0,0,0.26458333,360.89834,-41.204181)">
      <path
         style="fill:#a4dbee"
         d="m -876.22756,294.04958 c 0.72187,-0.28887 1.58438,-0.25335 1.91667,0.0789 0.33229,0.33229 -0.25834,0.56864 -1.3125,0.52522 -1.16495,-0.048 -1.4019,-0.28494 -0.60417,-0.60416 z"
         id="path1899" />
      <path
         style="fill:#a4dbee"
         d="m -892.88217,309.73269 c 0,-1.375 0.22698,-1.9375 0.50439,-1.25 0.27741,0.6875 0.27741,1.8125 0,2.5 -0.27741,0.6875 -0.50439,0.125 -0.50439,-1.25 z"
         id="path1859" />
      <path
         style="fill:#a4dbee"
         d="m -918.41005,310.60815 c 2.47157,-0.97131 6.58337,-1.02777 8.02109,-0.11015 0.6331,0.40408 -1.33339,0.75952 -4.36999,0.78987 -3.33019,0.0333 -4.77903,-0.23645 -3.6511,-0.67972 z"
         id="path1857" />
      <path
         style="fill:#a4dbee"
         d="m -900.54006,316.73269 c -0.33992,-0.55 -0.14148,-1 0.44098,-1 0.58246,0 1.05902,0.45 1.05902,1 0,0.55 -0.19844,1 -0.44098,1 -0.24254,0 -0.7191,-0.45 -1.05902,-1 z"
         id="path1855" />
      <path
         style="fill:#a4dbee"
         d="m -930.04006,318.23663 c 3.14857,-4.18986 7.57204,-7.26522 8.75231,-6.08495 0.31956,0.31956 0.0573,0.58102 -0.58276,0.58102 -0.64008,0 -3.07758,1.6875 -5.41667,3.75 -2.33908,2.0625 -3.57788,2.85177 -2.75288,1.75393 z"
         id="path1841" />
      <path
         style="fill:#a4dbee"
         d="m -896.54006,324.7327 c -0.33992,-0.55 -0.14148,-1 0.44098,-1 0.58246,0 1.05902,0.45 1.05902,1 0,0.55 -0.19844,1 -0.44098,1 -0.24254,0 -0.7191,-0.45 -1.05902,-1 z"
         id="path1831" />
      <path
         style="fill:#a4dbee"
         d="m -932.95446,325.2327 c 0.10413,-1.89422 1.77076,-5.08385 1.8288,-3.5 0.0302,0.825 -0.38124,2.175 -0.9144,3 -0.53316,0.825 -0.94464,1.05 -0.9144,0.5 z"
         id="path1829" />
      <path
         style="fill:#a4dbee"
         d="m -891.04006,330.73274 c 0,-0.55 0.45,-1 1,-1 0.55,0 1,0.45 1,1 0,0.55 -0.45,1 -1,1 -0.55,0 -1,-0.45 -1,-1 z"
         id="path1815" />
      <path
         style="fill:#a4dbee"
         d="m -939.30673,330.60865 c 0.67834,-0.68342 1.48524,-0.99067 1.79313,-0.68278 0.30789,0.30789 -0.24711,0.86705 -1.23333,1.24258 -1.4252,0.54268 -1.54006,0.42782 -0.5598,-0.5598 z"
         id="path1813" />
      <path
         style="fill:#a4dbee"
         d="m -883.31782,336.7213 c -1.91209,-2.23315 -2.13522,-2.98856 -0.88276,-2.98856 0.46172,0 1.35207,1.125 1.97857,2.5 1.37866,3.02583 1.1601,3.12328 -1.09581,0.48857 z"
         id="path1793" />
      <path
         style="fill:#a4dbee"
         d="m -947.00965,339.52979 c -0.0767,-1.77318 2.31781,-5.53029 4.29075,-6.73239 l 2.17884,-1.32755 -2.11343,2.38145 c -1.16239,1.30979 -2.6112,3.28144 -3.21959,4.38144 -0.60839,1.1 -1.11985,1.68367 -1.13657,1.29705 z"
         id="path1785" />
      <path
         style="fill:#a4dbee"
         d="m -947.7677,344.73274 c 0,-2.475 0.19502,-3.4875 0.43337,-2.25 0.23836,1.2375 0.23836,3.2625 0,4.5 -0.23835,1.2375 -0.43337,0.225 -0.43337,-2.25 z"
         id="path1759" />
      <path
         style="fill:#a4dbee"
         d="m -880.69685,344.47557 c -0.10218,-3.29709 0.15371,-4.56875 0.73469,-3.65103 1.07941,1.70506 1.16797,5.97501 0.15679,7.55924 -0.40408,0.63307 -0.80525,-1.12562 -0.89148,-3.90821 z"
         id="path1757" />
      <path
         style="fill:#a4dbee"
         d="m -882.54006,352.73274 c 0.33992,-0.55 0.81648,-1 1.05902,-1 0.24254,0 0.44098,0.45 0.44098,1 0,0.55 -0.47656,1 -1.05902,1 -0.58246,0 -0.7809,-0.45 -0.44098,-1 z"
         id="path1753" />
      <path
         style="fill:#a4dbee"
         d="m -886.04006,357.35518 c 0,-0.20765 0.7875,-0.99515 1.75,-1.75 1.58606,-1.24387 1.62143,-1.2085 0.37756,0.37756 -1.30637,1.66575 -2.12756,2.19548 -2.12756,1.37244 z"
         id="path1751" />
      <path
         style="fill:#a4dbee"
         d="m -890.04006,359.33973 c 0,-0.21616 0.675,-0.65203 1.5,-0.96862 0.825,-0.31658 1.5,-0.13972 1.5,0.39301 0,0.53274 -0.675,0.96862 -1.5,0.96862 -0.825,0 -1.5,-0.17686 -1.5,-0.39301 z"
         id="path1749" />
      <path
         style="fill:#a4dbee"
         d="m -941.48119,358.20094 c -1.06762,-0.80751 -1.49113,-1.4682 -0.94113,-1.4682 0.55,0 1.87351,0.66069 2.94113,1.4682 1.06762,0.8075 1.49113,1.46819 0.94113,1.46819 -0.55,0 -1.87351,-0.66069 -2.94113,-1.46819 z"
         id="path1747" />
      <path
         style="fill:#a4dbee"
         d="m -924.73364,359.98548 c 6.49353,-0.17445 16.84353,-0.17388 23,10e-4 6.15647,0.17516 0.84358,0.31789 -11.80642,0.31719 -12.65,-7e-4 -17.68711,-0.14401 -11.19358,-0.31847 z"
         id="path1745" />
      <path
         style="fill:#f2ae4b"
         d="m -883.04006,334.83933 c 0,-0.60885 -0.80066,-1.10699 -1.77924,-1.10699 -0.97858,0 -2.42792,-0.9 -3.22076,-2 -0.84651,-1.17447 -2.58869,-2 -4.22076,-2 -2.42138,0 -2.77924,-0.38629 -2.77924,-3 0,-1.65 -0.45,-3 -1,-3 -0.55,0 -1,-0.9 -1,-2 0,-1.1 -0.45,-2 -1,-2 -0.55,0 -1,-0.9 -1,-2 0,-1.18336 -0.66667,-2 -1.6327,-2 -0.89799,0 -2.36695,-0.84658 -3.26435,-1.88129 -0.89739,-1.03471 -2.3518,-2.04721 -3.23201,-2.25 -1.45764,-0.33582 -1.44838,-0.83159 0.10379,-5.55817 1.67817,-5.11023 6.06347,-10.39021 10.91798,-13.14542 4.82832,-2.74034 19.98934,-2.42925 19.41812,0.39845 -0.10404,0.51504 -1.86974,1.33713 -3.92377,1.82686 -4.55551,1.08617 -9.4331,5.81475 -11.20179,10.85957 -1.58863,4.53126 -0.22355,9.65333 3.74139,14.03849 5.29688,5.85827 12.06034,7.2361 17.93612,3.65388 1.84953,-1.12758 3.59316,-1.81976 3.87474,-1.53818 1.54214,1.54214 -7.17774,10.71683 -11.23752,11.82364 -1.1,0.2999 -2.7875,0.86946 -3.75,1.26571 -1.04663,0.43087 -1.75,0.27551 -1.75,-0.38655 z"
         id="path1101" />
      <path
         style="fill:#44bbe7"
         d="m -940.87443,357.41843 c -1.83391,-1.20924 -3.95546,-3.3208 -4.71457,-4.69235 -2.08418,-3.76572 -1.8034,-11.9036 0.54354,-15.75288 2.08125,-3.41352 7.39511,-7.23074 10.07463,-7.23712 1.03627,-0.002 2.03741,-1.72306 2.94773,-5.06601 2.07283,-7.61208 10.22658,-13.92658 17.98304,-13.92658 6.33656,0 17,7.55876 17,12.05042 0,1.00122 0.45,2.09851 1,2.43843 0.55,0.33992 1,1.49148 1,2.55902 0,1.27431 0.68694,1.94098 2,1.94098 1.1,0 2,0.45 2,1 0,0.55 0.72681,1 1.61513,1 2.62634,0 8.09164,6.76478 8.73969,10.8177 0.71511,4.47238 -0.0329,7.78366 -2.58576,11.44739 -3.76943,5.40957 -5.57245,5.7401 -30.9694,5.67726 -22.27308,-0.0551 -23.44657,-0.15451 -26.63403,-2.25626 z"
         id="path1274" />
    </g>
    <g
       id="g2810"
       transform="matrix(0.26458333,0,0,0.26458333,360.89834,-41.204181)">
      <path
         style="fill:#a4dbee"
         d="m -1057.7901,433.01647 c 1.5125,-0.2291 3.9875,-0.2291 5.5,0 1.5125,0.2291 0.275,0.4166 -2.75,0.4166 -3.025,0 -4.2625,-0.1875 -2.75,-0.4166 z"
         id="path1731" />
      <path
         style="fill:#a4dbee"
         d="m -1064.3067,434.60867 c 0.6783,-0.6834 1.4852,-0.9907 1.7931,-0.6828 0.3079,0.3079 -0.2471,0.8671 -1.2333,1.2426 -1.4252,0.5427 -1.5401,0.4278 -0.5598,-0.5598 z"
         id="path1723" />
      <path
         style="fill:#a4dbee"
         d="m -1047.0401,435.23317 c -1.375,-0.786 -2.05,-1.4292 -1.5,-1.4292 0.55,0 2.125,0.6432 3.5,1.4292 1.375,0.786 2.05,1.4291 1.5,1.4291 -0.55,0 -2.125,-0.6431 -3.5,-1.4291 z"
         id="path1715" />
      <path
         style="fill:#a4dbee"
         d="m -1069.0401,438.23317 c 1.2918,-1.375 2.5737,-2.5 2.8487,-2.5 0.275,0 -0.5569,1.125 -1.8487,2.5 -1.2917,1.375 -2.5736,2.5 -2.8486,2.5 -0.275,0 0.5569,-1.125 1.8486,-2.5 z"
         id="path1709" />
      <path
         style="fill:#a4dbee"
         d="m -1073.0401,443.85117 c 0,-0.55 0.45,-1.2781 1,-1.618 0.55,-0.3399 1,-0.1681 1,0.3819 0,0.55 -0.45,1.2782 -1,1.6181 -0.55,0.3399 -1,0.168 -1,-0.382 z"
         id="path1697" />
      <path
         style="fill:#a4dbee"
         d="m -1039.2623,442.66857 c -0.9266,-1.6145 -1.3279,-2.9354 -0.8918,-2.9354 0.8217,0 3.424,5.0233 2.8827,5.5646 -0.1684,0.1685 -1.0643,-1.0147 -1.9909,-2.6292 z"
         id="path1695" />
      <path
         style="fill:#a4dbee"
         d="m -1074.4298,449.23287 c 0.8225,-3.677 1.3949,-4.4751 1.3744,-1.9167 -0.01,1.0542 -0.4721,2.5917 -1.0304,3.4167 -0.7413,1.0954 -0.834,0.6909 -0.344,-1.5 z"
         id="path1681" />
      <path
         style="fill:#a4dbee"
         d="m -1033.5401,452.85977 c -2.4098,-0.5112 -3.0239,-1.1789 -3.1218,-3.394 -0.1118,-2.5327 -0.086,-2.5527 0.3164,-0.2453 0.3236,1.8548 1.0598,2.5124 2.8128,2.5124 1.306,0 2.6527,0.45 2.9926,1 0.34,0.55 0.479,0.9467 0.3091,0.8817 -0.17,-0.065 -1.6591,-0.4047 -3.3091,-0.7548 z"
         id="path1673" />
      <path
         style="fill:#a4dbee"
         d="m -1081.0401,453.23287 c 1.375,-0.786 2.95,-1.4292 3.5,-1.4292 0.55,0 -0.125,0.6432 -1.5,1.4292 -1.375,0.786 -2.95,1.4291 -3.5,1.4291 -0.55,0 0.125,-0.6431 1.5,-1.4291 z"
         id="path1669" />
      <path
         style="fill:#a4dbee"
         d="m -1088.0248,461.17397 c 0.022,-1.3823 1.7983,-3.961 2.3486,-3.4106 0.2599,0.2599 -0.1656,1.3454 -0.9456,2.4122 -0.7801,1.0667 -1.4114,1.516 -1.403,0.9984 z"
         id="path1657" />
      <path
         style="fill:#a4dbee"
         d="m -1029.2858,465.48287 c -0.8626,-2.3458 0.4092,-3.75 3.3965,-3.75 2.5975,0 2.9098,-0.2914 2.4114,-2.25 l -0.5727,-2.25 1.1581,2.25 c 1.112,2.1605 1.6809,2.25 14.3052,2.25 13.92354,0 15.54724,-0.4889 15.54724,-4.681 0,-2.2913 -1.1785,-2.8872 -7.00004,-3.5391 -1.74,-0.1948 -2.5,-0.8879 -2.5,-2.2799 0,-1.6779 0.7686,-2.0493 4.7713,-2.3057 4.16936,-0.2671 5.14704,0.07 7.75,2.6731 1.63831,1.6383 2.97874,3.9357 2.97874,5.1053 0,3.3849 -2.8738,8.0288 -5.613,9.0702 -3.94255,1.499 -36.06824,1.2421 -36.63274,-0.2929 z"
         id="path1647" />
      <path
         style="fill:#a4dbee"
         d="m -1085.0601,478.20837 c -0.6957,-0.8383 -1.0713,-1.7178 -0.8346,-1.9545 0.2367,-0.2367 0.9796,0.4492 1.651,1.5242 1.4518,2.3247 0.9676,2.5799 -0.8164,0.4303 z"
         id="path1611" />
      <path
         style="fill:#a4dbee"
         d="m -1081.533,480.74357 c -0.3503,-0.5668 0.051,-0.7345 0.941,-0.393 1.7324,0.6648 2.0494,1.3816 0.611,1.3816 -0.5176,0 -1.216,-0.4449 -1.552,-0.9886 z"
         id="path1603" />
      <path
         style="fill:#a4dbee"
         d="m -1066.7901,481.98537 c 6.4625,-0.1742 17.0375,-0.1742 23.5,0 6.4625,0.1742 1.175,0.3167 -11.75,0.3167 -12.925,0 -18.2125,-0.1425 -11.75,-0.3167 z"
         id="path1597" />
      <path
         style="fill:#a4dbee"
         d="m -1012.7375,496.53507 c -2.5862,-1.2495 -5.3026,-6.5001 -5.3026,-10.2495 0,-6.0076 9.384,-10.1124 13.2671,-5.8034 2.2704,2.5193 3.1829,7.0028 1.7715,8.7035 -1.7117,2.0625 -3.7209,0.8847 -4.4155,-2.5884 -0.4837,-2.4185 -1.0439,-2.9442 -2.8623,-2.6861 -5.3568,0.7605 -1.4685,8.821 4.2551,8.821 4.1166,0 6.42015,-3.7127 5.6885,-9.1679 -0.9104,-6.7871 -3.2618,-8.2739 -13.731,-8.6816 -6.6356,-0.2585 -8.9734,-0.028 -8.9734,0.8836 0,1.4035 -4.984,5.9685 -6.5,5.9536 -0.55,0 0.4625,-1.1625 2.25,-2.5713 1.7875,-1.4088 3.25,-2.9788 3.25,-3.4889 0,-0.5226 -5.7846,-0.9342 -13.25,-0.9428 -14.111,-0.016 -17.0645,-0.6959 -14.8132,-3.4085 1.1197,-1.3492 4.538,-1.5762 23.7353,-1.5762 24.5803,0 25.8332,0.2464 30.70882,6.0408 2.19109,2.6039 2.61912,4.097 2.61912,9.1359 0,5.5167 -0.28597,6.3092 -3.4,9.4233 -2.86094,2.8609 -4.08974,3.3892 -7.75004,3.3323 -2.3925,-0.037 -5.3388,-0.5454 -6.5474,-1.1294 z"
         id="path1577" />
      <path
         style="fill:#44bbe7"
         d="m -1080.5401,480.57267 c -3.712,-2.0395 -6.4717,-5.7058 -7.6716,-10.1923 -1.0887,-4.0705 -0.9782,-4.8891 1.2556,-9.3056 1.9865,-3.9273 3.4362,-5.3149 7.6712,-7.3424 3.6967,-1.7698 5.3987,-3.2302 5.8272,-5 1.5887,-6.5618 5.0002,-11.2475 10.1019,-13.8751 3.5752,-1.8413 12.9147,-1.3702 17.3124,0.8734 4.3996,2.2445 9.0033,9.0815 9.0033,13.3709 0,2.7418 0.3151,2.9819 5.3782,4.0985 2.9652,0.6539 8.6218,5.5453 8.6218,7.4554 0,0.5923 -1.3018,1.0769 -2.893,1.0769 -1.5911,0 -3.0998,0.5625 -3.3527,1.25 -0.9316,2.5333 0.4729,3.75 4.3291,3.75 2.8148,0 3.9166,0.422 3.9166,1.5 0,1.2661 -2.3197,1.5 -14.8775,1.5 -12.3243,0 -15.1021,0.2705 -16.1857,1.5762 -2.2513,2.7126 0.7022,3.3922 14.8132,3.4085 7.6823,0.01 13.25,0.4141 13.25,0.9644 0,0.522 -1.5049,2.097 -3.3444,3.5 l -3.3443,2.5509 -23.9057,-0.03 c -15.4339,-0.02 -24.6143,-0.4198 -25.9056,-1.1293 z"
         id="path1272" />
    </g>
    <g
       id="g2846"
       transform="matrix(0.26458333,0,0,0.26458333,360.89834,-41.204181)">
      <path
         style="fill:#a4dbee"
         d="m -916.79006,433.01647 c 1.5125,-0.2291 3.9875,-0.2291 5.5,0 1.5125,0.2291 0.275,0.4166 -2.75,0.4166 -3.025,0 -4.2625,-0.1875 -2.75,-0.4166 z"
         id="path1733" />
      <path
         style="fill:#a4dbee"
         d="m -907.04006,434.73277 c -1.2819,-0.8285 -1.24555,-0.9716 0.25,-0.9847 0.9625,-0.01 1.75,0.4347 1.75,0.9847 0,1.2196 -0.11279,1.2196 -2,0 z"
         id="path1727" />
      <path
         style="fill:#a4dbee"
         d="m -923.30673,434.60867 c 0.67834,-0.6834 1.48524,-0.9907 1.79313,-0.6828 0.30789,0.3079 -0.24711,0.8671 -1.23333,1.2426 -1.4252,0.5427 -1.54006,0.4278 -0.5598,-0.5598 z"
         id="path1725" />
      <path
         style="fill:#a4dbee"
         d="m -931.04006,441.42027 c 0,-0.1721 1.4337,-1.6346 3.186,-3.25 l 3.18601,-2.9371 -2.43601,3.1946 c -2.06929,2.7138 -3.936,4.133 -3.936,2.9925 z"
         id="path1707" />
      <path
         style="fill:#a4dbee"
         d="m -898.47577,442.02627 c -0.54268,-1.4252 -0.42782,-1.5401 0.5598,-0.5598 0.68342,0.6783 0.99067,1.4852 0.68278,1.7931 -0.30789,0.3079 -0.86705,-0.2471 -1.24258,-1.2333 z"
         id="path1701" />
      <path
         style="fill:#a4dbee"
         d="m -933.00943,446.23317 c 0,-0.55 0.43621,-1.675 0.96937,-2.5 0.53316,-0.825 0.96937,-1.05 0.96937,-0.5 0,0.55 -0.43621,1.675 -0.96937,2.5 -0.53316,0.825 -0.96937,1.05 -0.96937,0.5 z"
         id="path1693" />
      <path
         style="fill:#a4dbee"
         d="m -892.85121,453.01907 c -2.373,-0.4532 -2.57791,-0.7691 -3.64541,-5.62 -0.40579,-1.844 -0.26031,-2.6093 0.41648,-2.191 0.57204,0.3535 1.04008,1.9663 1.04008,3.5838 0,2.1284 0.4835,2.9452 1.75,2.9563 0.9625,0.01 2.425,0.4515 3.25,0.9847 1.54729,0.9999 1.14192,1.0412 -2.81115,0.2862 z"
         id="path1677" />
      <path
         style="fill:#a4dbee"
         d="m -938.30673,452.60877 c 0.67834,-0.6834 1.48524,-0.9907 1.79313,-0.6828 0.30789,0.3079 -0.24711,0.8671 -1.23333,1.2426 -1.4252,0.5427 -1.54006,0.4278 -0.5598,-0.5598 z"
         id="path1675" />
      <path
         style="fill:#a4dbee"
         d="m -882.47577,460.02597 c -0.54268,-1.4252 -0.42782,-1.5401 0.5598,-0.5598 0.68342,0.6783 0.99067,1.4852 0.68278,1.7931 -0.30789,0.3079 -0.86705,-0.2471 -1.24258,-1.2333 z"
         id="path1659" />
      <path
         style="fill:#a4dbee"
         d="m -880.80328,467.23287 c -0.0158,-3.703 0.1936,-4.4384 0.80723,-2.8352 0.4557,1.1907 0.46531,3.4407 0.0213,5 -0.68307,2.3991 -0.81051,2.0662 -0.82856,-2.1648 z"
         id="path1639" />
      <path
         style="fill:#a4dbee"
         d="m -948.51307,469.81787 c -1.11531,-3.514 2.10738,-12.3595 5.37511,-14.7533 2.58138,-1.891 2.42148,-0.7462 -0.272,1.9473 -2.79705,2.797 -5.0553,9.8059 -4.1145,12.7701 0.34055,1.073 0.39418,1.9509 0.11918,1.9509 -0.275,0 -0.77351,-0.8618 -1.10779,-1.915 z"
         id="path1637" />
      <path
         style="fill:#a4dbee"
         d="m -882.54006,474.73287 c 0.33992,-0.55 0.81648,-1 1.05902,-1 0.24254,0 0.44098,0.45 0.44098,1 0,0.55 -0.47656,1 -1.05902,1 -0.58246,0 -0.7809,-0.45 -0.44098,-1 z"
         id="path1635" />
      <path
         style="fill:#a4dbee"
         d="m -898.86358,473.05637 c 0.25882,-2.2588 0.82352,-2.8235 2.82352,-2.8235 2,0 2.5,0.5 2.5,2.5 0,2 -0.5647,2.5647 -2.82352,2.8235 -2.56842,0.2943 -2.79428,0.068 -2.5,-2.5 z"
         id="path1633" />
      <path
         style="fill:#a4dbee"
         d="m -910.65152,474.30297 c -0.99567,-2.5947 0.39988,-4.7392 2.85699,-4.3903 1.65273,0.2347 2.25447,0.9874 2.25447,2.8202 0,1.8327 -0.60174,2.5854 -2.25447,2.8201 -1.35228,0.192 -2.49559,-0.3082 -2.85699,-1.25 z"
         id="path1631" />
      <path
         style="fill:#a4dbee"
         d="m -922.86358,473.05637 c 0.25882,-2.2588 0.82352,-2.8235 2.82352,-2.8235 2,0 2.5,0.5 2.5,2.5 0,2 -0.5647,2.5647 -2.82352,2.8235 -2.56842,0.2943 -2.79428,0.068 -2.5,-2.5 z"
         id="path1629" />
      <path
         style="fill:#a4dbee"
         d="m -934.86358,473.05637 c 0.25882,-2.2588 0.82352,-2.8235 2.82352,-2.8235 2,0 2.5,0.5 2.5,2.5 0,2 -0.5647,2.5647 -2.82352,2.8235 -2.56842,0.2943 -2.79428,0.068 -2.5,-2.5 z"
         id="path1627" />
      <path
         style="fill:#a4dbee"
         d="m -886.04006,479.35497 c 0,-0.2076 0.7875,-0.9951 1.75,-1.75 1.58606,-1.2439 1.62143,-1.2085 0.37756,0.3776 -1.30637,1.6657 -2.12756,2.1955 -2.12756,1.3724 z"
         id="path1615" />
      <path
         style="fill:#a4dbee"
         d="m -945.03636,477.23647 c -1.2897,-1.3728 -2.12368,-2.7173 -1.85328,-2.9877 0.27041,-0.2704 1.48566,0.8528 2.70055,2.4961 2.69099,3.6397 2.31513,3.8578 -0.84727,0.4916 z"
         id="path1613" />
      <path
         style="fill:#a4dbee"
         d="m -888.54006,480.73257 c 0.33992,-0.55 0.81648,-1 1.05902,-1 0.24254,0 0.44098,0.45 0.44098,1 0,0.55 -0.47656,1 -1.05902,1 -0.58246,0 -0.7809,-0.45 -0.44098,-1 z"
         id="path1607" />
      <path
         style="fill:#a4dbee"
         d="m -941.04006,480.67357 c 0,-0.5825 0.45,-0.7809 1,-0.441 0.55,0.3399 1,0.8165 1,1.059 0,0.2425 -0.45,0.441 -1,0.441 -0.55,0 -1,-0.4766 -1,-1.059 z"
         id="path1605" />
      <path
         style="fill:#a4dbee"
         d="m -934.74037,484.37877 c -0.43983,-0.7443 -1.47469,-1.6088 -2.29969,-1.921 -1.19358,-0.4518 -1.14251,-0.5839 0.25,-0.6467 0.9625,-0.043 1.75,-0.5289 1.75,-1.0789 0,-1.5587 4.61034,-1.1745 6,0.5 0.68469,0.825 2.10391,1.5 3.15383,1.5 1.04992,0 2.16796,-0.675 2.48454,-1.5 0.31659,-0.825 1.66659,-1.5 3,-1.5 1.33342,0 2.68342,0.675 3,1.5 0.31659,0.825 1.39532,1.5 2.39719,1.5 1.00187,0 2.49658,-0.675 3.32158,-1.5 0.825,-0.825 2.44627,-1.5 3.60282,-1.5 1.15654,0 2.36183,0.675 2.67841,1.5 0.31659,0.825 1.66659,1.5 3,1.5 1.33342,0 2.68342,-0.675 3,-1.5 0.68531,-1.7859 3.66524,-1.9519 6.23462,-0.3473 1.69355,1.0577 1.71534,1.3052 0.26419,3 -1.71723,2.0056 -4.64897,2.4462 -5.63718,0.8473 -0.85781,-1.388 -5.12463,-1.2514 -7.51357,0.2405 -1.58107,0.9874 -2.39179,0.9874 -3.97286,0 -1.09254,-0.6823 -2.89864,-1.2405 -4.01357,-1.2405 -1.11493,0 -2.92103,0.5582 -4.01357,1.2405 -1.58107,0.9874 -2.39179,0.9874 -3.97286,0 -2.38894,-1.4919 -6.65576,-1.6285 -7.51357,-0.2405 -0.89845,1.4537 -4.26781,1.2247 -5.20031,-0.3534 z"
         id="path1587" />
      <path
         style="fill:#a4dbee"
         d="m -897.84006,494.53217 c -2.75556,-2.7556 -0.32736,-6.5536 3.3,-5.1617 2.46075,0.9443 1.1834,6.3617 -1.5,6.3617 -0.33,0 -1.14,-0.54 -1.8,-1.2 z"
         id="path1585" />
      <path
         style="fill:#a4dbee"
         d="m -909.84006,494.53217 c -2.75556,-2.7556 -0.32736,-6.5536 3.3,-5.1617 2.46075,0.9443 1.1834,6.3617 -1.5,6.3617 -0.33,0 -1.14,-0.54 -1.8,-1.2 z"
         id="path1583" />
      <path
         style="fill:#a4dbee"
         d="m -921.88686,494.48517 c -1.62384,-1.6239 -1.43346,-4.4317 0.3468,-5.1149 2.26097,-0.8676 4.5,0.3432 4.5,2.4335 0,2.4379 -3.27725,4.2509 -4.8468,2.6814 z"
         id="path1581" />
      <path
         style="fill:#a4dbee"
         d="m -933.84006,494.53217 c -2.75556,-2.7556 -0.32736,-6.5536 3.3,-5.1617 2.46075,0.9443 1.1834,6.3617 -1.5,6.3617 -0.33,0 -1.14,-0.54 -1.8,-1.2 z"
         id="path1579" />
      <path
         style="fill:#a4dbee"
         d="m -897.79006,504.06987 c -1.71822,-0.6933 -1.57149,-3.826 0.25,-5.3377 1.84618,-1.5322 4.5,0.2461 4.5,3.0154 0,1.3674 -2.3124,3.3841 -3.33179,2.9056 -0.0925,-0.043 -0.73071,-0.3059 -1.41821,-0.5833 z"
         id="path1573" />
      <path
         style="fill:#a4dbee"
         d="m -909.79006,504.06987 c -1.71822,-0.6933 -1.57149,-3.826 0.25,-5.3377 1.84618,-1.5322 4.5,0.2461 4.5,3.0154 0,1.3674 -2.3124,3.3841 -3.33179,2.9056 -0.0925,-0.043 -0.73071,-0.3059 -1.41821,-0.5833 z"
         id="path1571" />
      <path
         style="fill:#a4dbee"
         d="m -921.79006,504.06987 c -1.71822,-0.6933 -1.57149,-3.826 0.25,-5.3377 1.84618,-1.5322 4.5,0.2461 4.5,3.0154 0,1.3674 -2.3124,3.3841 -3.33179,2.9056 -0.0925,-0.043 -0.73071,-0.3059 -1.41821,-0.5833 z"
         id="path1569" />
      <path
         style="fill:#a4dbee"
         d="m -933.79006,504.06987 c -1.71822,-0.6933 -1.57149,-3.826 0.25,-5.3377 1.84618,-1.5322 4.5,0.2461 4.5,3.0154 0,1.3674 -2.3124,3.3841 -3.33179,2.9056 -0.0925,-0.043 -0.73071,-0.3059 -1.41821,-0.5833 z"
         id="path1567" />
      <path
         style="fill:#44bbe7"
         d="m -893.54006,472.73237 c 0,-2 -0.5,-2.5 -2.5,-2.5 -2,0 -2.5647,0.5647 -2.82352,2.8235 -0.29428,2.5684 -0.0684,2.7943 2.5,2.5 2.25882,-0.2588 2.82352,-0.8235 2.82352,-2.8235 z"
         id="path1270" />
      <path
         style="fill:#44bbe7"
         d="m -905.54006,472.73237 c 0,-1.8328 -0.60174,-2.5855 -2.25447,-2.8202 -1.35228,-0.192 -2.49559,0.3082 -2.85699,1.25 -0.99567,2.5947 0.39988,4.7392 2.85699,4.3903 1.65273,-0.2347 2.25447,-0.9874 2.25447,-2.8201 z"
         id="path1268" />
      <path
         style="fill:#44bbe7"
         d="m -917.54006,472.73237 c 0,-2 -0.5,-2.5 -2.5,-2.5 -2,0 -2.5647,0.5647 -2.82352,2.8235 -0.29428,2.5684 -0.0684,2.7943 2.5,2.5 2.25882,-0.2588 2.82352,-0.8235 2.82352,-2.8235 z"
         id="path1266" />
      <path
         style="fill:#44bbe7"
         d="m -929.54006,472.73237 c 0,-2 -0.5,-2.5 -2.5,-2.5 -2,0 -2.5647,0.5647 -2.82352,2.8235 -0.29428,2.5684 -0.0684,2.7943 2.5,2.5 2.25882,-0.2588 2.82352,-0.8235 2.82352,-2.8235 z"
         id="path1264" />
      <path
         style="fill:#44bbe7"
         d="m -929.04006,481.23237 c -1.38966,-1.6745 -6,-2.0587 -6,-0.5 0,0.55 -0.9,1 -2,1 -2.88795,0 -9.56774,-7.0887 -10.34583,-10.9792 -1.48222,-7.4111 3.22576,-15.445 10.59583,-18.0813 2.39605,-0.857 3.75,-1.9739 3.75,-3.0934 0,-4.3972 5.30381,-11.909 10.20034,-14.4467 4.21573,-2.1848 13.64245,-1.7924 17.79966,0.7409 4.81113,2.9318 6.82674,5.4808 8.12292,10.2727 0.60802,2.2478 1.24317,4.5926 1.41145,5.2107 0.16827,0.6181 1.80438,1.4057 3.63579,1.7503 3.69858,0.6959 7.857,3.8837 9.76785,7.488 2.14208,4.0404 1.51079,11.8608 -1.24958,15.4798 -3.4286,4.4951 -7.25927,6.4073 -9.73657,4.8602 -2.64035,-1.6489 -5.62036,-1.5083 -6.31349,0.298 -0.31658,0.825 -1.66658,1.5 -3,1.5 -1.33341,0 -2.68341,-0.675 -3,-1.5 -0.31658,-0.825 -1.52187,-1.5 -2.67841,-1.5 -1.15655,0 -2.77782,0.675 -3.60282,1.5 -0.825,0.825 -2.31971,1.5 -3.32158,1.5 -1.00187,0 -2.0806,-0.675 -2.39719,-1.5 -0.31658,-0.825 -1.66658,-1.5 -3,-1.5 -1.33341,0 -2.68341,0.675 -3,1.5 -0.31658,0.825 -1.43462,1.5 -2.48454,1.5 -1.04992,0 -2.46914,-0.675 -3.15383,-1.5 z"
         id="path1262" />
    </g>
    <g
       id="g2792"
       transform="matrix(0.26458333,0,0,0.26458333,360.89834,-41.204181)">
      <path
         style="fill:#a4dbee"
         d="m -1196.7901,433.01647 c 1.5125,-0.2291 3.9875,-0.2291 5.5,0 1.5125,0.2291 0.275,0.4166 -2.75,0.4166 -3.025,0 -4.2625,-0.1875 -2.75,-0.4166 z"
         id="path1729" />
      <path
         style="fill:#a4dbee"
         d="m -1186.0401,434.73277 c -0.9013,-0.5825 -1.0246,-0.9755 -0.309,-0.9847 0.6551,-0.01 1.4691,0.4347 1.809,0.9847 0.7673,1.2415 0.4212,1.2415 -1.5,0 z"
         id="path1721" />
      <path
         style="fill:#a4dbee"
         d="m -1203.0401,434.70177 c 0,-0.5327 0.675,-0.9686 1.5,-0.9686 0.825,0 1.5,0.1768 1.5,0.393 0,0.2161 -0.675,0.652 -1.5,0.9686 -0.825,0.3166 -1.5,0.1397 -1.5,-0.393 z"
         id="path1719" />
      <path
         style="fill:#a4dbee"
         d="m -1180.3097,439.54707 c -2.9564,-3.3178 -3.2345,-4.3928 -0.6421,-2.4822 1.3765,1.0146 4.4772,5.7359 3.6969,5.6293 -0.1568,-0.021 -1.5315,-1.4376 -3.0548,-3.1471 z"
         id="path1705" />
      <path
         style="fill:#a4dbee"
         d="m -1209.5401,440.73317 c 0.9955,-1.1 2.035,-2 2.31,-2 0.275,0 -0.3145,0.9 -1.31,2 -0.9955,1.1 -2.0349,2 -2.3099,2 -0.275,0 0.3144,-0.9 1.3099,-2 z"
         id="path1703" />
      <path
         style="fill:#a4dbee"
         d="m -1176.4165,446.19447 c -0.965,-2.5146 -0.6803,-3.1635 0.4985,-1.1363 0.5837,1.0038 0.8506,2.0357 0.5931,2.2931 -0.2574,0.2575 -0.7487,-0.2631 -1.0916,-1.1568 z"
         id="path1689" />
      <path
         style="fill:#a4dbee"
         d="m -1213.0248,448.14987 c 0.01,-1.0542 0.4721,-2.5917 1.0304,-3.4167 0.7413,-1.0955 0.8341,-0.6909 0.344,1.5 -0.8224,3.6769 -1.3948,4.4751 -1.3744,1.9167 z"
         id="path1685" />
      <path
         style="fill:#a4dbee"
         d="m -1174.2901,452.07057 c 0.6875,-0.2774 1.8125,-0.2774 2.5,0 0.6875,0.2774 0.125,0.5044 -1.25,0.5044 -1.375,0 -1.9375,-0.227 -1.25,-0.5044 z"
         id="path1679" />
      <path
         style="fill:#a4dbee"
         d="m -1218.0401,452.73287 c 0.825,-0.5332 1.95,-0.9694 2.5,-0.9694 0.55,0 0.325,0.4362 -0.5,0.9694 -0.825,0.5331 -1.95,0.9693 -2.5,0.9693 -0.55,0 -0.325,-0.4362 0.5,-0.9693 z"
         id="path1671" />
      <path
         style="fill:#a4dbee"
         d="m -1164.8028,457.10357 c -2.7134,-2.7772 -2.8727,-3.1617 -0.9461,-2.2839 2.106,0.9595 5.2992,4.7433 4.5281,5.3656 -0.1756,0.1417 -1.7875,-1.245 -3.582,-3.0817 z"
         id="path1661" />
      <path
         style="fill:#a4dbee"
         d="m -1226.0699,459.78857 c 0.5723,-1.0694 1.5348,-2.2498 2.1389,-2.6232 0.6041,-0.3733 0.325,0.5016 -0.6203,1.9444 -2.0017,3.0548 -3.0382,3.5181 -1.5186,0.6788 z"
         id="path1655" />
      <path
         style="fill:#a4dbee"
         d="m -1189.0401,463.29037 c 0,-0.9704 -1.391,-1.5678 -4.25,-1.8253 -4.1397,-0.3729 -4.1162,-0.3873 0.9064,-0.5575 4.7031,-0.1594 5.1104,10e-4 4.6334,1.8253 -0.6105,2.3345 -1.2898,2.6281 -1.2898,0.5575 z"
         id="path1649" />
      <path
         style="fill:#a4dbee"
         d="m -1227.7879,467.23287 c 0.011,-2.2 0.2159,-2.9823 0.4551,-1.7384 0.2392,1.2439 0.2301,3.0439 -0.02,4 -0.2503,0.9561 -0.446,-0.062 -0.4349,-2.2616 z"
         id="path1641" />
      <path
         style="fill:#a4dbee"
         d="m -1205.0401,474.73287 c 0,-0.55 0.45,-1 1,-1 0.55,0 1,0.45 1,1 0,0.55 -0.45,1 -1,1 -0.55,0 -1,-0.45 -1,-1 z"
         id="path1625" />
      <path
         style="fill:#a4dbee"
         d="m -1161.4544,473.56717 c 1.088,-2.104 1.4739,-4.6133 1.1506,-7.4819 -0.2676,-2.3738 -0.093,-4.0727 0.3886,-3.7752 2.1543,1.3314 -0.2749,14.4228 -2.6762,14.4228 -0.275,0 0.2366,-1.4246 1.137,-3.1657 z"
         id="path1623" />
      <path
         style="fill:#a4dbee"
         d="m -1225.8958,474.98257 c -1.0912,-2.5501 -1.0665,-2.6089 0.3395,-0.8089 0.8339,1.0676 1.5162,2.3051 1.5162,2.75 0,1.5199 -0.6783,0.8104 -1.8557,-1.9411 z"
         id="path1617" />
      <path
         style="fill:#a4dbee"
         d="m -1206.5401,478.73257 c 0.34,-0.55 0.8165,-1 1.0591,-1 0.2425,0 0.4409,0.45 0.4409,1 0,0.55 -0.4765,1 -1.059,1 -0.5824,0 -0.7809,-0.45 -0.441,-1 z"
         id="path1609" />
      <path
         style="fill:#a4dbee"
         d="m -1169.0401,481.33917 c 0,-0.2162 0.6984,-0.661 1.552,-0.9886 0.8899,-0.3415 1.2913,-0.1738 0.941,0.393 -0.5873,0.9502 -2.493,1.4055 -2.493,0.5956 z"
         id="path1601" />
      <path
         style="fill:#a4dbee"
         d="m -1220.5401,480.73217 c -0.3399,-0.55 -0.168,-1 0.382,-1 0.55,0 1.2781,0.45 1.618,1 0.34,0.55 0.1681,1 -0.3819,1 -0.55,0 -1.2781,-0.45 -1.6181,-1 z"
         id="path1599" />
      <path
         style="fill:#a4dbee"
         d="m -1179.8679,482.85967 c -0.8064,-0.5112 0.9609,-0.8406 4.5,-0.8388 3.8508,0 5.1494,0.2689 3.8278,0.7868 -2.6962,1.0568 -6.7035,1.0818 -8.3278,0.052 z"
         id="path1595" />
      <path
         style="fill:#a4dbee"
         d="m -1216.0401,482.73217 c -1.09,-0.7045 -0.2701,-0.9694 3,-0.9694 3.2702,0 4.0901,0.2649 3,0.9694 -0.825,0.5331 -2.175,0.9693 -3,0.9693 -0.825,0 -2.175,-0.4362 -3,-0.9693 z"
         id="path1593" />
      <path
         style="fill:#f2ae4b"
         d="m -1199.542,501.64277 c 0.4004,-2.4257 1.0704,-4.8604 1.4889,-5.4104 0.4184,-0.55 1.0701,-3.1375 1.4482,-5.75 l 0.6874,-4.75 h -6.5613 c -5.6232,0 -6.5613,-0.2544 -6.5613,-1.7793 0,-0.9786 0.9,-2.4279 2,-3.2207 1.1,-0.7929 2,-2.2422 2,-3.2208 0,-0.9786 0.45,-1.7792 1,-1.7792 0.55,0 1,-0.9 1,-2 0,-1.1 0.45,-2 1,-2 0.55,0 1,-0.9 1,-2 0,-1.1 0.45,-2 1,-2 0.55,0 1,-0.7072 1,-1.5715 0,-2.6051 2.6469,-4.4285 6.4286,-4.4285 3.3016,0 3.5714,0.2266 3.5714,3 0,1.65 -0.45,3 -1,3 -0.55,0 -1.0069,1.0125 -1.0153,2.25 -0.012,1.8194 -0.2008,1.9629 -0.9847,0.75 -0.7838,-1.213 -0.9723,-1.0695 -0.9847,0.75 -0.01,1.2375 -0.4653,2.25 -1.0153,2.25 -0.55,0 -1,0.9 -1,2 0,1.8333 0.6667,2 8,2 9.381,0 9.9814,0.8947 4.5,6.706 -1.925,2.0409 -3.5,4.0464 -3.5,4.4569 0,0.4104 -1.0223,1.7791 -2.2717,3.0416 -1.2495,1.2625 -3.3772,3.8705 -4.7283,5.7955 -1.351,1.925 -3.5305,4.5847 -4.8432,5.9104 l -2.3868,2.4105 z"
         id="path1097" />
      <path
         style="fill:#44bbe7"
         d="m -1177.8239,481.88587 c -0.7079,-0.4485 -0.9964,-1.5627 -0.643,-2.4835 0.568,-1.4803 -0.3369,-1.67 -7.9662,-1.67 -4.7338,0 -8.607,-0.2039 -8.607,-0.453 0,-1.2758 2.4336,-5.547 3.1606,-5.547 0.4617,0 0.8394,-0.9 0.8394,-2 0,-1.1 0.3375,-2.0035 0.75,-2.0078 0.7655,-0.01 3.25,-4.7412 3.25,-6.1916 0,-0.4403 -2.1765,-0.8006 -4.8367,-0.8006 h -4.8367 l -3.4027,6.5 c -1.8715,3.575 -3.745,6.5 -4.1633,6.5 -0.4183,0 -0.7606,0.9 -0.7606,2 0,1.1 -0.45,2 -1,2 -0.55,0 -1,0.9 -1,2 0,1.7248 -0.6666,2 -4.8463,2 -9.255,0 -15.1537,-5.672 -15.1537,-14.5712 0,-6.1263 3.228,-10.8658 9.2844,-13.6315 4.1404,-1.8908 4.9224,-2.731 5.8092,-6.2411 1.1594,-4.5894 6.0313,-10.4709 10.2035,-12.318 3.5152,-1.5562 13.1261,-1.6104 16.0187,-0.091 5.1438,2.7031 10.6842,10.9867 10.6842,15.9744 0,1.2851 0.7159,1.8779 2.2679,1.8779 3.3702,0 9.219,4.3988 11.0892,8.34 3.41,7.1861 0.7567,15.9305 -5.8777,19.3704 -2.9772,1.5437 -8.81,2.3638 -10.2632,1.4431 z"
         id="path1260" />
    </g>
    <g
       id="g2767"
       transform="matrix(0.26458333,0,0,0.26458333,360.89834,-41.204181)">
      <path
         style="fill:#a4dbee"
         d="m -1329.2901,435.02737 c 1.2375,-0.2383 3.2625,-0.2383 4.5,0 1.2375,0.2384 0.225,0.4334 -2.25,0.4334 -2.475,0 -3.4875,-0.195 -2.25,-0.4334 z"
         id="path1717" />
      <path
         style="fill:#a4dbee"
         d="m -1321.0401,436.73317 c -0.825,-0.5332 -1.05,-0.9694 -0.5,-0.9694 0.55,0 1.675,0.4362 2.5,0.9694 0.825,0.5331 1.05,0.9693 0.5,0.9693 -0.55,0 -1.675,-0.4362 -2.5,-0.9693 z"
         id="path1713" />
      <path
         style="fill:#a4dbee"
         d="m -1339.0401,438.84717 c 0,-0.8217 5.0234,-3.424 5.5647,-2.8827 0.1684,0.1684 -1.0147,1.0643 -2.6292,1.9909 -1.6145,0.9266 -2.9355,1.3279 -2.9355,0.8918 z"
         id="path1711" />
      <path
         style="fill:#a4dbee"
         d="m -1314.5501,440.72267 c -1.5753,-1.6442 -2.5345,-2.9895 -2.1316,-2.9895 1.031,0 5.9462,5.0288 5.4248,5.5502 -0.2359,0.2359 -1.7179,-0.9164 -3.2932,-2.5607 z"
         id="path1699" />
      <path
         style="fill:#a4dbee"
         d="m -1343.5729,443.79657 c 0.8353,-1.6151 1.9726,-3.2172 2.5274,-3.5601 0.5549,-0.3429 0.064,0.9785 -1.0916,2.9366 -2.5328,4.2927 -3.565,4.7409 -1.4358,0.6235 z"
         id="path1691" />
      <path
         style="fill:#a4dbee"
         d="m -1310.4758,446.02627 c -0.5427,-1.4252 -0.4278,-1.54 0.5598,-0.5598 0.6834,0.6784 0.9907,1.4853 0.6828,1.7932 -0.3079,0.3079 -0.867,-0.2471 -1.2426,-1.2334 z"
         id="path1687" />
      <path
         style="fill:#a4dbee"
         d="m -1345.9611,449.14987 c 0.048,-1.165 0.2849,-1.4019 0.6042,-0.6042 0.2888,0.7219 0.2533,1.5844 -0.079,1.9167 -0.3322,0.3323 -0.5686,-0.2584 -0.5252,-1.3125 z"
         id="path1683" />
      <path
         style="fill:#a4dbee"
         d="m -1306.7901,454.70167 c -1.4879,-0.5981 -2.2038,-1.6773 -2.1138,-3.1866 0.1253,-2.0998 0.169,-2.1165 0.5464,-0.209 0.2256,1.1403 1.6268,2.555 3.1138,3.1437 1.487,0.5886 2.2536,1.0897 1.7036,1.1133 -0.55,0.024 -2.0125,-0.364 -3.25,-0.8614 z"
         id="path1667" />
      <path
         style="fill:#a4dbee"
         d="m -1350.0401,454.54147 c 1.375,-0.6893 2.8306,-1.7157 3.2347,-2.281 0.4255,-0.5951 0.7412,-0.2911 0.75,0.7224 0.01,0.9625 -0.6229,1.75 -1.4029,1.75 -0.78,0 -2.2425,0.2389 -3.25,0.5309 -1.0075,0.292 -0.7068,-0.033 0.6682,-0.7223 z"
         id="path1665" />
      <path
         style="fill:#a4dbee"
         d="m -1355.0401,456.73287 c 0,-0.55 0.4766,-1 1.0591,-1 0.5824,0 0.7809,0.45 0.4409,1 -0.3399,0.55 -0.8164,1 -1.059,1 -0.2425,0 -0.441,-0.45 -0.441,-1 z"
         id="path1663" />
      <path
         style="fill:#a4dbee"
         d="m -1298.8065,458.65017 c -1.7958,-1.6045 -2.9205,-2.9168 -2.4993,-2.9161 1.0756,0 6.6784,4.9194 6.1766,5.4213 -0.2267,0.2267 -1.8815,-0.9006 -3.6773,-2.5052 z"
         id="path1653" />
      <path
         style="fill:#a4dbee"
         d="m -1359.0401,461.28387 c 0,-0.3816 0.675,-1.3689 1.5,-2.1939 0.825,-0.825 1.5,-1.0729 1.5,-0.551 0,0.5219 -0.675,1.5092 -1.5,2.1939 -0.825,0.6847 -1.5,0.9326 -1.5,0.551 z"
         id="path1651" />
      <path
         style="fill:#a4dbee"
         d="m -1294.3088,464.81297 c -0.435,-1.6633 -0.3049,-2.0537 0.4372,-1.3117 0.5811,0.5811 0.8598,1.6468 0.6193,2.3683 -0.2496,0.7489 -0.7029,0.2956 -1.0565,-1.0566 z"
         id="path1645" />
      <path
         style="fill:#a4dbee"
         d="m -1361.0401,465.29187 c 0,-0.7925 0.4081,-1.6932 0.9068,-2.0014 0.4987,-0.3082 0.6712,0.3402 0.3833,1.441 -0.6106,2.335 -1.2901,2.6301 -1.2901,0.5604 z"
         id="path1643" />
      <path
         style="fill:#a4dbee"
         d="m -1295.0248,476.04187 c 0.01,-0.445 0.4516,-1.484 0.9847,-2.309 0.8354,-1.2927 0.9715,-1.2663 0.9847,0.191 0.01,0.93 -0.4347,1.9691 -0.9847,2.309 -0.55,0.3399 -0.9931,0.254 -0.9847,-0.191 z"
         id="path1621" />
      <path
         style="fill:#a4dbee"
         d="m -1360.3734,476.06587 c -0.3667,-0.3667 -0.6381,-1.6042 -0.6033,-2.75 0.058,-1.9156 0.1406,-1.8905 1.0215,0.3119 0.9793,2.4482 0.7762,3.6325 -0.4182,2.4381 z"
         id="path1619" />
      <path
         style="fill:#a4dbee"
         d="m -1301.5401,482.73217 c 0.34,-0.55 1.0681,-1 1.6181,-1 0.55,0 0.7219,0.45 0.3819,1 -0.3399,0.55 -1.068,1 -1.618,1 -0.55,0 -0.7219,-0.45 -0.382,-1 z"
         id="path1591" />
      <path
         style="fill:#a4dbee"
         d="m -1356.4516,481.22577 c -1.6013,-1.3771 -2.7263,-2.6827 -2.5,-2.9012 0.2263,-0.2185 1.9695,0.9088 3.8738,2.5051 1.9042,1.5964 3.0292,2.9019 2.5,2.9013 -0.5293,-7e-4 -2.2725,-1.128 -3.8738,-2.5052 z"
         id="path1589" />
      <path
         style="fill:#a4dbee"
         d="m -1341.8598,501.44937 c -2.5953,-3.1272 -3.1264,-6.6184 -1.6453,-10.8162 0.8058,-2.2839 1.465,-4.3209 1.465,-4.5268 0,-0.2058 -1.4625,-0.3811 -3.25,-0.3895 -1.7875,-0.01 -3.8506,-0.3961 -4.5846,-0.8614 -0.7803,-0.4946 0.7412,-0.6465 3.6628,-0.3658 4.78,0.4593 5.0678,0.3444 6.6104,-2.6387 0.887,-1.7153 1.8147,-3.1188 2.0614,-3.1188 0.2468,0 1.1468,1.35 2,3 1.3573,2.6246 2.0871,3 5.8327,3 h 4.2812 l 3.4431,-7.497 c 1.8937,-4.1233 3.668,-7.4969 3.943,-7.4969 0.275,0 2.0701,3.4184 3.989,7.5966 l 3.4889,7.5965 3.9591,-0.531 c 2.6041,-0.3493 3.4635,-0.2175 2.5111,0.3851 -0.7965,0.5038 -2.6856,0.9229 -4.1981,0.9314 -1.9902,0.011 -2.75,0.5197 -2.75,1.841 0,1.0041 -1.0415,2.8041 -2.3144,4 -4.1066,3.8579 -10.0462,2.3616 -11.1837,-2.8174 -0.6138,-2.7943 -0.9771,-3.0083 -5.107,-3.0083 h -4.4462 l 1.5257,2.9503 c 2.1498,4.1572 1.9299,9.2387 -0.5133,11.8611 -2.2635,2.4296 -7.1019,2.9287 -8.7808,0.9058 z"
         id="path1575" />
      <path
         style="fill:#44bbe7"
         d="m -1351.5401,483.15977 c -7.2346,-3.7627 -10.7713,-11.0453 -8.5834,-17.6747 1.5385,-4.6616 6.5668,-9.5652 10.5808,-10.3182 2.8077,-0.5267 3.4139,-1.1478 3.9596,-4.057 2.9082,-15.5018 21.9859,-20.7487 32.3836,-8.9064 2.9056,3.3094 3.6129,4.9189 4.3705,9.946 0.1887,1.2523 1.7479,2.4033 4.4959,3.319 5.1035,1.7006 9.9578,6.9599 10.8593,11.7652 1.1018,5.8733 -2.2195,12.505 -7.6316,15.2383 -7.7142,3.896 -9.0434,3.3602 -12.9916,-5.2366 -1.8937,-4.1233 -3.6681,-7.4969 -3.9431,-7.4969 -0.275,0 -2.0493,3.3736 -3.943,7.4969 l -3.4431,7.497 h -4.2812 c -3.7456,0 -4.4754,-0.3754 -5.8327,-3 -0.8532,-1.65 -1.7532,-3 -2,-3 -0.2467,0 -1.1467,1.35 -2,3 -1.3036,2.521 -2.146,2.999 -5.2756,2.9938 -2.0484,0 -5.0744,-0.7083 -6.7244,-1.5664 z"
         id="path1258" />
    </g>
    <g
       id="g2917"
       transform="matrix(0.26458333,0,0,0.26458333,360.89834,-41.204181)">
      <path
         style="fill:#a4dbee"
         d="m -918.34238,560.58387 c 2.51919,-0.994 6.55027,-0.9809 8.1396,0.026 0.81573,0.5171 -0.86218,0.8158 -4.30232,0.7661 -3.33252,-0.048 -4.90229,-0.3724 -3.83728,-0.7927 z"
         id="path1565" />
      <path
         style="fill:#a4dbee"
         d="m -901.59642,566.44407 c -0.581,-0.6665 -2.156,-1.9758 -3.5,-2.9095 -1.344,-0.9336 -1.99364,-1.709 -1.44364,-1.7231 0.55,-0.014 2.575,1.3003 4.5,2.9207 1.925,1.6204 3.05,2.9412 2.5,2.935 -0.55,-0.01 -1.47536,-0.5565 -2.05636,-1.2231 z"
         id="path1563" />
      <path
         style="fill:#a4dbee"
         d="m -929.9125,567.98607 c 2.35628,-2.9977 3.34538,-3.9015 5.57733,-5.096 3.58771,-1.9201 4.02945,-1.2933 0.57357,0.8138 -1.77184,1.0803 -3.79259,2.8787 -4.49054,3.9963 -0.69796,1.1176 -1.66587,2.032 -2.15091,2.032 -0.48505,0 -0.2643,-0.7858 0.49055,-1.7461 z"
         id="path1561" />
      <path
         style="fill:#a4dbee"
         d="m -898.47577,570.02527 c -0.54268,-1.4252 -0.42782,-1.5401 0.5598,-0.5598 0.68342,0.6783 0.99067,1.4852 0.68278,1.7931 -0.30789,0.3079 -0.86705,-0.2471 -1.24258,-1.2333 z"
         id="path1559" />
      <path
         style="fill:#a4dbee"
         d="m -933.00943,574.23217 c 0,-0.55 0.43621,-1.675 0.96937,-2.5 0.53316,-0.825 0.96937,-1.05 0.96937,-0.5 0,0.55 -0.43621,1.675 -0.96937,2.5 -0.53316,0.825 -0.96937,1.05 -0.96937,0.5 z"
         id="path1557" />
      <path
         style="fill:#a4dbee"
         d="m -895.89023,578.06397 c -0.0824,-1.1926 -0.44106,-2.9926 -0.79701,-4 -0.49774,-1.4088 -0.36423,-1.5713 0.57818,-0.7036 0.67395,0.6205 1.0326,2.4205 0.79701,4 -0.3018,2.0233 -0.47261,2.2312 -0.57818,0.7036 z"
         id="path1549" />
      <path
         style="fill:#a4dbee"
         d="m -892.04006,580.73217 c -0.825,-0.5332 -1.05,-0.9694 -0.5,-0.9694 0.55,0 1.675,0.4362 2.5,0.9694 0.825,0.5331 1.05,0.9693 0.5,0.9693 -0.55,0 -1.675,-0.4362 -2.5,-0.9693 z"
         id="path1545" />
      <path
         style="fill:#a4dbee"
         d="m -939.30673,580.60807 c 0.67834,-0.6834 1.48524,-0.9907 1.79313,-0.6828 0.30789,0.3079 -0.24711,0.8671 -1.23333,1.2426 -1.4252,0.5427 -1.54006,0.4278 -0.5598,-0.5598 z"
         id="path1543" />
      <path
         style="fill:#a4dbee"
         d="m -886.04006,583.73217 c -1.375,-1.0756 -2.00724,-1.9656 -1.40499,-1.9778 0.60226,-0.012 1.9095,0.8778 2.90499,1.9778 2.28016,2.5195 1.72106,2.5195 -1.5,0 z"
         id="path1541" />
      <path
         style="fill:#a4dbee"
         d="m -946.16666,587.23217 c 1.65128,-3.0221 4.05401,-5.9077 4.51872,-5.427 0.22703,0.2348 -0.94269,2.002 -2.59938,3.927 -1.65669,1.925 -2.5204,2.6 -1.91934,1.5 z"
         id="path1539" />
      <path
         style="fill:#a4dbee"
         d="m -882.47577,588.02527 c -0.54268,-1.4252 -0.42782,-1.5401 0.5598,-0.5598 0.68342,0.6783 0.99067,1.4852 0.68278,1.7931 -0.30789,0.3079 -0.86705,-0.2471 -1.24258,-1.2333 z"
         id="path1537" />
      <path
         style="fill:#a4dbee"
         d="m -880.7677,595.73267 c 0,-2.475 0.19502,-3.4875 0.43337,-2.25 0.23836,1.2375 0.23836,3.2625 0,4.5 -0.23835,1.2375 -0.43337,0.225 -0.43337,-2.25 z"
         id="path1523" />
      <path
         style="fill:#a4dbee"
         d="m -948.43307,598.15087 c -0.8682,-2.2625 -0.72262,-5.6872 0.31116,-7.32 0.58539,-0.9246 0.9011,0.3519 0.92742,3.75 0.0419,5.4034 -0.23207,6.1929 -1.23858,3.57 z"
         id="path1521" />
      <path
         style="fill:#a4dbee"
         d="m -883.04006,602.85067 c 0,-0.55 0.45,-1.2781 1,-1.618 0.55,-0.3399 1,-0.1681 1,0.3819 0,0.55 -0.45,1.2782 -1,1.6181 -0.55,0.3399 -1,0.168 -1,-0.382 z"
         id="path1517" />
      <path
         style="fill:#a4dbee"
         d="m -947.04006,602.67367 c 0,-0.5825 0.45,-0.7809 1,-0.441 0.55,0.3399 1,0.8165 1,1.059 0,0.2425 -0.45,0.441 -1,0.441 -0.55,0 -1,-0.4766 -1,-1.059 z"
         id="path1515" />
      <path
         style="fill:#a4dbee"
         d="m -944.16762,605.98267 c -1.24387,-1.5861 -1.2085,-1.6215 0.37756,-0.3776 1.66575,1.3064 2.19548,2.1276 1.37244,2.1276 -0.20765,0 -0.99515,-0.7875 -1.75,-1.75 z"
         id="path1505" />
      <path
         style="fill:#a4dbee"
         d="m -889.54006,608.73267 c 0.33992,-0.55 1.04148,-1 1.55902,-1 0.51754,0 0.94098,0.45 0.94098,1 0,0.55 -0.70156,1 -1.55902,1 -0.85746,0 -1.2809,-0.45 -0.94098,-1 z"
         id="path1497" />
      <path
         style="fill:#a4dbee"
         d="m -940.53298,608.74367 c -0.35034,-0.5668 0.0511,-0.7345 0.94098,-0.393 1.73242,0.6648 2.04939,1.3816 0.61096,1.3816 -0.51754,0 -1.21592,-0.4449 -1.55194,-0.9886 z"
         id="path1495" />
      <path
         style="fill:#a4dbee"
         d="m -935.04006,610.73227 c -1.4022,-0.4491 7.81935,-0.8007 21,-0.8007 13.18065,0 22.4022,0.3516 21,0.8007 -1.375,0.4403 -10.825,0.8006 -21,0.8006 -10.175,0 -19.625,-0.3603 -21,-0.8006 z"
         id="path1485" />
      <path
         style="fill:#a4dbee"
         d="m -882.30449,619.13447 c -0.32877,-0.3288 -0.35563,-1.2288 -0.0597,-2 0.38398,-1.0006 2.36901,-1.4022 6.9311,-1.4022 5.72634,0 6.39301,0.2085 6.39301,2 0,1.7894 -0.66667,2 -6.33333,2 -3.48334,0 -6.60233,-0.269 -6.9311,-0.5978 z"
         id="path1473" />
      <path
         style="fill:#a4dbee"
         d="m -939.04006,617.71477 c 0,-1.9761 0.50688,-2.012 24.73679,-1.75 22.64058,0.2448 24.7653,0.4158 25.07332,2.0175 0.31329,1.6291 -1.39589,1.75 -24.73679,1.75 -24.47902,0 -25.07332,-0.048 -25.07332,-2.0175 z"
         id="path1471" />
      <path
         style="fill:#a4dbee"
         d="m -894.60916,627.62047 c -1.27891,-2.0694 2.03682,-2.8995 10.55785,-2.6434 7.16935,0.2155 8.54075,0.5272 8.82332,2.0052 0.29968,1.5675 -0.65769,1.75 -9.17973,1.75 -5.90202,0 -9.77519,-0.4222 -10.20144,-1.1118 z"
         id="path1469" />
      <path
         style="fill:#a4dbee"
         d="m -960.5845,627.66047 c -0.37471,-0.6063 -0.26336,-1.5203 0.24746,-2.0311 0.54087,-0.5409 12.80375,-0.8178 29.36287,-0.6629 24.48993,0.229 28.43411,0.4739 28.43411,1.7659 0,1.2923 -3.97139,1.5367 -28.68157,1.7652 -20.08197,0.1857 -28.88585,-0.065 -29.36287,-0.8371 z"
         id="path1467" />
      <path
         style="fill:#a4dbee"
         d="m -947.04006,635.73237 c 0,-1.9649 0.66667,-2 38,-2 37.33333,0 38,0.035 38,2 0,1.9649 -0.66667,2 -38,2 -37.33333,0 -38,-0.035 -38,-2 z"
         id="path1461" />
      <path
         style="fill:#44bbe7"
         d="m -940.58286,607.86927 c -4.64792,-2.8343 -6.52433,-6.4398 -6.59886,-12.6794 -0.0534,-4.4697 0.43056,-6.1475 2.5897,-8.9783 2.71211,-3.5557 7.22522,-6.4792 10.0023,-6.4792 0.87055,0 1.54966,-0.8559 1.54966,-1.953 0,-5.6484 7.26479,-14.1978 13.5359,-15.9293 6.61306,-1.826 13.76237,0.2405 19.25048,5.5643 1.71978,1.6683 4.21362,7.756 4.21362,10.2859 0,1.1176 0.4549,2.0321 1.0109,2.0321 2.79258,0 10.43387,4.682 12.09972,7.4139 2.38431,3.91 2.39133,11.9813 0.0139,16.0337 -3.55027,6.0517 -5.22012,6.3991 -31.12456,6.4755 -21.20426,0.063 -23.79725,-0.1119 -26.5428,-1.7862 z"
         id="path1254" />
    </g>
    <g
       id="g2879"
       transform="matrix(0.26458333,0,0,0.26458333,360.89834,-41.204181)">
      <path
         style="fill:#a4dbee"
         d="m -1330.6954,574.56487 c 2.1146,-0.4625 5.2605,-0.474 6.9909,-0.025 2.4945,0.6464 1.6982,0.8205 -3.8447,0.8407 -6.1267,0.022 -6.5156,-0.078 -3.1462,-0.8152 z"
         id="path1555" />
      <path
         style="fill:#a4dbee"
         d="m -1316.0401,576.73217 c -0.825,-0.5332 -1.05,-0.9694 -0.5,-0.9694 0.55,0 1.675,0.4362 2.5,0.9694 0.825,0.5331 1.05,0.9693 0.5,0.9693 -0.55,0 -1.675,-0.4362 -2.5,-0.9693 z"
         id="path1553" />
      <path
         style="fill:#a4dbee"
         d="m -1340.0401,576.73217 c 0.825,-0.5332 2.175,-0.9447 3,-0.9144 0.9891,0.036 0.8188,0.3477 -0.5,0.9144 -2.7491,1.1813 -4.3279,1.1813 -2.5,0 z"
         id="path1551" />
      <path
         style="fill:#a4dbee"
         d="m -1345.0401,579.33917 c 0,-0.2162 0.6984,-0.661 1.552,-0.9886 0.8899,-0.3415 1.2913,-0.1738 0.941,0.393 -0.5873,0.9502 -2.493,1.4055 -2.493,0.5956 z"
         id="path1547" />
      <path
         style="fill:#a4dbee"
         d="m -1301.5871,585.52957 c -2.1741,-2.3115 -3.0547,-3.549 -1.9569,-2.75 2.3522,1.7117 3.5131,2.8359 5.3764,5.2065 2.4991,3.1795 0.5951,1.8117 -3.4195,-2.4565 z"
         id="path1535" />
      <path
         style="fill:#a4dbee"
         d="m -1354.0401,586.23217 c 1.8658,-1.925 3.6174,-3.5 3.8924,-3.5 0.275,0 -1.0266,1.575 -2.8924,3.5 -1.8657,1.925 -3.6173,3.5 -3.8923,3.5 -0.275,0 1.0266,-1.575 2.8923,-3.5 z"
         id="path1533" />
      <path
         style="fill:#a4dbee"
         d="m -1294.5812,595.66567 c -0.3625,-0.5866 -0.4447,-1.281 -0.1825,-1.5432 0.2621,-0.2621 0.743,0.2178 1.0687,1.0666 0.6762,1.7621 0.1,2.072 -0.8862,0.4766 z"
         id="path1525" />
      <path
         style="fill:#a4dbee"
         d="m -1291.9611,602.06447 c -0.043,-0.6426 -0.3379,-1.9926 -0.6545,-3 -0.547,-1.7413 -0.5188,-1.7434 0.5708,-0.044 0.6305,0.9832 0.925,2.3332 0.6545,3 -0.355,0.875 -0.5138,0.8872 -0.5708,0.044 z"
         id="path1519" />
      <path
         style="fill:#a4dbee"
         d="m -1362.9598,602.73267 c -0.07,-1.7367 4.5477,-12 5.3994,-12 0.3144,0 -0.1627,1.4202 -1.0604,3.156 -0.8976,1.7358 -2.2274,4.7733 -2.9552,6.75 -0.7277,1.9767 -1.3505,2.919 -1.3838,2.094 z"
         id="path1513" />
      <path
         style="fill:#a4dbee"
         d="m -1306.6946,604.49797 c 0.635,-0.4041 2.5045,-0.7347 4.1545,-0.7347 1.65,0 3.5196,0.3306 4.1545,0.7347 0.635,0.4041 -1.2345,0.7347 -4.1545,0.7347 -2.9199,0 -4.7895,-0.3306 -4.1545,-0.7347 z"
         id="path1511" />
      <path
         style="fill:#a4dbee"
         d="m -1331.6946,604.49797 c 0.635,-0.4041 2.7295,-0.7347 4.6545,-0.7347 1.925,0 4.0196,0.3306 4.6545,0.7347 0.635,0.4041 -1.4595,0.7347 -4.6545,0.7347 -3.1949,0 -5.2895,-0.3306 -4.6545,-0.7347 z"
         id="path1509" />
      <path
         style="fill:#a4dbee"
         d="m -1355.9881,604.67937 c 1.3364,-0.8455 8.8027,-1.4002 7.8647,-0.5843 -0.2292,0.1993 -2.4183,0.6184 -4.8647,0.9314 -2.8776,0.3681 -3.9368,0.2455 -3,-0.3471 z"
         id="path1507" />
      <path
         style="fill:#a4dbee"
         d="m -1319.1676,606.98267 c -1.2439,-1.5861 -1.2085,-1.6215 0.3775,-0.3776 1.6658,1.3064 2.1955,2.1276 1.3725,2.1276 -0.2077,0 -0.9952,-0.7875 -1.75,-1.75 z"
         id="path1503" />
      <path
         style="fill:#a4dbee"
         d="m -1337.0401,608.35507 c 0,-0.2076 0.7875,-0.9951 1.75,-1.75 1.5861,-1.2439 1.6215,-1.2085 0.3776,0.3776 -1.3064,1.6657 -2.1276,2.1955 -2.1276,1.3724 z"
         id="path1501" />
      <path
         style="fill:#a4dbee"
         d="m -1361.0401,608.35507 c 0,-0.2076 0.7875,-0.9951 1.75,-1.75 1.5861,-1.2439 1.6215,-1.2085 0.3776,0.3776 -1.3064,1.6657 -2.1276,2.1955 -2.1276,1.3724 z"
         id="path1499" />
      <path
         style="fill:#a4dbee"
         d="m -1311.5345,607.72607 c 0.9985,-1.1033 2.0218,-1.7998 2.274,-1.5476 0.5417,0.5416 -2.3089,3.5538 -3.3631,3.5538 -0.3996,0 0.091,-0.9028 1.0891,-2.0062 z"
         id="path1491" />
      <path
         style="fill:#a4dbee"
         d="m -1329.0401,608.51797 c 0,-0.4322 0.9,-0.7857 2,-0.7857 1.1,0 2,0.3535 2,0.7857 0,0.4321 -0.9,0.7857 -2,0.7857 -1.1,0 -2,-0.3536 -2,-0.7857 z"
         id="path1489" />
      <path
         style="fill:#a4dbee"
         d="m -1343.8909,608.12837 c -0.743,-0.8402 -1.1528,-1.7259 -0.9106,-1.9681 0.2422,-0.2421 1.2573,0.4625 2.2559,1.5658 0.9985,1.1034 1.4083,1.9891 0.9105,1.9681 -0.4977,-0.021 -1.5129,-0.7255 -2.2558,-1.5658 z"
         id="path1487" />
      <path
         style="fill:#a4dbee"
         d="m -1317.0401,610.67327 c 0,-0.5825 0.45,-0.7809 1,-0.441 0.55,0.3399 1,0.8165 1,1.059 0,0.2425 -0.45,0.441 -1,0.441 -0.55,0 -1,-0.4766 -1,-1.059 z"
         id="path1483" />
      <path
         style="fill:#a4dbee"
         d="m -1291.0401,612.80897 c 0,-0.5078 -1.2159,-2.4203 -2.702,-4.25 l -2.702,-3.3267 2.6198,2.347 2.6197,2.347 0.4461,-2.347 c 0.2612,-1.3742 0.5025,-0.5854 0.5823,1.903 0.075,2.3375 -0.089,4.25 -0.3639,4.25 -0.275,0 -0.5,-0.4155 -0.5,-0.9233 z"
         id="path1481" />
      <path
         style="fill:#a4dbee"
         d="m -1364.0248,610.98227 c -0.01,-1.7875 0.1573,-3.25 0.3681,-3.25 0.9093,0 1.2957,3.8983 0.5094,5.1393 -0.5862,0.9251 -0.867,0.3203 -0.8775,-1.8893 z"
         id="path1479" />
      <path
         style="fill:#a4dbee"
         d="m -1315.0248,614.04127 c 0.01,-0.445 0.4516,-1.484 0.9847,-2.309 0.8354,-1.2927 0.9715,-1.2663 0.9847,0.191 0.01,0.93 -0.4347,1.9691 -0.9847,2.309 -0.55,0.3399 -0.9931,0.254 -0.9847,-0.191 z"
         id="path1477" />
      <path
         style="fill:#a4dbee"
         d="m -1340.0083,614.17337 c 0.017,-0.5176 0.6925,-1.8146 1.5,-2.8823 0.8075,-1.0676 1.4539,-1.5176 1.4364,-1 -0.018,0.5177 -0.6925,1.8147 -1.5,2.8823 -0.8075,1.0676 -1.4539,1.5176 -1.4364,1 z"
         id="path1475" />
      <path
         style="fill:#a4dbee"
         d="m -1312.4017,640.23237 c 0.3166,-0.825 0.7525,-1.5 0.9686,-1.5 0.2162,0 0.393,0.675 0.393,1.5 0,0.825 -0.4358,1.5 -0.9686,1.5 -0.5327,0 -0.7096,-0.675 -0.393,-1.5 z"
         id="path1459" />
      <path
         style="fill:#a4dbee"
         d="m -1316.7805,638.83387 c 0.854,-2.2773 1.3483,-2.7716 1.5865,-1.5865 0.1904,0.9467 -0.3678,2.4353 -1.2404,3.3078 -1.4486,1.4487 -1.4787,1.2991 -0.3461,-1.7213 z"
         id="path1457" />
      <path
         style="fill:#a4dbee"
         d="m -1324.0601,640.20817 c -0.6957,-0.8383 -1.0713,-1.7178 -0.8346,-1.9545 0.2367,-0.2367 0.9796,0.4492 1.651,1.5242 1.4518,2.3247 0.9676,2.5799 -0.8164,0.4303 z"
         id="path1455" />
      <path
         style="fill:#a4dbee"
         d="m -1316.9567,645.44937 c 0.2291,-0.1556 1.3166,-0.9431 2.4166,-1.75 1.85,-1.357 1.8971,-1.3358 0.6276,0.283 -0.7549,0.9625 -1.8424,1.75 -2.4167,1.75 -0.5743,0 -0.8567,-0.1274 -0.6275,-0.283 z"
         id="path1453" />
      <path
         style="fill:#a4dbee"
         d="m -1327.0364,643.23627 c -1.2897,-1.3728 -2.1556,-2.6243 -1.9243,-2.781 0.2314,-0.1568 1.6294,0.9664 3.1069,2.496 1.4774,1.5296 2.3433,2.7811 1.9243,2.7811 -0.4191,0 -1.8172,-1.1233 -3.1069,-2.4961 z"
         id="path875" />
      <path
         style="fill:#44bbe7"
         d="m -1329.0401,569.73237 c 0,-3.3334 0.3334,-4 2,-4 1.6667,0 2,0.6666 2,4 0,3.3333 -0.3333,4 -2,4 -1.6666,0 -2,-0.6667 -2,-4 z"
         id="path1256" />
      <path
         style="fill:#44bbe7"
         d="m -1340.8592,610.23007 c -1.4402,-3.161 -6.8197,-6.4891 -10.4966,-6.494 -3.6112,-0.01 -6.5863,1.5068 -9.527,4.8405 l -2.3427,2.6558 0.4475,-4.5514 c 0.2461,-2.5032 1.6961,-7.3336 3.2222,-10.7343 7.8344,-17.4573 29.3411,-25.4892 47.2354,-17.6406 10.6507,4.6715 19.9113,16.6842 21.0512,27.3072 l 0.4956,4.6191 -2.3832,-2.1251 c -6.9944,-6.2365 -15.3765,-5.5452 -19.7388,1.628 l -1.7672,2.9058 -1.7482,-2.9595 c -4.6365,-7.8491 -17.0645,-7.8093 -21.1378,0.068 -0.8485,1.6407 -1.6838,2.9831 -1.8564,2.9831 -0.1726,0 -0.8269,-1.1261 -1.4539,-2.5023 z"
         id="path1252" />
      <path
         style="fill:#44bbe7"
         d="m -1326.1433,642.78297 -2.9494,-2.9494 0.2763,-15.3006 c 0.2314,-12.8111 0.5204,-15.3006 1.7763,-15.3006 1.254,0 1.5456,2.4491 1.7778,14.931 0.1661,8.9297 0.7178,15.4611 1.3724,16.25 1.3674,1.6476 6.0485,1.7204 7.6498,0.119 0.66,-0.66 1.2,-2.2085 1.2,-3.441 0,-2.6427 1.7392,-4.0199 3.214,-2.5451 1.4886,1.4886 0.1098,5.9532 -2.7092,8.7722 -3.4086,3.4086 -7.8697,3.2028 -11.608,-0.5355 z"
         id="path871" />
    </g>
  </g>
</svg>
